<svg width="83" height="72" viewBox="0 0 83 72" fill="none" xmlns="http://www.w3.org/2000/svg">
<path d="M33.0962 56.46C32.4391 56.46 31.7821 56.25 31.2633 55.8L10.2712 37.59C9.26831 36.72 9.26831 35.28 10.2712 34.41L31.2633 16.2C32.2662 15.33 33.9262 15.33 34.9291 16.2C35.9321 17.07 35.9321 18.51 34.9291 19.38L15.77 36L34.9291 52.62C35.9321 53.49 35.9321 54.93 34.9291 55.8C34.445 56.25 33.7533 56.46 33.0962 56.46Z" fill="#256586"/>
<path d="M70.8959 38.25H12.6921C11.2742 38.25 10.0984 37.23 10.0984 36C10.0984 34.77 11.2742 33.75 12.6921 33.75H70.8959C72.3138 33.75 73.4896 34.77 73.4896 36C73.4896 37.23 72.3138 38.25 70.8959 38.25Z" fill="#256586"/>
</svg>
