<svg width="144" height="117" viewBox="0 0 144 117" fill="none" xmlns="http://www.w3.org/2000/svg">
<g filter="url(#filter0_d_358_1661)">
<path opacity="0.4" d="M57.3246 7.3335H88.7123C95.45 7.3335 100.764 9.16251 104.388 12.4644C108.006 15.7608 110 20.5793 110 26.6841V55.2817C110 61.3866 108.006 66.205 104.388 69.5015C100.764 72.8034 95.4501 74.6323 88.7123 74.6323H57.3246C50.5869 74.6323 45.2729 72.8034 41.6488 69.5015C38.0309 66.205 36.0375 61.3865 36.0375 55.2817V26.6841C36.0375 20.5793 38.0308 15.7608 41.6488 12.4644C45.2729 9.16241 50.5869 7.33357 57.3246 7.3335Z" fill="#00BD81" stroke="#70DAC3"/>
<path d="M53.9719 22.0464L54.2141 22.0581C58.8281 22.3944 65.7001 24.4233 69.9954 26.6499L70.012 26.6587L70.0295 26.6665C70.3833 26.8169 70.6252 27.1989 70.6252 27.6411V58.938C70.6249 59.7528 69.6895 60.418 68.718 60.0425H68.717C64.4381 58.3674 58.927 56.8096 54.8118 56.2222L54.0081 56.1177L53.9983 56.1167L53.2961 56.0493H53.2971C51.2256 55.8017 49.5754 54.0374 49.5754 52.2065V25.8979C49.5757 23.7117 51.478 21.9814 53.9719 22.0464Z" fill="#96DFDE" stroke="#8BC8D3"/>
<path d="M91.7072 22.0249L91.9542 22.0337C94.4947 22.1783 96.4248 24.069 96.4249 26.3081V52.1724C96.4249 54.0007 94.7795 55.7617 92.712 56.0132L91.9318 56.0815L91.922 56.0825L91.9132 56.0835C88.0342 56.5699 82.5817 58.023 78.1544 59.647L77.2833 59.9741H77.2823C76.3109 60.3496 75.3755 59.6844 75.3751 58.8696V27.6069C75.3751 27.1799 75.6078 26.7704 76.0411 26.5483L76.0402 26.5474C80.3294 24.3577 87.0397 22.3994 91.5822 22.0249H91.7072Z" fill="#96DFDE" stroke="#85B9CD"/>
<mask id="path-4-outside-1_358_1661" maskUnits="userSpaceOnUse" x="4" y="79" width="136" height="24" fill="black">
<rect fill="white" x="4" y="79" width="136" height="24"/>
<path d="M8.20312 85.457V93.1797H5.03906V85.457H8.20312ZM12.5039 97.293C14.4102 96.668 15.9492 95.8789 17.1211 94.9258C17.9336 94.2773 18.5547 93.5703 18.9844 92.8047C19.4141 92.0312 19.6289 91.2227 19.6289 90.3789C19.6289 88.9883 18.7578 88.293 17.0156 88.293H11.0625V80.4883H14.2969V85.457H17.543C21.0586 85.457 22.8164 86.9922 22.8164 90.0625C22.8164 91.5312 22.4688 92.9062 21.7734 94.1875C21.0859 95.4609 20.1016 96.5977 18.8203 97.5977C17.1328 98.9102 15.0273 99.9414 12.5039 100.691V97.293ZM38.3086 98.5586C37.668 98.918 36.8789 99.2148 35.9414 99.4492C35.0117 99.6758 33.8516 99.8438 32.4609 99.9531C31.0781 100.062 29.3867 100.117 27.3867 100.117L24.6445 85.457H27.9609L29.2383 92.4648L30.0938 92.3008C30.625 92.1992 31.0156 92.0273 31.2656 91.7852C31.5234 91.5352 31.7188 91.1641 31.8516 90.6719C31.9141 90.4297 31.9727 90.0938 32.0273 89.6641C32.0898 89.2266 32.1484 88.6953 32.2031 88.0703L32.3789 85.457H35.6133L35.2617 89.4648C35.2148 90.0117 35.1484 90.5039 35.0625 90.9414C34.9766 91.3789 34.8672 91.7578 34.7344 92.0781C34.4766 92.7188 34.1133 93.2188 33.6445 93.5781C33.1836 93.9375 32.4492 94.2383 31.4414 94.4805L29.6836 94.8906L30.1641 97.293H30.4453C31.4219 97.293 32.2852 97.2539 33.0352 97.1758C33.793 97.0898 34.4375 96.9609 34.9688 96.7891C35.6797 96.5703 36.2656 96.2656 36.7266 95.875C37.1875 95.4766 37.5508 94.9492 37.8164 94.293C38.082 93.6289 38.2695 92.7891 38.3789 91.7734L39.1172 85.457H42.3867L41.6367 91.6914C41.4805 93.0352 41.2617 94.1484 40.9805 95.0312C40.707 95.9141 40.3516 96.6328 39.9141 97.1875C39.4844 97.7344 38.9492 98.1914 38.3086 98.5586ZM62.9414 91.5742V100H49.6172V85.457H56.3906C58.7031 85.457 60.3711 85.9336 61.3945 86.8867C62.4258 87.832 62.9414 89.3945 62.9414 91.5742ZM52.7812 97.1641H59.7656V91.9375C59.7656 90.6094 59.5156 89.6719 59.0156 89.125C58.5156 88.5703 57.6406 88.293 56.3906 88.293H52.7812V97.1641ZM69.5859 85.457V93.1797H66.4219V85.457H69.5859ZM83.8242 91.9609C83.8242 90.6484 83.5742 89.7109 83.0742 89.1484C82.5742 88.5781 81.6992 88.293 80.4492 88.293H77.3203V100H74.1562V85.457H80.4492C82.7617 85.457 84.4297 85.9375 85.4531 86.8984C86.4844 87.8516 87 89.4102 87 91.5742V100H83.8242V91.9609ZM94.125 85.457V100H90.9609V85.457H94.125ZM101.367 85.457V100H98.2031V85.457H101.367ZM108.609 85.457V93.1797H105.445V85.457H108.609ZM122.168 88.293V100H119.004V88.293H111.129V85.457H123.973V88.293H122.168ZM138.926 91.5742V100H135.75V91.5508C135.75 90.3555 135.496 89.5156 134.988 89.0312C134.48 88.5391 133.598 88.293 132.34 88.293H126.398V85.457H132.539C134.078 85.457 135.312 85.6641 136.242 86.0781C137.18 86.4922 137.859 87.1484 138.281 88.0469C138.711 88.9375 138.926 90.1133 138.926 91.5742ZM129.797 91.1641V100H126.633V91.1641H129.797Z"/>
</mask>
<path d="M8.20312 85.457V93.1797H5.03906V85.457H8.20312ZM12.5039 97.293C14.4102 96.668 15.9492 95.8789 17.1211 94.9258C17.9336 94.2773 18.5547 93.5703 18.9844 92.8047C19.4141 92.0312 19.6289 91.2227 19.6289 90.3789C19.6289 88.9883 18.7578 88.293 17.0156 88.293H11.0625V80.4883H14.2969V85.457H17.543C21.0586 85.457 22.8164 86.9922 22.8164 90.0625C22.8164 91.5312 22.4688 92.9062 21.7734 94.1875C21.0859 95.4609 20.1016 96.5977 18.8203 97.5977C17.1328 98.9102 15.0273 99.9414 12.5039 100.691V97.293ZM38.3086 98.5586C37.668 98.918 36.8789 99.2148 35.9414 99.4492C35.0117 99.6758 33.8516 99.8438 32.4609 99.9531C31.0781 100.062 29.3867 100.117 27.3867 100.117L24.6445 85.457H27.9609L29.2383 92.4648L30.0938 92.3008C30.625 92.1992 31.0156 92.0273 31.2656 91.7852C31.5234 91.5352 31.7188 91.1641 31.8516 90.6719C31.9141 90.4297 31.9727 90.0938 32.0273 89.6641C32.0898 89.2266 32.1484 88.6953 32.2031 88.0703L32.3789 85.457H35.6133L35.2617 89.4648C35.2148 90.0117 35.1484 90.5039 35.0625 90.9414C34.9766 91.3789 34.8672 91.7578 34.7344 92.0781C34.4766 92.7188 34.1133 93.2188 33.6445 93.5781C33.1836 93.9375 32.4492 94.2383 31.4414 94.4805L29.6836 94.8906L30.1641 97.293H30.4453C31.4219 97.293 32.2852 97.2539 33.0352 97.1758C33.793 97.0898 34.4375 96.9609 34.9688 96.7891C35.6797 96.5703 36.2656 96.2656 36.7266 95.875C37.1875 95.4766 37.5508 94.9492 37.8164 94.293C38.082 93.6289 38.2695 92.7891 38.3789 91.7734L39.1172 85.457H42.3867L41.6367 91.6914C41.4805 93.0352 41.2617 94.1484 40.9805 95.0312C40.707 95.9141 40.3516 96.6328 39.9141 97.1875C39.4844 97.7344 38.9492 98.1914 38.3086 98.5586ZM62.9414 91.5742V100H49.6172V85.457H56.3906C58.7031 85.457 60.3711 85.9336 61.3945 86.8867C62.4258 87.832 62.9414 89.3945 62.9414 91.5742ZM52.7812 97.1641H59.7656V91.9375C59.7656 90.6094 59.5156 89.6719 59.0156 89.125C58.5156 88.5703 57.6406 88.293 56.3906 88.293H52.7812V97.1641ZM69.5859 85.457V93.1797H66.4219V85.457H69.5859ZM83.8242 91.9609C83.8242 90.6484 83.5742 89.7109 83.0742 89.1484C82.5742 88.5781 81.6992 88.293 80.4492 88.293H77.3203V100H74.1562V85.457H80.4492C82.7617 85.457 84.4297 85.9375 85.4531 86.8984C86.4844 87.8516 87 89.4102 87 91.5742V100H83.8242V91.9609ZM94.125 85.457V100H90.9609V85.457H94.125ZM101.367 85.457V100H98.2031V85.457H101.367ZM108.609 85.457V93.1797H105.445V85.457H108.609ZM122.168 88.293V100H119.004V88.293H111.129V85.457H123.973V88.293H122.168ZM138.926 91.5742V100H135.75V91.5508C135.75 90.3555 135.496 89.5156 134.988 89.0312C134.48 88.5391 133.598 88.293 132.34 88.293H126.398V85.457H132.539C134.078 85.457 135.312 85.6641 136.242 86.0781C137.18 86.4922 137.859 87.1484 138.281 88.0469C138.711 88.9375 138.926 90.1133 138.926 91.5742ZM129.797 91.1641V100H126.633V91.1641H129.797Z" fill="white"/>
<path d="M8.20312 85.457H9.20312V84.457H8.20312V85.457ZM8.20312 93.1797V94.1797H9.20312V93.1797H8.20312ZM5.03906 93.1797H4.03906V94.1797H5.03906V93.1797ZM5.03906 85.457V84.457H4.03906V85.457H5.03906ZM8.20312 85.457H7.20312V93.1797H8.20312H9.20312V85.457H8.20312ZM8.20312 93.1797V92.1797H5.03906V93.1797V94.1797H8.20312V93.1797ZM5.03906 93.1797H6.03906V85.457H5.03906H4.03906V93.1797H5.03906ZM5.03906 85.457V86.457H8.20312V85.457V84.457H5.03906V85.457ZM12.5039 97.293L12.1924 96.3427L11.5039 96.5685V97.293H12.5039ZM17.1211 94.9258L16.4973 94.1441L16.4901 94.15L17.1211 94.9258ZM18.9844 92.8047L19.8564 93.2941L19.8585 93.2903L18.9844 92.8047ZM11.0625 88.293H10.0625V89.293H11.0625V88.293ZM11.0625 80.4883V79.4883H10.0625V80.4883H11.0625ZM14.2969 80.4883H15.2969V79.4883H14.2969V80.4883ZM14.2969 85.457H13.2969V86.457H14.2969V85.457ZM21.7734 94.1875L20.8945 93.7105L20.8935 93.7124L21.7734 94.1875ZM18.8203 97.5977L19.4343 98.387L19.4356 98.386L18.8203 97.5977ZM12.5039 100.691H11.5039V102.032L12.7888 101.65L12.5039 100.691ZM12.5039 97.293L12.8155 98.2432C14.802 97.5919 16.4598 96.7526 17.7521 95.7016L17.1211 94.9258L16.4901 94.15C15.4386 95.0052 14.0183 95.7441 12.1924 96.3427L12.5039 97.293ZM17.1211 94.9258L17.7449 95.7074C18.64 94.993 19.3531 94.1909 19.8564 93.2941L18.9844 92.8047L18.1123 92.3153C17.7563 92.9497 17.2272 93.5617 16.4973 94.1442L17.1211 94.9258ZM18.9844 92.8047L19.8585 93.2903C20.3666 92.3758 20.6289 91.401 20.6289 90.3789H19.6289H18.6289C18.6289 91.0443 18.4615 91.6867 18.1102 92.319L18.9844 92.8047ZM19.6289 90.3789H20.6289C20.6289 89.4621 20.3306 88.6165 19.5994 88.0329C18.9113 87.4836 17.9932 87.293 17.0156 87.293V88.293V89.293C17.7803 89.293 18.1688 89.45 18.3517 89.596C18.4917 89.7077 18.6289 89.9051 18.6289 90.3789H19.6289ZM17.0156 88.293V87.293H11.0625V88.293V89.293H17.0156V88.293ZM11.0625 88.293H12.0625V80.4883H11.0625H10.0625V88.293H11.0625ZM11.0625 80.4883V81.4883H14.2969V80.4883V79.4883H11.0625V80.4883ZM14.2969 80.4883H13.2969V85.457H14.2969H15.2969V80.4883H14.2969ZM14.2969 85.457V86.457H17.543V85.457V84.457H14.2969V85.457ZM17.543 85.457V86.457C19.1774 86.457 20.2164 86.8168 20.8403 87.3616C21.4382 87.8838 21.8164 88.7194 21.8164 90.0625H22.8164H23.8164C23.8164 88.3353 23.3157 86.8682 22.1558 85.8552C21.0218 84.8648 19.4242 84.457 17.543 84.457V85.457ZM22.8164 90.0625H21.8164C21.8164 91.366 21.5097 92.5769 20.8945 93.7105L21.7734 94.1875L22.6524 94.6645C23.4278 93.2356 23.8164 91.6965 23.8164 90.0625H22.8164ZM21.7734 94.1875L20.8935 93.7124C20.2793 94.8502 19.3908 95.8839 18.205 96.8093L18.8203 97.5977L19.4356 98.386C20.8123 97.3114 21.8926 96.0717 22.6534 94.6626L21.7734 94.1875ZM18.8203 97.5977L18.2064 96.8083C16.6369 98.029 14.6499 99.0104 12.219 99.7328L12.5039 100.691L12.7888 101.65C15.4048 100.872 17.6287 99.7913 19.4343 98.387L18.8203 97.5977ZM12.5039 100.691H13.5039V97.293H12.5039H11.5039V100.691H12.5039ZM38.3086 98.5586L38.7979 99.4308L38.8059 99.4262L38.3086 98.5586ZM35.9414 99.4492L36.1782 100.421L36.1839 100.419L35.9414 99.4492ZM32.4609 99.9531L32.3825 98.9562L32.3821 98.9562L32.4609 99.9531ZM27.3867 100.117L26.4038 100.301L26.5564 101.117H27.3867V100.117ZM24.6445 85.457V84.457H23.4401L23.6616 85.6409L24.6445 85.457ZM27.9609 85.457L28.9447 85.2777L28.7951 84.457H27.9609V85.457ZM29.2383 92.4648L28.2545 92.6442L28.4355 93.637L29.4266 93.4469L29.2383 92.4648ZM30.0938 92.3008L29.906 91.3186L29.9054 91.3187L30.0938 92.3008ZM31.2656 91.7852L31.9614 92.5034L31.9618 92.5031L31.2656 91.7852ZM31.8516 90.6719L32.8171 90.9324L32.8198 90.9218L31.8516 90.6719ZM32.0273 89.6641L31.0374 89.5226L31.0363 89.5302L31.0353 89.5378L32.0273 89.6641ZM32.2031 88.0703L33.1993 88.1575L33.2002 88.1475L33.2009 88.1374L32.2031 88.0703ZM32.3789 85.457V84.457H31.4439L31.3812 85.3899L32.3789 85.457ZM35.6133 85.457L36.6095 85.5444L36.7048 84.457H35.6133V85.457ZM35.2617 89.4648L34.2655 89.3775L34.2654 89.3794L35.2617 89.4648ZM34.7344 92.0781L33.8106 91.6951L33.8067 91.7048L34.7344 92.0781ZM33.6445 93.5781L33.0361 92.7845L33.0297 92.7895L33.6445 93.5781ZM31.4414 94.4805L31.6686 95.4543L31.6751 95.4528L31.4414 94.4805ZM29.6836 94.8906L29.4564 93.9168L28.513 94.1369L28.703 95.0867L29.6836 94.8906ZM30.1641 97.293L29.1835 97.4891L29.3443 98.293H30.1641V97.293ZM33.0352 97.1758L33.1388 98.1704L33.1478 98.1694L33.0352 97.1758ZM34.9688 96.7891L34.6747 95.8333L34.6678 95.8354L34.6609 95.8376L34.9688 96.7891ZM36.7266 95.875L37.3731 96.6379L37.3805 96.6315L36.7266 95.875ZM37.8164 94.293L38.7434 94.6682L38.7449 94.6644L37.8164 94.293ZM38.3789 91.7734L37.3856 91.6573L37.3847 91.6664L38.3789 91.7734ZM39.1172 85.457V84.457H38.2273L38.1239 85.3409L39.1172 85.457ZM42.3867 85.457L43.3796 85.5765L43.5142 84.457H42.3867V85.457ZM41.6367 91.6914L40.6439 91.572L40.6434 91.5759L41.6367 91.6914ZM40.9805 95.0312L40.0276 94.7277L40.0252 94.7354L40.9805 95.0312ZM39.9141 97.1875L39.1289 96.5682L39.1277 96.5697L39.9141 97.1875ZM38.3086 98.5586L37.8193 97.6865C37.2762 97.9911 36.5756 98.2599 35.6989 98.4791L35.9414 99.4492L36.1839 100.419C37.1822 100.17 38.0598 99.8448 38.7978 99.4307L38.3086 98.5586ZM35.9414 99.4492L35.7046 98.4777C34.8446 98.6872 33.7416 98.8493 32.3825 98.9562L32.4609 99.9531L32.5393 100.95C33.9615 100.838 35.1788 100.664 36.1782 100.421L35.9414 99.4492ZM32.4609 99.9531L32.3821 98.9562C31.0342 99.0629 29.3708 99.1172 27.3867 99.1172V100.117V101.117C29.4026 101.117 31.1221 101.062 32.5398 100.95L32.4609 99.9531ZM27.3867 100.117L28.3697 99.9333L25.6275 85.2732L24.6445 85.457L23.6616 85.6409L26.4038 100.301L27.3867 100.117ZM24.6445 85.457V86.457H27.9609V85.457V84.457H24.6445V85.457ZM27.9609 85.457L26.9771 85.6364L28.2545 92.6442L29.2383 92.4648L30.2221 92.2855L28.9447 85.2777L27.9609 85.457ZM29.2383 92.4648L29.4266 93.4469L30.2821 93.2829L30.0938 92.3008L29.9054 91.3187L29.0499 91.4827L29.2383 92.4648ZM30.0938 92.3008L30.2815 93.283C30.9063 93.1636 31.5138 92.937 31.9614 92.5034L31.2656 91.7852L30.5698 91.0669C30.5175 91.1177 30.3437 91.2349 29.906 91.3186L30.0938 92.3008ZM31.2656 91.7852L31.9618 92.5031C32.3922 92.0857 32.6559 91.5293 32.817 90.9324L31.8516 90.6719L30.8861 90.4114C30.7816 90.7988 30.6547 90.9846 30.5695 91.0673L31.2656 91.7852ZM31.8516 90.6719L32.8198 90.9218C32.8977 90.62 32.9626 90.2363 33.0193 89.7903L32.0273 89.6641L31.0353 89.5378C30.9827 89.9512 30.9304 90.2394 30.8833 90.422L31.8516 90.6719ZM32.0273 89.6641L33.0173 89.8055C33.0832 89.3442 33.1436 88.7938 33.1993 88.1575L32.2031 88.0703L31.2069 87.9831C31.1532 88.5968 31.0965 89.1089 31.0374 89.5226L32.0273 89.6641ZM32.2031 88.0703L33.2009 88.1374L33.3767 85.5241L32.3789 85.457L31.3812 85.3899L31.2054 88.0032L32.2031 88.0703ZM32.3789 85.457V86.457H35.6133V85.457V84.457H32.3789V85.457ZM35.6133 85.457L34.6171 85.3696L34.2655 89.3775L35.2617 89.4648L36.2579 89.5522L36.6095 85.5444L35.6133 85.457ZM35.2617 89.4648L34.2654 89.3794C34.2209 89.8982 34.1588 90.3536 34.0813 90.7487L35.0625 90.9414L36.0437 91.1342C36.138 90.6542 36.2088 90.1253 36.2581 89.5502L35.2617 89.4648ZM35.0625 90.9414L34.0813 90.7487C34.0047 91.1384 33.912 91.4506 33.8106 91.6951L34.7344 92.0781L35.6581 92.4611C35.8224 92.065 35.9484 91.6194 36.0437 91.1342L35.0625 90.9414ZM34.7344 92.0781L33.8067 91.7048C33.6043 92.2077 33.3402 92.5514 33.0361 92.7845L33.6445 93.5781L34.253 94.3717C34.8863 93.8861 35.3488 93.2298 35.6621 92.4515L34.7344 92.0781ZM33.6445 93.5781L33.0297 92.7895C32.737 93.0176 32.1679 93.2774 31.2077 93.5081L31.4414 94.4805L31.6751 95.4528C32.7305 95.1991 33.6301 94.8574 34.2594 94.3668L33.6445 93.5781ZM31.4414 94.4805L31.2142 93.5066L29.4564 93.9168L29.6836 94.8906L29.9108 95.8645L31.6686 95.4543L31.4414 94.4805ZM29.6836 94.8906L28.703 95.0867L29.1835 97.4891L30.1641 97.293L31.1446 97.0969L30.6642 94.6945L29.6836 94.8906ZM30.1641 97.293V98.293H30.4453V97.293V96.293H30.1641V97.293ZM30.4453 97.293V98.293C31.447 98.293 32.346 98.253 33.1388 98.1704L33.0352 97.1758L32.9316 96.1812C32.2243 96.2548 31.3968 96.293 30.4453 96.293V97.293ZM33.0352 97.1758L33.1478 98.1694C33.9497 98.0785 34.6636 97.9388 35.2766 97.7405L34.9688 96.7891L34.6609 95.8376C34.2114 95.9831 33.6363 96.1012 32.9225 96.1821L33.0352 97.1758ZM34.9688 96.7891L35.2628 97.7448C36.074 97.4952 36.788 97.1337 37.3731 96.6379L36.7266 95.875L36.08 95.1121C35.7432 95.3975 35.2853 95.6454 34.6747 95.8333L34.9688 96.7891ZM36.7266 95.875L37.3805 96.6315C37.9794 96.1138 38.4279 95.4475 38.7434 94.6682L37.8164 94.293L36.8895 93.9178C36.6737 94.4509 36.3956 94.8393 36.0726 95.1185L36.7266 95.875ZM37.8164 94.293L38.7449 94.6644C39.0554 93.888 39.2578 92.9515 39.3732 91.8805L38.3789 91.7734L37.3847 91.6664C37.2812 92.6266 37.1086 93.3698 36.8879 93.9216L37.8164 94.293ZM38.3789 91.7734L39.3721 91.8895L40.1104 85.5731L39.1172 85.457L38.1239 85.3409L37.3857 91.6573L38.3789 91.7734ZM39.1172 85.457V86.457H42.3867V85.457V84.457H39.1172V85.457ZM42.3867 85.457L41.3939 85.3376L40.6439 91.572L41.6367 91.6914L42.6296 91.8108L43.3796 85.5765L42.3867 85.457ZM41.6367 91.6914L40.6434 91.5759C40.4915 92.8821 40.2827 93.927 40.0277 94.7277L40.9805 95.0312L41.9333 95.3348C42.2407 94.3698 42.4694 93.1882 42.63 91.8069L41.6367 91.6914ZM40.9805 95.0312L40.0252 94.7354C39.7775 95.5351 39.4709 96.1346 39.1289 96.5682L39.9141 97.1875L40.6992 97.8068C41.2322 97.131 41.6365 96.293 41.9357 95.3271L40.9805 95.0312ZM39.9141 97.1875L39.1277 96.5697C38.7823 97.0094 38.3474 97.3837 37.8113 97.691L38.3086 98.5586L38.8059 99.4262C39.551 98.9991 40.1865 98.4594 40.7004 97.8053L39.9141 97.1875ZM62.9414 100V101H63.9414V100H62.9414ZM49.6172 100H48.6172V101H49.6172V100ZM49.6172 85.457V84.457H48.6172V85.457H49.6172ZM61.3945 86.8867L60.713 87.6185L60.7188 87.6239L61.3945 86.8867ZM52.7812 97.1641H51.7812V98.1641H52.7812V97.1641ZM59.7656 97.1641V98.1641H60.7656V97.1641H59.7656ZM59.0156 89.125L58.2728 89.7946L58.2776 89.7998L59.0156 89.125ZM52.7812 88.293V87.293H51.7812V88.293H52.7812ZM62.9414 91.5742H61.9414V100H62.9414H63.9414V91.5742H62.9414ZM62.9414 100V99H49.6172V100V101H62.9414V100ZM49.6172 100H50.6172V85.457H49.6172H48.6172V100H49.6172ZM49.6172 85.457V86.457H56.3906V85.457V84.457H49.6172V85.457ZM56.3906 85.457V86.457C58.6054 86.457 59.9634 86.9204 60.713 87.6185L61.3945 86.8867L62.0761 86.1549C60.7788 84.9468 58.8008 84.457 56.3906 84.457V85.457ZM61.3945 86.8867L60.7188 87.6239C61.452 88.296 61.9414 89.5205 61.9414 91.5742H62.9414H63.9414C63.9414 89.2685 63.3995 87.3681 62.0703 86.1496L61.3945 86.8867ZM52.7812 97.1641V98.1641H59.7656V97.1641V96.1641H52.7812V97.1641ZM59.7656 97.1641H60.7656V91.9375H59.7656H58.7656V97.1641H59.7656ZM59.7656 91.9375H60.7656C60.7656 90.5384 60.5129 89.2807 59.7537 88.4502L59.0156 89.125L58.2776 89.7998C58.5183 90.0631 58.7656 90.6803 58.7656 91.9375H59.7656ZM59.0156 89.125L59.7584 88.4555C58.9736 87.5848 57.7408 87.293 56.3906 87.293V88.293V89.293C57.5404 89.293 58.0577 89.5558 58.2729 89.7945L59.0156 89.125ZM56.3906 88.293V87.293H52.7812V88.293V89.293H56.3906V88.293ZM52.7812 88.293H51.7812V97.1641H52.7812H53.7812V88.293H52.7812ZM69.5859 85.457H70.5859V84.457H69.5859V85.457ZM69.5859 93.1797V94.1797H70.5859V93.1797H69.5859ZM66.4219 93.1797H65.4219V94.1797H66.4219V93.1797ZM66.4219 85.457V84.457H65.4219V85.457H66.4219ZM69.5859 85.457H68.5859V93.1797H69.5859H70.5859V85.457H69.5859ZM69.5859 93.1797V92.1797H66.4219V93.1797V94.1797H69.5859V93.1797ZM66.4219 93.1797H67.4219V85.457H66.4219H65.4219V93.1797H66.4219ZM66.4219 85.457V86.457H69.5859V85.457V84.457H66.4219V85.457ZM83.0742 89.1484L82.3223 89.8077L82.3268 89.8128L83.0742 89.1484ZM77.3203 88.293V87.293H76.3203V88.293H77.3203ZM77.3203 100V101H78.3203V100H77.3203ZM74.1562 100H73.1562V101H74.1562V100ZM74.1562 85.457V84.457H73.1562V85.457H74.1562ZM85.4531 86.8984L84.7686 87.6275L84.7744 87.6328L85.4531 86.8984ZM87 100V101H88V100H87ZM83.8242 100H82.8242V101H83.8242V100ZM83.8242 91.9609H84.8242C84.8242 90.5696 84.5684 89.3242 83.8216 88.4841L83.0742 89.1484L82.3268 89.8128C82.5801 90.0977 82.8242 90.7273 82.8242 91.9609H83.8242ZM83.0742 89.1484L83.8262 88.4892C83.0429 87.5958 81.8062 87.293 80.4492 87.293V88.293V89.293C81.5922 89.293 82.1056 89.5605 82.3223 89.8077L83.0742 89.1484ZM80.4492 88.293V87.293H77.3203V88.293V89.293H80.4492V88.293ZM77.3203 88.293H76.3203V100H77.3203H78.3203V88.293H77.3203ZM77.3203 100V99H74.1562V100V101H77.3203V100ZM74.1562 100H75.1562V85.457H74.1562H73.1562V100H74.1562ZM74.1562 85.457V86.457H80.4492V85.457V84.457H74.1562V85.457ZM80.4492 85.457V86.457C82.6624 86.457 84.019 86.9236 84.7686 87.6275L85.4531 86.8984L86.1376 86.1694C84.8403 84.9514 82.861 84.457 80.4492 84.457V85.457ZM85.4531 86.8984L84.7744 87.6328C85.5122 88.3148 86 89.5397 86 91.5742H87H88C88 89.2806 87.4565 87.3884 86.1319 86.1641L85.4531 86.8984ZM87 91.5742H86V100H87H88V91.5742H87ZM87 100V99H83.8242V100V101H87V100ZM83.8242 100H84.8242V91.9609H83.8242H82.8242V100H83.8242ZM94.125 85.457H95.125V84.457H94.125V85.457ZM94.125 100V101H95.125V100H94.125ZM90.9609 100H89.9609V101H90.9609V100ZM90.9609 85.457V84.457H89.9609V85.457H90.9609ZM94.125 85.457H93.125V100H94.125H95.125V85.457H94.125ZM94.125 100V99H90.9609V100V101H94.125V100ZM90.9609 100H91.9609V85.457H90.9609H89.9609V100H90.9609ZM90.9609 85.457V86.457H94.125V85.457V84.457H90.9609V85.457ZM101.367 85.457H102.367V84.457H101.367V85.457ZM101.367 100V101H102.367V100H101.367ZM98.2031 100H97.2031V101H98.2031V100ZM98.2031 85.457V84.457H97.2031V85.457H98.2031ZM101.367 85.457H100.367V100H101.367H102.367V85.457H101.367ZM101.367 100V99H98.2031V100V101H101.367V100ZM98.2031 100H99.2031V85.457H98.2031H97.2031V100H98.2031ZM98.2031 85.457V86.457H101.367V85.457V84.457H98.2031V85.457ZM108.609 85.457H109.609V84.457H108.609V85.457ZM108.609 93.1797V94.1797H109.609V93.1797H108.609ZM105.445 93.1797H104.445V94.1797H105.445V93.1797ZM105.445 85.457V84.457H104.445V85.457H105.445ZM108.609 85.457H107.609V93.1797H108.609H109.609V85.457H108.609ZM108.609 93.1797V92.1797H105.445V93.1797V94.1797H108.609V93.1797ZM105.445 93.1797H106.445V85.457H105.445H104.445V93.1797H105.445ZM105.445 85.457V86.457H108.609V85.457V84.457H105.445V85.457ZM122.168 88.293V87.293H121.168V88.293H122.168ZM122.168 100V101H123.168V100H122.168ZM119.004 100H118.004V101H119.004V100ZM119.004 88.293H120.004V87.293H119.004V88.293ZM111.129 88.293H110.129V89.293H111.129V88.293ZM111.129 85.457V84.457H110.129V85.457H111.129ZM123.973 85.457H124.973V84.457H123.973V85.457ZM123.973 88.293V89.293H124.973V88.293H123.973ZM122.168 88.293H121.168V100H122.168H123.168V88.293H122.168ZM122.168 100V99H119.004V100V101H122.168V100ZM119.004 100H120.004V88.293H119.004H118.004V100H119.004ZM119.004 88.293V87.293H111.129V88.293V89.293H119.004V88.293ZM111.129 88.293H112.129V85.457H111.129H110.129V88.293H111.129ZM111.129 85.457V86.457H123.973V85.457V84.457H111.129V85.457ZM123.973 85.457H122.973V88.293H123.973H124.973V85.457H123.973ZM123.973 88.293V87.293H122.168V88.293V89.293H123.973V88.293ZM138.926 100V101H139.926V100H138.926ZM135.75 100H134.75V101H135.75V100ZM134.988 89.0312L134.292 89.7493L134.298 89.7549L134.988 89.0312ZM126.398 88.293H125.398V89.293H126.398V88.293ZM126.398 85.457V84.457H125.398V85.457H126.398ZM136.242 86.0781L135.835 86.9916L135.838 86.9929L136.242 86.0781ZM138.281 88.0469L137.376 88.4719L137.381 88.4814L138.281 88.0469ZM129.797 91.1641H130.797V90.1641H129.797V91.1641ZM129.797 100V101H130.797V100H129.797ZM126.633 100H125.633V101H126.633V100ZM126.633 91.1641V90.1641H125.633V91.1641H126.633ZM138.926 91.5742H137.926V100H138.926H139.926V91.5742H138.926ZM138.926 100V99H135.75V100V101H138.926V100ZM135.75 100H136.75V91.5508H135.75H134.75V100H135.75ZM135.75 91.5508H136.75C136.75 90.2634 136.485 89.0772 135.678 88.3076L134.988 89.0312L134.298 89.7549C134.507 89.9541 134.75 90.4475 134.75 91.5508H135.75ZM134.988 89.0312L135.684 88.3132C134.89 87.543 133.673 87.293 132.34 87.293V88.293V89.293C133.523 89.293 134.071 89.5351 134.292 89.7493L134.988 89.0312ZM132.34 88.293V87.293H126.398V88.293V89.293H132.34V88.293ZM126.398 88.293H127.398V85.457H126.398H125.398V88.293H126.398ZM126.398 85.457V86.457H132.539V85.457V84.457H126.398V85.457ZM132.539 85.457V86.457C134.003 86.457 135.082 86.6562 135.835 86.9916L136.242 86.0781L136.649 85.1646C135.543 84.672 134.153 84.457 132.539 84.457V85.457ZM136.242 86.0781L135.838 86.9929C136.563 87.313 137.06 87.7995 137.376 88.4719L138.281 88.0469L139.186 87.6218C138.658 86.4974 137.796 85.6714 136.646 85.1634L136.242 86.0781ZM138.281 88.0469L137.381 88.4814C137.721 89.1875 137.926 90.1978 137.926 91.5742H138.926H139.926C139.926 90.0288 139.701 88.6875 139.182 87.6123L138.281 88.0469ZM129.797 91.1641H128.797V100H129.797H130.797V91.1641H129.797ZM129.797 100V99H126.633V100V101H129.797V100ZM126.633 100H127.633V91.1641H126.633H125.633V100H126.633ZM126.633 91.1641V92.1641H129.797V91.1641V90.1641H126.633V91.1641Z" fill="#0E4866" mask="url(#path-4-outside-1_358_1661)"/>
</g>
<defs>
<filter id="filter0_d_358_1661" x="0.0390625" y="6.8335" width="143.887" height="103.198" filterUnits="userSpaceOnUse" color-interpolation-filters="sRGB">
<feFlood flood-opacity="0" result="BackgroundImageFix"/>
<feColorMatrix in="SourceAlpha" type="matrix" values="0 0 0 0 0 0 0 0 0 0 0 0 0 0 0 0 0 0 127 0" result="hardAlpha"/>
<feOffset dy="4"/>
<feGaussianBlur stdDeviation="2"/>
<feComposite in2="hardAlpha" operator="out"/>
<feColorMatrix type="matrix" values="0 0 0 0 0 0 0 0 0 0 0 0 0 0 0 0 0 0 0.25 0"/>
<feBlend mode="normal" in2="BackgroundImageFix" result="effect1_dropShadow_358_1661"/>
<feBlend mode="normal" in="SourceGraphic" in2="effect1_dropShadow_358_1661" result="shape"/>
</filter>
</defs>
</svg>
