<svg width="122" height="112" viewBox="0 0 122 112" fill="none" xmlns="http://www.w3.org/2000/svg">
<g filter="url(#filter0_d_361_1726)">
<ellipse cx="59.5" cy="34.5" rx="33.5" ry="34.5" fill="#56CEBE"/>
</g>
<g filter="url(#filter1_d_361_1726)">
<mask id="path-2-outside-1_361_1726" maskUnits="userSpaceOnUse" x="4" y="79" width="114" height="22" fill="black">
<rect fill="white" x="4" y="79" width="114" height="22"/>
<path d="M16.9062 86.5742V95H13.7305V86.5508C13.7305 85.3398 13.4688 84.4961 12.9453 84.0195C12.4297 83.5352 11.5586 83.293 10.332 83.293H5.45703V80.457H10.5195C12.0586 80.457 13.293 80.6641 14.2227 81.0781C15.1602 81.4844 15.8398 82.1367 16.2617 83.0352C16.6914 83.9258 16.9062 85.1055 16.9062 86.5742ZM33.1602 93.5586C32.5195 93.918 31.7305 94.2148 30.793 94.4492C29.8633 94.6758 28.7031 94.8438 27.3125 94.9531C25.9297 95.0625 24.2383 95.1172 22.2383 95.1172L19.4961 80.457H22.8125L24.0898 87.4648L24.9453 87.3008C25.4766 87.1992 25.8672 87.0273 26.1172 86.7852C26.375 86.5352 26.5703 86.1641 26.7031 85.6719C26.7656 85.4297 26.8242 85.0938 26.8789 84.6641C26.9414 84.2266 27 83.6953 27.0547 83.0703L27.2305 80.457H30.4648L30.1133 84.4648C30.0664 85.0117 30 85.5039 29.9141 85.9414C29.8281 86.3789 29.7188 86.7578 29.5859 87.0781C29.3281 87.7188 28.9648 88.2188 28.4961 88.5781C28.0352 88.9375 27.3008 89.2383 26.293 89.4805L24.5352 89.8906L25.0156 92.293H25.2969C26.2734 92.293 27.1367 92.2539 27.8867 92.1758C28.6445 92.0898 29.2891 91.9609 29.8203 91.7891C30.5312 91.5703 31.1172 91.2656 31.5781 90.875C32.0391 90.4766 32.4023 89.9492 32.668 89.293C32.9336 88.6289 33.1211 87.7891 33.2305 86.7734L33.9688 80.457H37.2383L36.4883 86.6914C36.332 88.0352 36.1133 89.1484 35.832 90.0312C35.5586 90.9141 35.2031 91.6328 34.7656 92.1875C34.3359 92.7344 33.8008 93.1914 33.1602 93.5586ZM52.543 85.2852C52.543 86.7695 52.2422 88.1562 51.6406 89.4453C51.0391 90.7344 50.1562 91.8906 48.9922 92.9141C47.8359 93.9375 46.418 94.793 44.7383 95.4805V92.1172C46.207 91.4297 47.3398 90.5156 48.1367 89.375C48.9414 88.2266 49.3438 86.9883 49.3438 85.6602C49.3438 84.7852 49.125 84.1719 48.6875 83.8203C48.25 83.4688 47.4844 83.293 46.3906 83.293H39.6055V80.457H46.8477C48.832 80.457 50.2773 80.8359 51.1836 81.5938C52.0898 82.3438 52.543 83.5742 52.543 85.2852ZM43.3672 86.0703V99.5117H40.2031V86.0703H43.3672ZM63.9102 92.6797C63.5977 93.4844 63.1172 94.0742 62.4688 94.4492C61.8203 94.8164 60.8789 95 59.6445 95H58.8477V92.1641H59.0469C59.5859 92.1641 60.0156 92.0625 60.3359 91.8594C60.6484 91.6562 60.8711 91.3477 61.0039 90.9336C61.1367 90.5117 61.2031 89.875 61.2031 89.0234V83.293H58.9766V80.457H67.1328C69.3828 80.457 70.9961 80.9336 71.9727 81.8867C72.957 82.832 73.4492 84.4023 73.4492 86.5977V95H70.2734V86.6445C70.2734 85.3945 70.0195 84.5234 69.5117 84.0312C69.0039 83.5391 68.1484 83.293 66.9453 83.293H64.3672V89.4336C64.3672 90.7852 64.2148 91.8672 63.9102 92.6797ZM86.5391 86.5742V95H83.3633V86.5508C83.3633 85.3398 83.1016 84.4961 82.5781 84.0195C82.0625 83.5352 81.1914 83.293 79.9648 83.293H75.0898V80.457H80.1523C81.6914 80.457 82.9258 80.6641 83.8555 81.0781C84.793 81.4844 85.4727 82.1367 85.8945 83.0352C86.3242 83.9258 86.5391 85.1055 86.5391 86.5742ZM94.3906 80.457V88.1797H91.2266V80.457H94.3906ZM109.777 92.9609V95H97.4844V92.1641H105.359L96.5469 80.457H100.344L104.785 86.4805C105.301 86.2305 105.672 85.8555 105.898 85.3555C106.133 84.8555 106.297 84.125 106.391 83.1641L106.648 80.457H109.895L109.648 83.1875C109.547 84.2656 109.375 85.1094 109.133 85.7188C108.891 86.3125 108.543 86.8164 108.09 87.2305C107.637 87.6445 107.016 88.0117 106.227 88.332L109.777 92.9609ZM116.258 80.457V88.1797H113.094V80.457H116.258Z"/>
</mask>
<path d="M16.9062 86.5742V95H13.7305V86.5508C13.7305 85.3398 13.4688 84.4961 12.9453 84.0195C12.4297 83.5352 11.5586 83.293 10.332 83.293H5.45703V80.457H10.5195C12.0586 80.457 13.293 80.6641 14.2227 81.0781C15.1602 81.4844 15.8398 82.1367 16.2617 83.0352C16.6914 83.9258 16.9062 85.1055 16.9062 86.5742ZM33.1602 93.5586C32.5195 93.918 31.7305 94.2148 30.793 94.4492C29.8633 94.6758 28.7031 94.8438 27.3125 94.9531C25.9297 95.0625 24.2383 95.1172 22.2383 95.1172L19.4961 80.457H22.8125L24.0898 87.4648L24.9453 87.3008C25.4766 87.1992 25.8672 87.0273 26.1172 86.7852C26.375 86.5352 26.5703 86.1641 26.7031 85.6719C26.7656 85.4297 26.8242 85.0938 26.8789 84.6641C26.9414 84.2266 27 83.6953 27.0547 83.0703L27.2305 80.457H30.4648L30.1133 84.4648C30.0664 85.0117 30 85.5039 29.9141 85.9414C29.8281 86.3789 29.7188 86.7578 29.5859 87.0781C29.3281 87.7188 28.9648 88.2188 28.4961 88.5781C28.0352 88.9375 27.3008 89.2383 26.293 89.4805L24.5352 89.8906L25.0156 92.293H25.2969C26.2734 92.293 27.1367 92.2539 27.8867 92.1758C28.6445 92.0898 29.2891 91.9609 29.8203 91.7891C30.5312 91.5703 31.1172 91.2656 31.5781 90.875C32.0391 90.4766 32.4023 89.9492 32.668 89.293C32.9336 88.6289 33.1211 87.7891 33.2305 86.7734L33.9688 80.457H37.2383L36.4883 86.6914C36.332 88.0352 36.1133 89.1484 35.832 90.0312C35.5586 90.9141 35.2031 91.6328 34.7656 92.1875C34.3359 92.7344 33.8008 93.1914 33.1602 93.5586ZM52.543 85.2852C52.543 86.7695 52.2422 88.1562 51.6406 89.4453C51.0391 90.7344 50.1562 91.8906 48.9922 92.9141C47.8359 93.9375 46.418 94.793 44.7383 95.4805V92.1172C46.207 91.4297 47.3398 90.5156 48.1367 89.375C48.9414 88.2266 49.3438 86.9883 49.3438 85.6602C49.3438 84.7852 49.125 84.1719 48.6875 83.8203C48.25 83.4688 47.4844 83.293 46.3906 83.293H39.6055V80.457H46.8477C48.832 80.457 50.2773 80.8359 51.1836 81.5938C52.0898 82.3438 52.543 83.5742 52.543 85.2852ZM43.3672 86.0703V99.5117H40.2031V86.0703H43.3672ZM63.9102 92.6797C63.5977 93.4844 63.1172 94.0742 62.4688 94.4492C61.8203 94.8164 60.8789 95 59.6445 95H58.8477V92.1641H59.0469C59.5859 92.1641 60.0156 92.0625 60.3359 91.8594C60.6484 91.6562 60.8711 91.3477 61.0039 90.9336C61.1367 90.5117 61.2031 89.875 61.2031 89.0234V83.293H58.9766V80.457H67.1328C69.3828 80.457 70.9961 80.9336 71.9727 81.8867C72.957 82.832 73.4492 84.4023 73.4492 86.5977V95H70.2734V86.6445C70.2734 85.3945 70.0195 84.5234 69.5117 84.0312C69.0039 83.5391 68.1484 83.293 66.9453 83.293H64.3672V89.4336C64.3672 90.7852 64.2148 91.8672 63.9102 92.6797ZM86.5391 86.5742V95H83.3633V86.5508C83.3633 85.3398 83.1016 84.4961 82.5781 84.0195C82.0625 83.5352 81.1914 83.293 79.9648 83.293H75.0898V80.457H80.1523C81.6914 80.457 82.9258 80.6641 83.8555 81.0781C84.793 81.4844 85.4727 82.1367 85.8945 83.0352C86.3242 83.9258 86.5391 85.1055 86.5391 86.5742ZM94.3906 80.457V88.1797H91.2266V80.457H94.3906ZM109.777 92.9609V95H97.4844V92.1641H105.359L96.5469 80.457H100.344L104.785 86.4805C105.301 86.2305 105.672 85.8555 105.898 85.3555C106.133 84.8555 106.297 84.125 106.391 83.1641L106.648 80.457H109.895L109.648 83.1875C109.547 84.2656 109.375 85.1094 109.133 85.7188C108.891 86.3125 108.543 86.8164 108.09 87.2305C107.637 87.6445 107.016 88.0117 106.227 88.332L109.777 92.9609ZM116.258 80.457V88.1797H113.094V80.457H116.258Z" fill="white"/>
<path d="M16.9062 95V96H17.9062V95H16.9062ZM13.7305 95H12.7305V96H13.7305V95ZM12.9453 84.0195L12.2606 84.7484L12.2663 84.7537L12.2721 84.759L12.9453 84.0195ZM5.45703 83.293H4.45703V84.293H5.45703V83.293ZM5.45703 80.457V79.457H4.45703V80.457H5.45703ZM14.2227 81.0781L13.8158 81.9917L13.825 81.9957L14.2227 81.0781ZM16.2617 83.0352L15.3565 83.4602L15.3611 83.4697L16.2617 83.0352ZM16.9062 86.5742H15.9062V95H16.9062H17.9062V86.5742H16.9062ZM16.9062 95V94H13.7305V95V96H16.9062V95ZM13.7305 95H14.7305V86.5508H13.7305H12.7305V95H13.7305ZM13.7305 86.5508H14.7305C14.7305 85.248 14.458 84.0443 13.6185 83.2801L12.9453 84.0195L12.2721 84.759C12.4795 84.9478 12.7305 85.4316 12.7305 86.5508H13.7305ZM12.9453 84.0195L13.63 83.2907C12.8332 82.5422 11.6411 82.293 10.332 82.293V83.293V84.293C11.4761 84.293 12.0261 84.5281 12.2606 84.7484L12.9453 84.0195ZM10.332 83.293V82.293H5.45703V83.293V84.293H10.332V83.293ZM5.45703 83.293H6.45703V80.457H5.45703H4.45703V83.293H5.45703ZM5.45703 80.457V81.457H10.5195V80.457V79.457H5.45703V80.457ZM10.5195 80.457V81.457C11.9835 81.457 13.0626 81.6562 13.8158 81.9916L14.2227 81.0781L14.6295 80.1646C13.5233 79.672 12.1337 79.457 10.5195 79.457V80.457ZM14.2227 81.0781L13.825 81.9957C14.5462 82.3082 15.0415 82.7893 15.3565 83.4602L16.2617 83.0352L17.1669 82.6101C16.6382 81.4841 15.7741 80.6606 14.6203 80.1606L14.2227 81.0781ZM16.2617 83.0352L15.3611 83.4697C15.7014 84.1752 15.9062 85.189 15.9062 86.5742H16.9062H17.9062C17.9062 85.0219 17.6814 83.6764 17.1624 82.6006L16.2617 83.0352ZM33.1602 93.5586L33.6494 94.4308L33.6574 94.4262L33.1602 93.5586ZM30.793 94.4492L31.0297 95.4208L31.0355 95.4194L30.793 94.4492ZM27.3125 94.9531L27.2341 93.9562L27.2337 93.9562L27.3125 94.9531ZM22.2383 95.1172L21.2553 95.301L21.408 96.1172H22.2383V95.1172ZM19.4961 80.457V79.457H18.2917L18.5131 80.6409L19.4961 80.457ZM22.8125 80.457L23.7963 80.2777L23.6467 79.457H22.8125V80.457ZM24.0898 87.4648L23.1061 87.6442L23.287 88.637L24.2782 88.4469L24.0898 87.4648ZM24.9453 87.3008L24.7575 86.3186L24.757 86.3187L24.9453 87.3008ZM26.1172 86.7852L26.813 87.5034L26.8133 87.5031L26.1172 86.7852ZM26.7031 85.6719L27.6687 85.9324L27.6714 85.9218L26.7031 85.6719ZM26.8789 84.6641L25.889 84.5226L25.8879 84.5302L25.8869 84.5378L26.8789 84.6641ZM27.0547 83.0703L28.0509 83.1575L28.0518 83.1475L28.0524 83.1374L27.0547 83.0703ZM27.2305 80.457V79.457H26.2955L26.2327 80.3899L27.2305 80.457ZM30.4648 80.457L31.461 80.5444L31.5564 79.457H30.4648V80.457ZM30.1133 84.4648L29.1171 84.3775L29.1169 84.3794L30.1133 84.4648ZM29.5859 87.0781L28.6621 86.6951L28.6582 86.7048L29.5859 87.0781ZM28.4961 88.5781L27.8876 87.7845L27.8812 87.7895L28.4961 88.5781ZM26.293 89.4805L26.5202 90.4543L26.5266 90.4528L26.293 89.4805ZM24.5352 89.8906L24.3079 88.9168L23.3646 89.1369L23.5546 90.0867L24.5352 89.8906ZM25.0156 92.293L24.035 92.4891L24.1958 93.293H25.0156V92.293ZM27.8867 92.1758L27.9903 93.1704L27.9994 93.1694L27.8867 92.1758ZM29.8203 91.7891L29.5262 90.8333L29.5193 90.8354L29.5125 90.8376L29.8203 91.7891ZM31.5781 90.875L32.2247 91.6379L32.2321 91.6315L31.5781 90.875ZM32.668 89.293L33.5949 89.6682L33.5964 89.6644L32.668 89.293ZM33.2305 86.7734L32.2372 86.6573L32.2362 86.6664L33.2305 86.7734ZM33.9688 80.457V79.457H33.0788L32.9755 80.3409L33.9688 80.457ZM37.2383 80.457L38.2311 80.5765L38.3658 79.457H37.2383V80.457ZM36.4883 86.6914L35.4954 86.572L35.495 86.5759L36.4883 86.6914ZM35.832 90.0312L34.8792 89.7277L34.8768 89.7354L35.832 90.0312ZM34.7656 92.1875L33.9805 91.5682L33.9793 91.5697L34.7656 92.1875ZM33.1602 93.5586L32.6709 92.6865C32.1277 92.9911 31.4271 93.2599 30.5504 93.4791L30.793 94.4492L31.0355 95.4194C32.0338 95.1698 32.9113 94.8448 33.6494 94.4307L33.1602 93.5586ZM30.793 94.4492L30.5562 93.4777C29.6962 93.6872 28.5932 93.8493 27.2341 93.9562L27.3125 94.9531L27.3909 95.95C28.8131 95.8382 30.0304 95.6643 31.0297 95.4208L30.793 94.4492ZM27.3125 94.9531L27.2337 93.9562C25.8857 94.0629 24.2224 94.1172 22.2383 94.1172V95.1172V96.1172C24.2542 96.1172 25.9737 96.0621 27.3913 95.95L27.3125 94.9531ZM22.2383 95.1172L23.2212 94.9333L20.479 80.2732L19.4961 80.457L18.5131 80.6409L21.2553 95.301L22.2383 95.1172ZM19.4961 80.457V81.457H22.8125V80.457V79.457H19.4961V80.457ZM22.8125 80.457L21.8287 80.6364L23.1061 87.6442L24.0898 87.4648L25.0736 87.2855L23.7963 80.2777L22.8125 80.457ZM24.0898 87.4648L24.2782 88.4469L25.1337 88.2829L24.9453 87.3008L24.757 86.3187L23.9015 86.4827L24.0898 87.4648ZM24.9453 87.3008L25.1331 88.283C25.7578 88.1636 26.3654 87.937 26.813 87.5034L26.1172 86.7852L25.4214 86.0669C25.369 86.1177 25.1953 86.2349 24.7575 86.3186L24.9453 87.3008ZM26.1172 86.7852L26.8133 87.5031C27.2437 87.0857 27.5075 86.5293 27.6686 85.9324L26.7031 85.6719L25.7377 85.4114C25.6331 85.7988 25.5063 85.9846 25.421 86.0673L26.1172 86.7852ZM26.7031 85.6719L27.6714 85.9218C27.7493 85.62 27.8141 85.2363 27.8709 84.7903L26.8789 84.6641L25.8869 84.5378C25.8343 84.9512 25.782 85.2394 25.7348 85.422L26.7031 85.6719ZM26.8789 84.6641L27.8689 84.8055C27.9347 84.3442 27.9952 83.7938 28.0509 83.1575L27.0547 83.0703L26.0585 82.9831C26.0048 83.5968 25.9481 84.1089 25.889 84.5226L26.8789 84.6641ZM27.0547 83.0703L28.0524 83.1374L28.2282 80.5241L27.2305 80.457L26.2327 80.3899L26.0569 83.0032L27.0547 83.0703ZM27.2305 80.457V81.457H30.4648V80.457V79.457H27.2305V80.457ZM30.4648 80.457L29.4687 80.3696L29.1171 84.3775L30.1133 84.4648L31.1095 84.5522L31.461 80.5444L30.4648 80.457ZM30.1133 84.4648L29.1169 84.3794C29.0725 84.8982 29.0104 85.3536 28.9328 85.7487L29.9141 85.9414L30.8953 86.1342C30.9896 85.6542 31.0603 85.1253 31.1096 84.5502L30.1133 84.4648ZM29.9141 85.9414L28.9328 85.7487C28.8563 86.1384 28.7636 86.4506 28.6622 86.6951L29.5859 87.0781L30.5097 87.4611C30.6739 87.065 30.8 86.6194 30.8953 86.1342L29.9141 85.9414ZM29.5859 87.0781L28.6582 86.7048C28.4559 87.2077 28.1918 87.5514 27.8877 87.7845L28.4961 88.5781L29.1045 89.3717C29.7379 88.8861 30.2004 88.2298 30.5136 87.4515L29.5859 87.0781ZM28.4961 88.5781L27.8812 87.7895C27.5886 88.0176 27.0195 88.2774 26.0593 88.5081L26.293 89.4805L26.5266 90.4528C27.5821 90.1991 28.4817 89.8574 29.111 89.3668L28.4961 88.5781ZM26.293 89.4805L26.0657 88.5066L24.3079 88.9168L24.5352 89.8906L24.7624 90.8645L26.5202 90.4543L26.293 89.4805ZM24.5352 89.8906L23.5546 90.0867L24.035 92.4891L25.0156 92.293L25.9962 92.0969L25.5157 89.6945L24.5352 89.8906ZM25.0156 92.293V93.293H25.2969V92.293V91.293H25.0156V92.293ZM25.2969 92.293V93.293C26.2986 93.293 27.1976 93.253 27.9903 93.1704L27.8867 92.1758L27.7831 91.1812C27.0758 91.2548 26.2483 91.293 25.2969 91.293V92.293ZM27.8867 92.1758L27.9994 93.1694C28.8012 93.0785 29.5152 92.9388 30.1281 92.7405L29.8203 91.7891L29.5125 90.8376C29.063 90.9831 28.4878 91.1012 27.774 91.1821L27.8867 92.1758ZM29.8203 91.7891L30.1144 92.7448C30.9256 92.4952 31.6396 92.1337 32.2246 91.6379L31.5781 90.875L30.9316 90.1121C30.5948 90.3975 30.1369 90.6454 29.5262 90.8333L29.8203 91.7891ZM31.5781 90.875L32.2321 91.6315C32.831 91.1138 33.2795 90.4475 33.5949 89.6682L32.668 89.293L31.741 88.9178C31.5252 89.4509 31.2471 89.8393 30.9242 90.1185L31.5781 90.875ZM32.668 89.293L33.5964 89.6644C33.907 88.888 34.1094 87.9515 34.2247 86.8805L33.2305 86.7734L32.2362 86.6664C32.1328 87.6266 31.9602 88.3698 31.7395 88.9216L32.668 89.293ZM33.2305 86.7734L34.2237 86.8895L34.962 80.5731L33.9688 80.457L32.9755 80.3409L32.2372 86.6573L33.2305 86.7734ZM33.9688 80.457V81.457H37.2383V80.457V79.457H33.9688V80.457ZM37.2383 80.457L36.2454 80.3376L35.4954 86.572L36.4883 86.6914L37.4811 86.8108L38.2311 80.5765L37.2383 80.457ZM36.4883 86.6914L35.495 86.5759C35.3431 87.8821 35.1343 88.927 34.8792 89.7277L35.832 90.0312L36.7848 90.3348C37.0923 89.3698 37.321 88.1882 37.4816 86.8069L36.4883 86.6914ZM35.832 90.0312L34.8768 89.7354C34.6291 90.5351 34.3224 91.1346 33.9805 91.5682L34.7656 92.1875L35.5508 92.8068C36.0838 92.131 36.4881 91.293 36.7873 90.3271L35.832 90.0312ZM34.7656 92.1875L33.9793 91.5697C33.6338 92.0094 33.199 92.3837 32.6629 92.691L33.1602 93.5586L33.6574 94.4262C34.4026 93.9991 35.038 93.4594 35.5519 92.8053L34.7656 92.1875ZM48.9922 92.9141L48.3319 92.163L48.3294 92.1653L48.9922 92.9141ZM44.7383 95.4805H43.7383V96.9703L45.1171 96.4059L44.7383 95.4805ZM44.7383 92.1172L44.3143 91.2115L43.7383 91.4811V92.1172H44.7383ZM48.1367 89.375L47.3177 88.8012L47.317 88.8023L48.1367 89.375ZM39.6055 83.293H38.6055V84.293H39.6055V83.293ZM39.6055 80.457V79.457H38.6055V80.457H39.6055ZM51.1836 81.5938L50.5421 82.3609L50.546 82.3641L51.1836 81.5938ZM43.3672 86.0703H44.3672V85.0703H43.3672V86.0703ZM43.3672 99.5117V100.512H44.3672V99.5117H43.3672ZM40.2031 99.5117H39.2031V100.512H40.2031V99.5117ZM40.2031 86.0703V85.0703H39.2031V86.0703H40.2031ZM52.543 85.2852H51.543C51.543 86.6299 51.2715 87.8716 50.7344 89.0224L51.6406 89.4453L52.5468 89.8682C53.2129 88.4409 53.543 86.9091 53.543 85.2852H52.543ZM51.6406 89.4453L50.7344 89.0224C50.1964 90.1755 49.4016 91.2226 48.3319 92.163L48.9922 92.9141L49.6525 93.6651C50.9109 92.5587 51.8818 91.2933 52.5468 89.8682L51.6406 89.4453ZM48.9922 92.9141L48.3294 92.1653C47.2705 93.1025 45.9531 93.9027 44.3595 94.555L44.7383 95.4805L45.1171 96.4059C46.8829 95.6832 48.4014 94.7725 49.655 93.6629L48.9922 92.9141ZM44.7383 95.4805H45.7383V92.1172H44.7383H43.7383V95.4805H44.7383ZM44.7383 92.1172L45.1622 93.0229C46.7633 92.2734 48.0436 91.2544 48.9565 89.9477L48.1367 89.375L47.317 88.8023C46.6361 89.7769 45.6508 90.5859 44.3143 91.2115L44.7383 92.1172ZM48.1367 89.375L48.9557 89.9488C49.8712 88.6422 50.3438 87.2054 50.3438 85.6602H49.3438H48.3438C48.3438 86.7711 48.0116 87.8109 47.3177 88.8012L48.1367 89.375ZM49.3438 85.6602H50.3438C50.3438 84.6529 50.0945 83.6681 49.3139 83.0408L48.6875 83.8203L48.0611 84.5998C48.1555 84.6756 48.3438 84.9174 48.3438 85.6602H49.3438ZM48.6875 83.8203L49.3139 83.0408C48.5947 82.4629 47.5276 82.293 46.3906 82.293V83.293V84.293C47.4411 84.293 47.9053 84.4746 48.0611 84.5998L48.6875 83.8203ZM46.3906 83.293V82.293H39.6055V83.293V84.293H46.3906V83.293ZM39.6055 83.293H40.6055V80.457H39.6055H38.6055V83.293H39.6055ZM39.6055 80.457V81.457H46.8477V80.457V79.457H39.6055V80.457ZM46.8477 80.457V81.457C48.744 81.457 49.9029 81.8264 50.5421 82.3609L51.1836 81.5938L51.8251 80.8266C50.6518 79.8455 48.92 79.457 46.8477 79.457V80.457ZM51.1836 81.5938L50.546 82.3641C51.1333 82.8502 51.543 83.7325 51.543 85.2852H52.543H53.543C53.543 83.4159 53.0464 81.8373 51.8212 80.8234L51.1836 81.5938ZM43.3672 86.0703H42.3672V99.5117H43.3672H44.3672V86.0703H43.3672ZM43.3672 99.5117V98.5117H40.2031V99.5117V100.512H43.3672V99.5117ZM40.2031 99.5117H41.2031V86.0703H40.2031H39.2031V99.5117H40.2031ZM40.2031 86.0703V87.0703H43.3672V86.0703V85.0703H40.2031V86.0703ZM63.9102 92.6797L64.8424 93.0417L64.8465 93.0308L63.9102 92.6797ZM62.4688 94.4492L62.9615 95.3194L62.9694 95.3149L62.4688 94.4492ZM58.8477 95H57.8477V96H58.8477V95ZM58.8477 92.1641V91.1641H57.8477V92.1641H58.8477ZM60.3359 91.8594L60.8715 92.7039L60.8809 92.6978L60.3359 91.8594ZM61.0039 90.9336L61.9561 91.239L61.9578 91.2339L61.0039 90.9336ZM61.2031 83.293H62.2031V82.293H61.2031V83.293ZM58.9766 83.293H57.9766V84.293H58.9766V83.293ZM58.9766 80.457V79.457H57.9766V80.457H58.9766ZM71.9727 81.8867L71.2742 82.6024L71.28 82.608L71.9727 81.8867ZM73.4492 95V96H74.4492V95H73.4492ZM70.2734 95H69.2734V96H70.2734V95ZM64.3672 83.293V82.293H63.3672V83.293H64.3672ZM63.9102 92.6797L62.978 92.3177C62.7347 92.9442 62.3902 93.3394 61.9681 93.5836L62.4688 94.4492L62.9694 95.3149C63.8441 94.809 64.4606 94.0245 64.8423 93.0417L63.9102 92.6797ZM62.4688 94.4492L61.976 93.579C61.5462 93.8224 60.8068 94 59.6445 94V95V96C60.951 96 62.0944 95.8104 62.9615 95.3194L62.4688 94.4492ZM59.6445 95V94H58.8477V95V96H59.6445V95ZM58.8477 95H59.8477V92.1641H58.8477H57.8477V95H58.8477ZM58.8477 92.1641V93.1641H59.0469V92.1641V91.1641H58.8477V92.1641ZM59.0469 92.1641V93.1641C59.6995 93.1641 60.337 93.0428 60.8715 92.7039L60.3359 91.8594L59.8004 91.0149C59.6943 91.0822 59.4724 91.1641 59.0469 91.1641V92.1641ZM60.3359 91.8594L60.8809 92.6978C61.4177 92.3489 61.7653 91.834 61.9561 91.239L61.0039 90.9336L60.0517 90.6282C59.9769 90.8613 59.8792 90.9636 59.7909 91.0209L60.3359 91.8594ZM61.0039 90.9336L61.9578 91.2339C62.1377 90.6622 62.2031 89.901 62.2031 89.0234H61.2031H60.2031C60.2031 89.849 60.1357 90.3612 60.0501 90.6333L61.0039 90.9336ZM61.2031 89.0234H62.2031V83.293H61.2031H60.2031V89.0234H61.2031ZM61.2031 83.293V82.293H58.9766V83.293V84.293H61.2031V83.293ZM58.9766 83.293H59.9766V80.457H58.9766H57.9766V83.293H58.9766ZM58.9766 80.457V81.457H67.1328V80.457V79.457H58.9766V80.457ZM67.1328 80.457V81.457C69.2821 81.457 70.5742 81.9191 71.2742 82.6024L71.9727 81.8867L72.6711 81.1711C71.418 79.9481 69.4835 79.457 67.1328 79.457V80.457ZM71.9727 81.8867L71.28 82.608C71.9766 83.277 72.4492 84.5145 72.4492 86.5977H73.4492H74.4492C74.4492 84.2902 73.9374 82.3871 72.6653 81.1654L71.9727 81.8867ZM73.4492 86.5977H72.4492V95H73.4492H74.4492V86.5977H73.4492ZM73.4492 95V94H70.2734V95V96H73.4492V95ZM70.2734 95H71.2734V86.6445H70.2734H69.2734V95H70.2734ZM70.2734 86.6445H71.2734C71.2734 85.3161 71.0143 84.095 70.2077 83.3132L69.5117 84.0312L68.8157 84.7493C69.0247 84.9519 69.2734 85.473 69.2734 86.6445H70.2734ZM69.5117 84.0312L70.2077 83.3132C69.4193 82.549 68.2383 82.293 66.9453 82.293V83.293V84.293C68.0586 84.293 68.5885 84.5291 68.8157 84.7493L69.5117 84.0312ZM66.9453 83.293V82.293H64.3672V83.293V84.293H66.9453V83.293ZM64.3672 83.293H63.3672V89.4336H64.3672H65.3672V83.293H64.3672ZM64.3672 89.4336H63.3672C63.3672 90.7246 63.2197 91.673 62.9738 92.3286L63.9102 92.6797L64.8465 93.0308C65.21 92.0614 65.3672 90.8457 65.3672 89.4336H64.3672ZM86.5391 95V96H87.5391V95H86.5391ZM83.3633 95H82.3633V96H83.3633V95ZM82.5781 84.0195L81.8934 84.7484L81.8991 84.7537L81.9049 84.759L82.5781 84.0195ZM75.0898 83.293H74.0898V84.293H75.0898V83.293ZM75.0898 80.457V79.457H74.0898V80.457H75.0898ZM83.8555 81.0781L83.4486 81.9917L83.4579 81.9957L83.8555 81.0781ZM85.8945 83.0352L84.9893 83.4602L84.9939 83.4697L85.8945 83.0352ZM86.5391 86.5742H85.5391V95H86.5391H87.5391V86.5742H86.5391ZM86.5391 95V94H83.3633V95V96H86.5391V95ZM83.3633 95H84.3633V86.5508H83.3633H82.3633V95H83.3633ZM83.3633 86.5508H84.3633C84.3633 85.248 84.0908 84.0443 83.2513 83.2801L82.5781 84.0195L81.9049 84.759C82.1124 84.9478 82.3633 85.4316 82.3633 86.5508H83.3633ZM82.5781 84.0195L83.2628 83.2907C82.4661 82.5422 81.2739 82.293 79.9648 82.293V83.293V84.293C81.1089 84.293 81.6589 84.5281 81.8934 84.7484L82.5781 84.0195ZM79.9648 83.293V82.293H75.0898V83.293V84.293H79.9648V83.293ZM75.0898 83.293H76.0898V80.457H75.0898H74.0898V83.293H75.0898ZM75.0898 80.457V81.457H80.1523V80.457V79.457H75.0898V80.457ZM80.1523 80.457V81.457C81.6163 81.457 82.6954 81.6562 83.4486 81.9916L83.8555 81.0781L84.2623 80.1646C83.1561 79.672 81.7665 79.457 80.1523 79.457V80.457ZM83.8555 81.0781L83.4579 81.9957C84.179 82.3082 84.6743 82.7893 84.9894 83.4602L85.8945 83.0352L86.7997 82.6101C86.271 81.4841 85.4069 80.6606 84.2531 80.1606L83.8555 81.0781ZM85.8945 83.0352L84.9939 83.4697C85.3343 84.1752 85.5391 85.189 85.5391 86.5742H86.5391H87.5391C87.5391 85.0219 87.3142 83.6764 86.7952 82.6006L85.8945 83.0352ZM94.3906 80.457H95.3906V79.457H94.3906V80.457ZM94.3906 88.1797V89.1797H95.3906V88.1797H94.3906ZM91.2266 88.1797H90.2266V89.1797H91.2266V88.1797ZM91.2266 80.457V79.457H90.2266V80.457H91.2266ZM94.3906 80.457H93.3906V88.1797H94.3906H95.3906V80.457H94.3906ZM94.3906 88.1797V87.1797H91.2266V88.1797V89.1797H94.3906V88.1797ZM91.2266 88.1797H92.2266V80.457H91.2266H90.2266V88.1797H91.2266ZM91.2266 80.457V81.457H94.3906V80.457V79.457H91.2266V80.457ZM109.777 92.9609H110.777V92.6216L110.571 92.3523L109.777 92.9609ZM109.777 95V96H110.777V95H109.777ZM97.4844 95H96.4844V96H97.4844V95ZM97.4844 92.1641V91.1641H96.4844V92.1641H97.4844ZM105.359 92.1641V93.1641H107.364L106.158 91.5627L105.359 92.1641ZM96.5469 80.457V79.457H94.5425L95.7479 81.0584L96.5469 80.457ZM100.344 80.457L101.149 79.8636L100.849 79.457H100.344V80.457ZM104.785 86.4805L103.98 87.0739L104.474 87.7429L105.221 87.3803L104.785 86.4805ZM105.898 85.3555L104.993 84.931L104.988 84.9427L105.898 85.3555ZM106.391 83.1641L107.386 83.2612L107.386 83.2589L106.391 83.1641ZM106.648 80.457V79.457H105.739L105.653 80.3622L106.648 80.457ZM109.895 80.457L110.89 80.5468L110.989 79.457H109.895V80.457ZM109.648 83.1875L110.644 83.2813L110.644 83.2773L109.648 83.1875ZM109.133 85.7188L110.059 86.0964L110.062 86.0881L109.133 85.7188ZM106.227 88.332L105.85 87.4055L104.634 87.8992L105.433 88.9407L106.227 88.332ZM109.777 92.9609H108.777V95H109.777H110.777V92.9609H109.777ZM109.777 95V94H97.4844V95V96H109.777V95ZM97.4844 95H98.4844V92.1641H97.4844H96.4844V95H97.4844ZM97.4844 92.1641V93.1641H105.359V92.1641V91.1641H97.4844V92.1641ZM105.359 92.1641L106.158 91.5627L97.3458 79.8556L96.5469 80.457L95.7479 81.0584L104.56 92.7655L105.359 92.1641ZM96.5469 80.457V81.457H100.344V80.457V79.457H96.5469V80.457ZM100.344 80.457L99.5389 81.0505L103.98 87.0739L104.785 86.4805L105.59 85.887L101.149 79.8636L100.344 80.457ZM104.785 86.4805L105.221 87.3803C105.937 87.0332 106.482 86.4909 106.809 85.7682L105.898 85.3555L104.988 84.9427C104.862 85.22 104.664 85.4277 104.349 85.5807L104.785 86.4805ZM105.898 85.3555L106.804 85.7799C107.11 85.1271 107.288 84.2639 107.386 83.2612L106.391 83.1641L105.395 83.067C105.306 83.9861 105.156 84.5838 104.993 84.931L105.898 85.3555ZM106.391 83.1641L107.386 83.2589L107.644 80.5518L106.648 80.457L105.653 80.3622L105.395 83.0693L106.391 83.1641ZM106.648 80.457V81.457H109.895V80.457V79.457H106.648V80.457ZM109.895 80.457L108.899 80.3673L108.652 83.0977L109.648 83.1875L110.644 83.2773L110.89 80.5468L109.895 80.457ZM109.648 83.1875L108.653 83.0937C108.555 84.1302 108.395 84.8669 108.204 85.3494L109.133 85.7188L110.062 86.0881C110.355 85.3519 110.539 84.401 110.644 83.2813L109.648 83.1875ZM109.133 85.7188L108.207 85.3411C108.018 85.8038 107.754 86.1827 107.415 86.4923L108.09 87.2305L108.764 87.9687C109.332 87.4501 109.763 86.8212 110.059 86.0964L109.133 85.7188ZM108.09 87.2305L107.415 86.4923C107.076 86.8019 106.569 87.1137 105.85 87.4055L106.227 88.332L106.603 89.2586C107.462 88.9097 108.197 88.4871 108.764 87.9687L108.09 87.2305ZM106.227 88.332L105.433 88.9407L108.984 93.5696L109.777 92.9609L110.571 92.3523L107.02 87.7234L106.227 88.332ZM116.258 80.457H117.258V79.457H116.258V80.457ZM116.258 88.1797V89.1797H117.258V88.1797H116.258ZM113.094 88.1797H112.094V89.1797H113.094V88.1797ZM113.094 80.457V79.457H112.094V80.457H113.094ZM116.258 80.457H115.258V88.1797H116.258H117.258V80.457H116.258ZM116.258 88.1797V87.1797H113.094V88.1797V89.1797H116.258V88.1797ZM113.094 88.1797H114.094V80.457H113.094H112.094V88.1797H113.094ZM113.094 80.457V81.457H116.258V80.457V79.457H113.094V80.457Z" fill="#0E4866" mask="url(#path-2-outside-1_361_1726)"/>
</g>
<path d="M47.8789 12.167C48.3316 12.167 48.7822 12.2599 49.1934 12.4443L49.3672 12.5293L49.374 12.5332C49.7892 12.7436 50.162 13.0451 50.4717 13.4707L50.6006 13.6602L50.6035 13.665L55.5342 21.2949L55.5352 21.2979C55.8095 21.7163 56.0237 22.1039 56.1875 22.4707L56.335 22.832L56.3379 22.8389C56.5122 23.2855 56.6015 23.713 56.6016 24.0801C56.6016 24.4904 56.5061 24.9071 56.3086 25.3184L56.2178 25.4941L56.21 25.5078C56.0214 25.8741 55.7637 26.2608 55.4404 26.6572L55.0957 27.0566L55.0889 27.0645L53.4736 28.9072C53.1499 29.2662 53.0098 29.6923 53.0098 30.1699C53.0098 30.3997 53.0365 30.6013 53.0859 30.8184L53.0918 30.8438L53.1006 30.8682C53.1362 30.9725 53.172 31.0644 53.2002 31.1377L53.2656 31.3193L53.2773 31.3584L53.2959 31.3965C53.649 32.1072 54.2146 32.9867 54.9824 34.0156L55.3242 34.4658L55.3271 34.4697C56.0479 35.3842 56.8058 36.3131 57.6094 37.2461L58.4287 38.1797L58.4316 38.1836C58.5427 38.3055 58.6587 38.4271 58.7695 38.543L59.0898 38.8838L59.0947 38.8887C59.7262 39.5649 59.7799 40.6601 59.2295 41.4033L59.1113 41.5469L55.1807 45.8633C54.5531 46.5523 53.5746 46.5599 52.9199 45.8818C52.7999 45.7502 52.6794 45.6254 52.5645 45.5049C52.4472 45.382 52.3348 45.2637 52.2227 45.1406H52.2217C50.0498 42.7325 48.0901 40.2085 46.3408 37.5703H46.3398C44.7221 35.1004 43.4045 32.6362 42.418 30.1973L42.2246 29.71C41.2442 27.0973 40.7501 24.6153 40.75 22.2607C40.75 20.9195 40.9382 19.6348 41.3125 18.4365L41.4844 17.9277L41.4854 17.9258C41.9101 16.7402 42.5526 15.6381 43.4287 14.6328L43.8184 14.208L43.8262 14.2002C45.1157 12.8064 46.4778 12.167 47.8789 12.167Z" fill="#96DFDE" stroke="#6FB2C9"/>
<path d="M71.3602 40.2598C71.6832 40.2598 72.039 40.334 72.452 40.5195C72.8755 40.7098 73.3319 40.9912 73.8446 41.374V41.373L80.87 46.8506L80.8749 46.8545C81.3596 47.223 81.6816 47.6394 81.8788 48.127C82.0742 48.6649 82.1864 49.1881 82.1864 49.7695C82.1864 50.3673 82.0895 50.9897 81.8944 51.5918C81.8621 51.6865 81.8319 51.7748 81.8007 51.8594L81.7001 52.1055L81.6962 52.1152C81.3951 52.8153 81.0176 53.4788 80.537 54.1074L80.3251 54.375C79.3369 55.5708 78.2622 56.4218 77.0643 56.9697H77.0546L76.9579 57.0137C75.7676 57.5453 74.4769 57.833 73.0819 57.833C71.0015 57.833 68.7573 57.2955 66.3661 56.1768C64.1126 55.1224 61.8529 53.7226 59.6053 51.9736L59.1561 51.6191C58.4577 51.0489 57.7706 50.4843 57.1093 49.8965L63.4032 42.9854C63.8678 43.3469 64.2937 43.639 64.6718 43.8564L64.6962 43.8701L64.7206 43.8809C64.7597 43.8981 64.8066 43.9212 64.8719 43.9541L65.0907 44.0625L65.1024 44.0674L65.1132 44.0723C65.3611 44.1743 65.6007 44.2031 65.8348 44.2031C66.3519 44.2031 66.7584 43.9923 67.076 43.6436L67.0751 43.6426L68.6893 41.8955L68.6913 41.8936C69.14 41.4008 69.5557 41.0306 69.9384 40.7822L70.1005 40.6836L70.1151 40.6748L70.1298 40.665C70.549 40.3849 70.9425 40.2598 71.3602 40.2598Z" fill="#96DFDE" stroke="#6FB2C9"/>
<defs>
<filter id="filter0_d_361_1726" x="22" y="0" width="75" height="77" filterUnits="userSpaceOnUse" color-interpolation-filters="sRGB">
<feFlood flood-opacity="0" result="BackgroundImageFix"/>
<feColorMatrix in="SourceAlpha" type="matrix" values="0 0 0 0 0 0 0 0 0 0 0 0 0 0 0 0 0 0 127 0" result="hardAlpha"/>
<feOffset dy="4"/>
<feGaussianBlur stdDeviation="2"/>
<feComposite in2="hardAlpha" operator="out"/>
<feColorMatrix type="matrix" values="0 0 0 0 0 0 0 0 0 0 0 0 0 0 0 0 0 0 0.25 0"/>
<feBlend mode="normal" in2="BackgroundImageFix" result="effect1_dropShadow_361_1726"/>
<feBlend mode="normal" in="SourceGraphic" in2="effect1_dropShadow_361_1726" result="shape"/>
</filter>
<filter id="filter1_d_361_1726" x="0.457031" y="79.457" width="120.801" height="29.0547" filterUnits="userSpaceOnUse" color-interpolation-filters="sRGB">
<feFlood flood-opacity="0" result="BackgroundImageFix"/>
<feColorMatrix in="SourceAlpha" type="matrix" values="0 0 0 0 0 0 0 0 0 0 0 0 0 0 0 0 0 0 127 0" result="hardAlpha"/>
<feOffset dy="4"/>
<feGaussianBlur stdDeviation="2"/>
<feComposite in2="hardAlpha" operator="out"/>
<feColorMatrix type="matrix" values="0 0 0 0 0 0 0 0 0 0 0 0 0 0 0 0 0 0 0.25 0"/>
<feBlend mode="normal" in2="BackgroundImageFix" result="effect1_dropShadow_361_1726"/>
<feBlend mode="normal" in="SourceGraphic" in2="effect1_dropShadow_361_1726" result="shape"/>
</filter>
</defs>
</svg>
