<svg width="53" height="53" viewBox="0 0 53 53" fill="none" xmlns="http://www.w3.org/2000/svg">
<path d="M26.8888 49.6596C14.0771 49.6596 3.66354 39.1383 3.66354 26.1941C3.66354 13.2498 14.0771 2.72852 26.8888 2.72852C39.7006 2.72852 50.1142 13.2498 50.1142 26.1941C50.1142 39.1383 39.7006 49.6596 26.8888 49.6596ZM26.8888 6.00278C15.8703 6.00278 6.90428 15.0616 6.90428 26.1941C6.90428 37.3266 15.8703 46.3854 26.8888 46.3854C37.9074 46.3854 46.8734 37.3266 46.8734 26.1941C46.8734 15.0616 37.9074 6.00278 26.8888 6.00278Z" fill="#308075"/>
<path d="M20.4073 47.4771H18.2468C17.361 47.4771 16.6265 46.7349 16.6265 45.8399C16.6265 44.945 17.3178 44.2246 18.2036 44.2028C14.8116 32.5028 14.8116 19.8859 18.2036 8.18589C17.3178 8.16406 16.6265 7.44372 16.6265 6.54875C16.6265 5.65379 17.361 4.91162 18.2468 4.91162H20.4073C20.9258 4.91162 21.4228 5.17356 21.7252 5.5883C22.0277 6.02487 22.1141 6.57058 21.9413 7.07264C17.8795 19.4057 17.8795 32.983 21.9413 45.3379C22.1141 45.8399 22.0277 46.3856 21.7252 46.8222C21.4228 47.2151 20.9258 47.4771 20.4073 47.4771Z" fill="#308075"/>
<path d="M33.3703 47.477C33.1975 47.477 33.0246 47.4552 32.8518 47.3897C32.0092 47.1059 31.5339 46.1673 31.8364 45.316C35.8981 32.9829 35.8981 19.4057 31.8364 7.05076C31.5555 6.19946 32.0092 5.26083 32.8518 4.97706C33.716 4.69329 34.6234 5.15169 34.9043 6.003C39.2037 19.0127 39.2037 33.3322 34.9043 46.3201C34.6882 47.0404 34.0401 47.477 33.3703 47.477Z" fill="#308075"/>
<path d="M26.8888 37.5451C20.861 37.5451 14.8549 36.6938 9.06475 34.9693C9.04314 35.8425 8.33018 36.5628 7.44438 36.5628C6.55857 36.5628 5.82401 35.8206 5.82401 34.9257V32.7428C5.82401 32.2189 6.08326 31.7169 6.49376 31.4113C6.92586 31.1057 7.46598 31.0184 7.96289 31.193C20.1697 35.2967 33.6296 35.2967 45.8364 31.193C46.3333 31.0184 46.8734 31.1057 47.3055 31.4113C47.7376 31.7169 47.9752 32.2189 47.9752 32.7428V34.9257C47.9752 35.8206 47.2407 36.5628 46.3549 36.5628C45.4691 36.5628 44.7561 35.8643 44.7345 34.9693C38.9228 36.6938 32.9166 37.5451 26.8888 37.5451Z" fill="#308075"/>
<path d="M46.3333 21.2827C46.1605 21.2827 45.9876 21.2609 45.8148 21.1954C33.608 17.0917 20.1481 17.0917 7.94133 21.1954C7.07713 21.4792 6.16972 21.0208 5.88886 20.1695C5.6296 19.2963 6.0833 18.3796 6.92589 18.0958C19.8024 13.7519 33.9753 13.7519 46.8302 18.0958C47.6728 18.3796 48.1481 19.3182 47.8456 20.1695C47.6512 20.8462 47.0031 21.2827 46.3333 21.2827Z" fill="#308075"/>
</svg>
