<svg width="70" height="61" viewBox="0 0 70 61" fill="none" xmlns="http://www.w3.org/2000/svg">
<path d="M35 57.8231C17.7042 57.8231 3.64583 45.5722 3.64583 30.5002C3.64583 15.4281 17.7042 3.17725 35 3.17725C52.2958 3.17725 66.3542 15.4281 66.3542 30.5002C66.3542 45.5722 52.2958 57.8231 35 57.8231ZM35 6.98975C20.125 6.98975 8.02083 17.5377 8.02083 30.5002C8.02083 43.4627 20.125 54.0106 35 54.0106C49.875 54.0106 61.9792 43.4627 61.9792 30.5002C61.9792 17.5377 49.875 6.98975 35 6.98975Z" fill="#0E4866"/>
<path d="M26.25 55.2812H23.3333C22.1375 55.2812 21.1458 54.4171 21.1458 53.375C21.1458 52.3329 22.0792 51.4942 23.275 51.4688C18.6958 37.8454 18.6958 23.1546 23.275 9.53125C22.0792 9.50583 21.1458 8.66708 21.1458 7.625C21.1458 6.58292 22.1375 5.71875 23.3333 5.71875H26.25C26.95 5.71875 27.6208 6.02375 28.0292 6.50667C28.4375 7.015 28.5542 7.65042 28.3208 8.235C22.8375 22.5954 22.8375 38.4046 28.3208 52.7904C28.5542 53.375 28.4375 54.0104 28.0292 54.5188C27.6208 54.9763 26.95 55.2812 26.25 55.2812Z" fill="#0E4866"/>
<path d="M43.75 55.2813C43.5167 55.2813 43.2833 55.2559 43.05 55.1797C41.9125 54.8492 41.2708 53.7563 41.6792 52.7651C47.1625 38.4047 47.1625 22.5955 41.6792 8.20965C41.3 7.2184 41.9125 6.12549 43.05 5.79507C44.2167 5.46465 45.4417 5.9984 45.8208 6.98965C51.625 22.138 51.625 38.8113 45.8208 53.9342C45.5292 54.773 44.6542 55.2813 43.75 55.2813Z" fill="#0E4866"/>
<path d="M35 43.7167C26.8625 43.7167 18.7542 42.7254 10.9375 40.7175C10.9083 41.7342 9.94583 42.5729 8.75 42.5729C7.55417 42.5729 6.5625 41.7088 6.5625 40.6667V38.125C6.5625 37.515 6.9125 36.9304 7.46667 36.5746C8.05 36.2188 8.77917 36.1171 9.45 36.3204C25.9292 41.0988 44.1 41.0988 60.5792 36.3204C61.25 36.1171 61.9792 36.2188 62.5625 36.5746C63.1458 36.9304 63.4667 37.515 63.4667 38.125V40.6667C63.4667 41.7088 62.475 42.5729 61.2792 42.5729C60.0833 42.5729 59.1208 41.7596 59.0917 40.7175C51.2458 42.7254 43.1375 43.7167 35 43.7167Z" fill="#0E4866"/>
<path d="M61.25 24.7811C61.0167 24.7811 60.7833 24.7557 60.55 24.6795C44.0708 19.9011 25.9 19.9011 9.42084 24.6795C8.25417 25.0099 7.02917 24.4761 6.65 23.4849C6.3 22.4682 6.9125 21.4007 8.05 21.0703C25.4333 16.0124 44.5667 16.0124 61.9208 21.0703C63.0583 21.4007 63.7 22.4936 63.2917 23.4849C63.0292 24.2728 62.1542 24.7811 61.25 24.7811Z" fill="#0E4866"/>
</svg>
