<svg width="75" height="119" viewBox="0 0 75 119" fill="none" xmlns="http://www.w3.org/2000/svg">
<g filter="url(#filter0_d_50_720)">
<g opacity="0.4" filter="url(#filter1_d_50_720)">
<path d="M64.8342 24.2905C61.1841 7.54094 47.1749 0 34.869 0C34.869 0 34.869 0 34.8342 0C22.5631 0 8.51904 7.50469 4.86898 24.2543C0.80178 42.9616 11.7867 58.8048 21.7288 68.7748C25.4136 72.4728 30.1413 74.3218 34.869 74.3218C39.5967 74.3218 44.3243 72.4728 47.9744 68.7748C57.9165 58.8048 68.9014 42.9979 64.8342 24.2905Z" fill="#00C385"/>
<path d="M34.834 0.5H34.8691C46.796 0.500071 60.3248 7.68878 64.1699 23.6309L64.3457 24.3975C68.2306 42.2677 58.194 57.5025 48.5518 67.4736L47.6201 68.4219L47.6182 68.4238C44.0636 72.0249 39.4649 73.8222 34.8691 73.8223C30.4173 73.8223 25.9612 72.1359 22.4229 68.7549L22.083 68.4219C12.3266 58.638 1.68548 43.2964 5.18066 25.2236L5.35742 24.3604C8.94817 7.88369 22.7512 0.500089 34.834 0.5Z" stroke="#0E4866"/>
</g>
<path d="M34.869 20.1136C40.6208 20.1136 45.3191 24.9826 45.3192 31.0335C45.3192 37.0846 40.6209 41.9544 34.869 41.9544C29.1171 41.9544 24.4188 37.0846 24.4188 31.0335C24.419 24.9826 29.1172 20.1136 34.869 20.1136Z" fill="#96DFDE" stroke="#6FBDCA"/>
<mask id="path-4-outside-1_50_720" maskUnits="userSpaceOnUse" x="7" y="86" width="49" height="17" fill="black">
<rect fill="white" x="7" y="86" width="49" height="17"/>
<path d="M21.3086 93.5742V102H18.1328V93.5508C18.1328 92.3555 17.8789 91.5156 17.3711 91.0312C16.8633 90.5391 15.9805 90.293 14.7227 90.293H8.78125V87.457H14.9219C16.4609 87.457 17.6953 87.6641 18.625 88.0781C19.5625 88.4922 20.2422 89.1484 20.6641 90.0469C21.0938 90.9375 21.3086 92.1133 21.3086 93.5742ZM12.1797 93.1641V102H9.01562V93.1641H12.1797ZM34.3516 94.0078C34.3516 92.7578 34.0664 91.8281 33.4961 91.2188C32.9258 90.6016 32.0273 90.293 30.8008 90.293H28.0938V93.4336H30.9414V96.2695H24.8945V87.457H30.8242C33.1211 87.457 34.8164 87.9922 35.9102 89.0625C37.0039 90.1328 37.5508 91.7969 37.5508 94.0547V95.0156C37.5508 99.6719 35.1562 102 30.3672 102H25.0234V99.1641H30.2969C31.6484 99.1641 32.6602 98.8164 33.332 98.1211C34.0117 97.4258 34.3516 96.3828 34.3516 94.9922V94.0078ZM48.6719 87.3867C50.6641 87.3867 52.1133 87.9727 53.0195 89.1445C53.9258 90.3086 54.3789 92.1289 54.3789 94.6055V102H46.8203V99.1641H51.1914V94.8516C51.1914 93.2031 50.9922 92.0234 50.5938 91.3125C50.2031 90.5938 49.5117 90.2344 48.5195 90.2344C47.6055 90.2344 46.8359 90.6914 46.2109 91.6055C45.5859 92.543 45.0039 94.1055 44.4648 96.293L43.0469 102H39.6719L41.2539 95.9297C41.4492 95.1953 41.6367 94.5391 41.8164 93.9609C42.0039 93.3828 42.1836 92.8867 42.3555 92.4727L39.4492 87.6211H42.9531L44.0547 89.6836C44.5234 88.9648 45.1641 88.4023 45.9766 87.9961C46.7969 87.5898 47.6953 87.3867 48.6719 87.3867Z"/>
</mask>
<path d="M21.3086 93.5742V102H18.1328V93.5508C18.1328 92.3555 17.8789 91.5156 17.3711 91.0312C16.8633 90.5391 15.9805 90.293 14.7227 90.293H8.78125V87.457H14.9219C16.4609 87.457 17.6953 87.6641 18.625 88.0781C19.5625 88.4922 20.2422 89.1484 20.6641 90.0469C21.0938 90.9375 21.3086 92.1133 21.3086 93.5742ZM12.1797 93.1641V102H9.01562V93.1641H12.1797ZM34.3516 94.0078C34.3516 92.7578 34.0664 91.8281 33.4961 91.2188C32.9258 90.6016 32.0273 90.293 30.8008 90.293H28.0938V93.4336H30.9414V96.2695H24.8945V87.457H30.8242C33.1211 87.457 34.8164 87.9922 35.9102 89.0625C37.0039 90.1328 37.5508 91.7969 37.5508 94.0547V95.0156C37.5508 99.6719 35.1562 102 30.3672 102H25.0234V99.1641H30.2969C31.6484 99.1641 32.6602 98.8164 33.332 98.1211C34.0117 97.4258 34.3516 96.3828 34.3516 94.9922V94.0078ZM48.6719 87.3867C50.6641 87.3867 52.1133 87.9727 53.0195 89.1445C53.9258 90.3086 54.3789 92.1289 54.3789 94.6055V102H46.8203V99.1641H51.1914V94.8516C51.1914 93.2031 50.9922 92.0234 50.5938 91.3125C50.2031 90.5938 49.5117 90.2344 48.5195 90.2344C47.6055 90.2344 46.8359 90.6914 46.2109 91.6055C45.5859 92.543 45.0039 94.1055 44.4648 96.293L43.0469 102H39.6719L41.2539 95.9297C41.4492 95.1953 41.6367 94.5391 41.8164 93.9609C42.0039 93.3828 42.1836 92.8867 42.3555 92.4727L39.4492 87.6211H42.9531L44.0547 89.6836C44.5234 88.9648 45.1641 88.4023 45.9766 87.9961C46.7969 87.5898 47.6953 87.3867 48.6719 87.3867Z" fill="white"/>
<path d="M21.3086 102V103H22.3086V102H21.3086ZM18.1328 102H17.1328V103H18.1328V102ZM17.3711 91.0312L16.6751 91.7493L16.6809 91.7549L17.3711 91.0312ZM8.78125 90.293H7.78125V91.293H8.78125V90.293ZM8.78125 87.457V86.457H7.78125V87.457H8.78125ZM18.625 88.0781L18.2181 88.9916L18.221 88.9929L18.625 88.0781ZM20.6641 90.0469L19.7588 90.4719L19.7634 90.4814L20.6641 90.0469ZM12.1797 93.1641H13.1797V92.1641H12.1797V93.1641ZM12.1797 102V103H13.1797V102H12.1797ZM9.01562 102H8.01562V103H9.01562V102ZM9.01562 93.1641V92.1641H8.01562V93.1641H9.01562ZM20.3086 93.5742V102H22.3086V93.5742H20.3086ZM21.3086 101H18.1328V103H21.3086V101ZM19.1328 102V93.5508H17.1328V102H19.1328ZM19.1328 93.5508C19.1328 92.2634 18.8681 91.0772 18.0613 90.3076L16.6809 91.7549C16.8897 91.9541 17.1328 92.4475 17.1328 93.5508H19.1328ZM18.0671 90.3132C17.2725 89.543 16.0554 89.293 14.7227 89.293V91.293C15.9056 91.293 16.4541 91.5351 16.6751 91.7493L18.0671 90.3132ZM14.7227 89.293H8.78125V91.293H14.7227V89.293ZM9.78125 90.293V87.457H7.78125V90.293H9.78125ZM8.78125 88.457H14.9219V86.457H8.78125V88.457ZM14.9219 88.457C16.3858 88.457 17.465 88.6562 18.2181 88.9916L19.0319 87.1646C17.9257 86.672 16.5361 86.457 14.9219 86.457V88.457ZM18.221 88.9929C18.9457 89.313 19.4431 89.7995 19.7589 90.4719L21.5692 89.6218C21.0412 88.4974 20.1793 87.6714 19.029 87.1634L18.221 88.9929ZM19.7634 90.4814C20.1041 91.1875 20.3086 92.1978 20.3086 93.5742H22.3086C22.3086 92.0288 22.0834 90.6875 21.5647 89.6123L19.7634 90.4814ZM11.1797 93.1641V102H13.1797V93.1641H11.1797ZM12.1797 101H9.01562V103H12.1797V101ZM10.0156 102V93.1641H8.01562V102H10.0156ZM9.01562 94.1641H12.1797V92.1641H9.01562V94.1641ZM33.4961 91.2188L32.7616 91.8974L32.766 91.9021L33.4961 91.2188ZM28.0938 90.293V89.293H27.0938V90.293H28.0938ZM28.0938 93.4336H27.0938V94.4336H28.0938V93.4336ZM30.9414 93.4336H31.9414V92.4336H30.9414V93.4336ZM30.9414 96.2695V97.2695H31.9414V96.2695H30.9414ZM24.8945 96.2695H23.8945V97.2695H24.8945V96.2695ZM24.8945 87.457V86.457H23.8945V87.457H24.8945ZM25.0234 102H24.0234V103H25.0234V102ZM25.0234 99.1641V98.1641H24.0234V99.1641H25.0234ZM33.332 98.1211L32.6169 97.4221L32.6129 97.4262L33.332 98.1211ZM35.3516 94.0078C35.3516 92.6277 35.0391 91.404 34.2262 90.5354L32.766 91.9021C33.0937 92.2522 33.3516 92.8879 33.3516 94.0078H35.3516ZM34.2305 90.5401C33.398 89.6391 32.1766 89.293 30.8008 89.293V91.293C31.8781 91.293 32.4536 91.564 32.7616 91.8974L34.2305 90.5401ZM30.8008 89.293H28.0938V91.293H30.8008V89.293ZM27.0938 90.293V93.4336H29.0938V90.293H27.0938ZM28.0938 94.4336H30.9414V92.4336H28.0938V94.4336ZM29.9414 93.4336V96.2695H31.9414V93.4336H29.9414ZM30.9414 95.2695H24.8945V97.2695H30.9414V95.2695ZM25.8945 96.2695V87.457H23.8945V96.2695H25.8945ZM24.8945 88.457H30.8242V86.457H24.8945V88.457ZM30.8242 88.457C32.9886 88.457 34.3793 88.9636 35.2107 89.7772L36.6096 88.3478C35.2535 87.0208 33.2536 86.457 30.8242 86.457V88.457ZM35.2107 89.7772C36.037 90.5858 36.5508 91.9382 36.5508 94.0547H38.5508C38.5508 91.6555 37.9708 89.6798 36.6096 88.3478L35.2107 89.7772ZM36.5508 94.0547V95.0156H38.5508V94.0547H36.5508ZM36.5508 95.0156C36.5508 97.1824 35.9953 98.6254 35.0578 99.5369C34.115 100.454 32.6145 101 30.3672 101V103C32.9089 103 35.0002 102.382 36.452 100.971C37.909 99.5543 38.5508 97.5051 38.5508 95.0156H36.5508ZM30.3672 101H25.0234V103H30.3672V101ZM26.0234 102V99.1641H24.0234V102H26.0234ZM25.0234 100.164H30.2969V98.1641H25.0234V100.164ZM30.2969 100.164C31.8095 100.164 33.126 99.7734 34.0512 98.816L32.6129 97.4262C32.1943 97.8594 31.4874 98.1641 30.2969 98.1641V100.164ZM34.0471 98.8201C34.9755 97.8704 35.3516 96.5313 35.3516 94.9922H33.3516C33.3516 96.2343 33.048 96.9811 32.6169 97.4221L34.0471 98.8201ZM35.3516 94.9922V94.0078H33.3516V94.9922H35.3516ZM53.0195 89.1445L52.2285 89.7563L52.2305 89.7588L53.0195 89.1445ZM54.3789 102V103H55.3789V102H54.3789ZM46.8203 102H45.8203V103H46.8203V102ZM46.8203 99.1641V98.1641H45.8203V99.1641H46.8203ZM51.1914 99.1641V100.164H52.1914V99.1641H51.1914ZM50.5938 91.3125L49.715 91.7901L49.7214 91.8014L50.5938 91.3125ZM46.2109 91.6055L45.3854 91.041L45.3789 91.0508L46.2109 91.6055ZM44.4648 96.293L45.4353 96.5341L45.4358 96.5322L44.4648 96.293ZM43.0469 102V103H43.8288L44.0174 102.241L43.0469 102ZM39.6719 102L38.7042 101.748L38.3779 103H39.6719V102ZM41.2539 95.9297L40.2875 95.6727L40.2862 95.6775L41.2539 95.9297ZM41.8164 93.9609L40.8651 93.6524L40.8615 93.6641L41.8164 93.9609ZM42.3555 92.4727L43.2791 92.856L43.4722 92.3908L43.2133 91.9588L42.3555 92.4727ZM39.4492 87.6211V86.6211H37.6845L38.5914 88.135L39.4492 87.6211ZM42.9531 87.6211L43.8352 87.15L43.5527 86.6211H42.9531V87.6211ZM44.0547 89.6836L43.1726 90.1547L43.9689 91.6457L44.8923 90.2299L44.0547 89.6836ZM45.9766 87.9961L45.5328 87.1L45.5294 87.1017L45.9766 87.9961ZM48.6719 88.3867C50.4693 88.3867 51.5722 88.9077 52.2285 89.7563L53.8106 88.5328C52.6544 87.0377 50.8589 86.3867 48.6719 86.3867V88.3867ZM52.2305 89.7588C52.9344 90.6631 53.3789 92.2138 53.3789 94.6055H55.3789C55.3789 92.044 54.9171 89.9541 53.8086 88.5302L52.2305 89.7588ZM53.3789 94.6055V102H55.3789V94.6055H53.3789ZM54.3789 101H46.8203V103H54.3789V101ZM47.8203 102V99.1641H45.8203V102H47.8203ZM46.8203 100.164H51.1914V98.1641H46.8203V100.164ZM52.1914 99.1641V94.8516H50.1914V99.1641H52.1914ZM52.1914 94.8516C52.1914 93.1737 51.9975 91.7718 51.4661 90.8236L49.7214 91.8014C49.9869 92.2751 50.1914 93.2326 50.1914 94.8516H52.1914ZM51.4724 90.835C50.8665 89.7201 49.7854 89.2344 48.5195 89.2344V91.2344C49.2381 91.2344 49.5398 91.4674 49.7151 91.79L51.4724 90.835ZM48.5195 89.2344C47.2029 89.2344 46.1519 89.9201 45.3855 91.041L47.0364 92.1699C47.52 91.4627 48.008 91.2344 48.5195 91.2344V89.2344ZM45.3789 91.0508C44.6533 92.1392 44.0387 93.843 43.4939 96.0537L45.4358 96.5322C45.9692 94.3679 46.5186 92.9467 47.043 92.1602L45.3789 91.0508ZM43.4944 96.0518L42.0764 101.759L44.0174 102.241L45.4353 96.5341L43.4944 96.0518ZM43.0469 101H39.6719V103H43.0469V101ZM40.6396 102.252L42.2216 96.1819L40.2862 95.6775L38.7042 101.748L40.6396 102.252ZM42.2203 96.1867C42.4129 95.4625 42.5966 94.8199 42.7713 94.2577L40.8615 93.6641C40.6768 94.2583 40.4855 94.9281 40.2875 95.6727L42.2203 96.1867ZM42.7676 94.2694C42.9496 93.7084 43.1202 93.2386 43.2791 92.856L41.4319 92.0893C41.2469 92.5348 41.0582 93.0572 40.8652 93.6524L42.7676 94.2694ZM43.2133 91.9588L40.3071 87.1072L38.5914 88.135L41.4976 92.9865L43.2133 91.9588ZM39.4492 88.6211H42.9531V86.6211H39.4492V88.6211ZM42.071 88.0922L43.1726 90.1547L44.9368 89.2125L43.8352 87.15L42.071 88.0922ZM44.8923 90.2299C45.2584 89.6685 45.7603 89.2222 46.4238 88.8905L45.5294 87.1017C44.5678 87.5824 43.7885 88.2611 43.2171 89.1373L44.8923 90.2299ZM46.4204 88.8922C47.0936 88.5588 47.8387 88.3867 48.6719 88.3867V86.3867C47.5519 86.3867 46.5002 86.6209 45.5328 87.1L46.4204 88.8922Z" fill="#0E4866" mask="url(#path-4-outside-1_50_720)"/>
</g>
<defs>
<filter id="filter0_d_50_720" x="0" y="0" width="69.7032" height="111" filterUnits="userSpaceOnUse" color-interpolation-filters="sRGB">
<feFlood flood-opacity="0" result="BackgroundImageFix"/>
<feColorMatrix in="SourceAlpha" type="matrix" values="0 0 0 0 0 0 0 0 0 0 0 0 0 0 0 0 0 0 127 0" result="hardAlpha"/>
<feOffset dy="4"/>
<feGaussianBlur stdDeviation="2"/>
<feComposite in2="hardAlpha" operator="out"/>
<feColorMatrix type="matrix" values="0 0 0 0 0 0 0 0 0 0 0 0 0 0 0 0 0 0 0.25 0"/>
<feBlend mode="normal" in2="BackgroundImageFix" result="effect1_dropShadow_50_720"/>
<feBlend mode="normal" in="SourceGraphic" in2="effect1_dropShadow_50_720" result="shape"/>
</filter>
<filter id="filter1_d_50_720" x="0" y="0" width="69.7032" height="82.3218" filterUnits="userSpaceOnUse" color-interpolation-filters="sRGB">
<feFlood flood-opacity="0" result="BackgroundImageFix"/>
<feColorMatrix in="SourceAlpha" type="matrix" values="0 0 0 0 0 0 0 0 0 0 0 0 0 0 0 0 0 0 127 0" result="hardAlpha"/>
<feOffset dy="4"/>
<feGaussianBlur stdDeviation="2"/>
<feComposite in2="hardAlpha" operator="out"/>
<feColorMatrix type="matrix" values="0 0 0 0 0 0 0 0 0 0 0 0 0 0 0 0 0 0 0.25 0"/>
<feBlend mode="normal" in2="BackgroundImageFix" result="effect1_dropShadow_50_720"/>
<feBlend mode="normal" in="SourceGraphic" in2="effect1_dropShadow_50_720" result="shape"/>
</filter>
</defs>
</svg>
