<svg width="28" height="30" viewBox="0 0 28 30" fill="none" xmlns="http://www.w3.org/2000/svg">
<path d="M7 12.5V10C7 5.8625 8.16667 2.5 14 2.5C19.8333 2.5 21 5.8625 21 10V12.5" stroke="#292D32" stroke-width="1.5" stroke-linecap="round" stroke-linejoin="round"/>
<path d="M14 23.125C15.6109 23.125 16.9167 21.7259 16.9167 20C16.9167 18.2741 15.6109 16.875 14 16.875C12.3892 16.875 11.0834 18.2741 11.0834 20C11.0834 21.7259 12.3892 23.125 14 23.125Z" stroke="#292D32" stroke-width="1.5" stroke-linecap="round" stroke-linejoin="round"/>
<path d="M19.8334 27.5H8.16671C3.50004 27.5 2.33337 26.25 2.33337 21.25V18.75C2.33337 13.75 3.50004 12.5 8.16671 12.5H19.8334C24.5 12.5 25.6667 13.75 25.6667 18.75V21.25C25.6667 26.25 24.5 27.5 19.8334 27.5Z" stroke="#292D32" stroke-width="1.5" stroke-linecap="round" stroke-linejoin="round"/>
</svg>
