<svg width="122" height="135" viewBox="0 0 122 135" fill="none" xmlns="http://www.w3.org/2000/svg">
<g filter="url(#filter0_d_358_1703)">
<path d="M48.7633 8.39209C48.7633 7.03943 50.4043 6.36803 51.358 7.34717C53.6393 9.69014 56.7687 12.9272 59.8824 16.1528L68.3151 24.8892L68.317 24.8901C69.2328 25.8307 68.554 27.4299 67.2262 27.4302C64.6124 27.4302 61.671 27.4298 59.1295 27.4165L56.7477 27.3979H56.7428C52.3627 27.3979 48.7636 23.7902 48.7633 19.4438V8.39209Z" fill="#56CEBE" stroke="#8BBBC0"/>
<path d="M27.8822 6.8335H40.9554C42.3626 6.8335 43.5394 8.02231 43.5394 9.50049V18.6519C43.5394 26.4202 49.7013 32.7679 57.2972 32.7681H66.2084C67.6155 32.7681 68.7913 33.9569 68.7914 35.4351V52.0288C68.7913 57.5627 66.9152 61.8363 63.9183 64.7271C60.9176 67.6214 56.7549 69.1665 52.1176 69.1665H27.8822C23.2449 69.1664 19.082 67.6214 16.0814 64.7271C13.0845 61.8363 11.2084 57.5627 11.2084 52.0288V23.9722C11.2084 18.4381 13.0845 14.1638 16.0814 11.2729C18.9884 8.46897 22.9864 6.93167 27.4496 6.83838L27.8822 6.8335ZM26.1254 50.9585C24.5726 50.9585 23.3129 52.2717 23.3129 53.8335C23.3129 55.3953 24.5726 56.7085 26.1254 56.7085H38.4584C40.0112 56.7085 41.2709 55.3953 41.2709 53.8335C41.2709 52.2717 40.0112 50.9585 38.4584 50.9585H26.1254ZM26.1254 38.2915C24.5727 38.2915 23.313 39.6048 23.3129 41.1665C23.3129 42.7283 24.5726 44.0415 26.1254 44.0415H44.6254C46.178 44.0413 47.4379 42.7282 47.4379 41.1665C47.4377 39.6049 46.1779 38.2917 44.6254 38.2915H26.1254Z" fill="#56CEBE" stroke="#8BBBC0"/>
</g>
<g filter="url(#filter1_d_358_1703)">
<mask id="path-3-outside-1_358_1703" maskUnits="userSpaceOnUse" x="4" y="77" width="76" height="50" fill="black">
<rect fill="white" x="4" y="77" width="76" height="50"/>
<path d="M10.7773 95.6797C10.4648 96.4844 9.98438 97.0742 9.33594 97.4492C8.6875 97.8164 7.74609 98 6.51172 98H5.71484V95.1641H5.91406C6.45312 95.1641 6.88281 95.0625 7.20312 94.8594C7.51562 94.6562 7.73828 94.3477 7.87109 93.9336C8.00391 93.5117 8.07031 92.875 8.07031 92.0234V86.293H5.84375V83.457H14C16.25 83.457 17.8633 83.9336 18.8398 84.8867C19.8242 85.832 20.3164 87.4023 20.3164 89.5977V98H17.1406V89.6445C17.1406 88.3945 16.8867 87.5234 16.3789 87.0312C15.8711 86.5391 15.0156 86.293 13.8125 86.293H11.2344V92.4336C11.2344 93.7852 11.082 94.8672 10.7773 95.6797ZM27.4297 83.457V98H24.2656V83.457H27.4297ZM31.7305 95.293C33.6367 94.668 35.1758 93.8789 36.3477 92.9258C37.1602 92.2773 37.7812 91.5703 38.2109 90.8047C38.6406 90.0312 38.8555 89.2227 38.8555 88.3789C38.8555 86.9883 37.9844 86.293 36.2422 86.293H30.2891V78.4883H33.5234V83.457H36.7695C40.2852 83.457 42.043 84.9922 42.043 88.0625C42.043 89.5312 41.6953 90.9062 41 92.1875C40.3125 93.4609 39.3281 94.5977 38.0469 95.5977C36.3594 96.9102 34.2539 97.9414 31.7305 98.6914V95.293ZM47.4922 93.7578L46.7656 98H43.4844L44.4688 93.1484C44.75 91.8047 45.0078 90.8477 45.2422 90.2773C45.4766 89.6992 45.7656 89.2422 46.1094 88.9062C46.4609 88.5625 46.9453 88.2578 47.5625 87.9922L44.1758 83.457H48.0195L52.7656 90.0312C53.2578 89.5859 53.6328 89.0625 53.8906 88.4609C54.1484 87.8594 54.332 87.0469 54.4414 86.0234L54.6875 83.457H57.9219L57.6406 86.2344C57.5547 87.0234 57.3984 87.7227 57.1719 88.332C57.0156 88.7461 56.8242 89.1367 56.5977 89.5039C56.3711 89.8633 56.0742 90.2461 55.707 90.6523C55.3477 91.0508 54.8711 91.5156 54.2773 92.0469L58.6484 98H54.8281L48.9805 89.8906C48.5664 90.1328 48.2695 90.4844 48.0898 90.9453C48.0039 91.1797 47.9102 91.5312 47.8086 92C47.707 92.4688 47.6016 93.0547 47.4922 93.7578ZM73.918 96.5586C73.2773 96.918 72.4883 97.2148 71.5508 97.4492C70.6211 97.6758 69.4609 97.8438 68.0703 97.9531C66.6875 98.0625 64.9961 98.1172 62.9961 98.1172L60.2539 83.457H63.5703L64.8477 90.4648L65.7031 90.3008C66.2344 90.1992 66.625 90.0273 66.875 89.7852C67.1328 89.5352 67.3281 89.1641 67.4609 88.6719C67.5234 88.4297 67.582 88.0938 67.6367 87.6641C67.6992 87.2266 67.7578 86.6953 67.8125 86.0703L67.9883 83.457H71.2227L70.8711 87.4648C70.8242 88.0117 70.7578 88.5039 70.6719 88.9414C70.5859 89.3789 70.4766 89.7578 70.3438 90.0781C70.0859 90.7188 69.7227 91.2188 69.2539 91.5781C68.793 91.9375 68.0586 92.2383 67.0508 92.4805L65.293 92.8906L65.7734 95.293H66.0547C67.0312 95.293 67.8945 95.2539 68.6445 95.1758C69.4023 95.0898 70.0469 94.9609 70.5781 94.7891C71.2891 94.5703 71.875 94.2656 72.3359 93.875C72.7969 93.4766 73.1602 92.9492 73.4258 92.293C73.6914 91.6289 73.8789 90.7891 73.9883 89.7734L74.7266 83.457H77.9961L77.2461 89.6914C77.0898 91.0352 76.8711 92.1484 76.5898 93.0312C76.3164 93.9141 75.9609 94.6328 75.5234 95.1875C75.0938 95.7344 74.5586 96.1914 73.918 96.5586ZM10.7773 123.68C10.4648 124.484 9.98438 125.074 9.33594 125.449C8.6875 125.816 7.74609 126 6.51172 126H5.71484V123.164H5.91406C6.45312 123.164 6.88281 123.062 7.20312 122.859C7.51562 122.656 7.73828 122.348 7.87109 121.934C8.00391 121.512 8.07031 120.875 8.07031 120.023V114.293H5.84375V111.457H14C16.25 111.457 17.8633 111.934 18.8398 112.887C19.8242 113.832 20.3164 115.402 20.3164 117.598V126H17.1406V117.645C17.1406 116.395 16.8867 115.523 16.3789 115.031C15.8711 114.539 15.0156 114.293 13.8125 114.293H11.2344V120.434C11.2344 121.785 11.082 122.867 10.7773 123.68ZM27.4297 111.457V126H24.2656V111.457H27.4297ZM42.8164 123.961V126H30.5234V123.164H38.3984L29.5859 111.457H33.3828L37.8242 117.48C38.3398 117.23 38.7109 116.855 38.9375 116.355C39.1719 115.855 39.3359 115.125 39.4297 114.164L39.6875 111.457H42.9336L42.6875 114.188C42.5859 115.266 42.4141 116.109 42.1719 116.719C41.9297 117.312 41.582 117.816 41.1289 118.23C40.6758 118.645 40.0547 119.012 39.2656 119.332L42.8164 123.961ZM49.2969 111.457V126H46.1328V111.457H49.2969ZM62.4688 118.008C62.4688 116.758 62.1836 115.828 61.6133 115.219C61.043 114.602 60.1445 114.293 58.918 114.293H56.2109V117.434H59.0586V120.27H53.0117V111.457H58.9414C61.2383 111.457 62.9336 111.992 64.0273 113.062C65.1211 114.133 65.668 115.797 65.668 118.055V119.016C65.668 123.672 63.2734 126 58.4844 126H53.1406V123.164H58.4141C59.7656 123.164 60.7773 122.816 61.4492 122.121C62.1289 121.426 62.4688 120.383 62.4688 118.992V118.008ZM75.418 117.188V126H67.8359V123.164H72.2539V117.797C72.2539 116.742 72.1836 115.988 72.043 115.535C71.9023 115.09 71.668 114.773 71.3398 114.586C71.0117 114.391 70.5312 114.293 69.8984 114.293H68.5039V111.457H70.4961C71.8398 111.457 72.8438 111.637 73.5078 111.996C74.1719 112.355 74.6562 112.945 74.9609 113.766C75.2656 114.586 75.418 115.727 75.418 117.188Z"/>
</mask>
<path d="M10.7773 95.6797C10.4648 96.4844 9.98438 97.0742 9.33594 97.4492C8.6875 97.8164 7.74609 98 6.51172 98H5.71484V95.1641H5.91406C6.45312 95.1641 6.88281 95.0625 7.20312 94.8594C7.51562 94.6562 7.73828 94.3477 7.87109 93.9336C8.00391 93.5117 8.07031 92.875 8.07031 92.0234V86.293H5.84375V83.457H14C16.25 83.457 17.8633 83.9336 18.8398 84.8867C19.8242 85.832 20.3164 87.4023 20.3164 89.5977V98H17.1406V89.6445C17.1406 88.3945 16.8867 87.5234 16.3789 87.0312C15.8711 86.5391 15.0156 86.293 13.8125 86.293H11.2344V92.4336C11.2344 93.7852 11.082 94.8672 10.7773 95.6797ZM27.4297 83.457V98H24.2656V83.457H27.4297ZM31.7305 95.293C33.6367 94.668 35.1758 93.8789 36.3477 92.9258C37.1602 92.2773 37.7812 91.5703 38.2109 90.8047C38.6406 90.0312 38.8555 89.2227 38.8555 88.3789C38.8555 86.9883 37.9844 86.293 36.2422 86.293H30.2891V78.4883H33.5234V83.457H36.7695C40.2852 83.457 42.043 84.9922 42.043 88.0625C42.043 89.5312 41.6953 90.9062 41 92.1875C40.3125 93.4609 39.3281 94.5977 38.0469 95.5977C36.3594 96.9102 34.2539 97.9414 31.7305 98.6914V95.293ZM47.4922 93.7578L46.7656 98H43.4844L44.4688 93.1484C44.75 91.8047 45.0078 90.8477 45.2422 90.2773C45.4766 89.6992 45.7656 89.2422 46.1094 88.9062C46.4609 88.5625 46.9453 88.2578 47.5625 87.9922L44.1758 83.457H48.0195L52.7656 90.0312C53.2578 89.5859 53.6328 89.0625 53.8906 88.4609C54.1484 87.8594 54.332 87.0469 54.4414 86.0234L54.6875 83.457H57.9219L57.6406 86.2344C57.5547 87.0234 57.3984 87.7227 57.1719 88.332C57.0156 88.7461 56.8242 89.1367 56.5977 89.5039C56.3711 89.8633 56.0742 90.2461 55.707 90.6523C55.3477 91.0508 54.8711 91.5156 54.2773 92.0469L58.6484 98H54.8281L48.9805 89.8906C48.5664 90.1328 48.2695 90.4844 48.0898 90.9453C48.0039 91.1797 47.9102 91.5312 47.8086 92C47.707 92.4688 47.6016 93.0547 47.4922 93.7578ZM73.918 96.5586C73.2773 96.918 72.4883 97.2148 71.5508 97.4492C70.6211 97.6758 69.4609 97.8438 68.0703 97.9531C66.6875 98.0625 64.9961 98.1172 62.9961 98.1172L60.2539 83.457H63.5703L64.8477 90.4648L65.7031 90.3008C66.2344 90.1992 66.625 90.0273 66.875 89.7852C67.1328 89.5352 67.3281 89.1641 67.4609 88.6719C67.5234 88.4297 67.582 88.0938 67.6367 87.6641C67.6992 87.2266 67.7578 86.6953 67.8125 86.0703L67.9883 83.457H71.2227L70.8711 87.4648C70.8242 88.0117 70.7578 88.5039 70.6719 88.9414C70.5859 89.3789 70.4766 89.7578 70.3438 90.0781C70.0859 90.7188 69.7227 91.2188 69.2539 91.5781C68.793 91.9375 68.0586 92.2383 67.0508 92.4805L65.293 92.8906L65.7734 95.293H66.0547C67.0312 95.293 67.8945 95.2539 68.6445 95.1758C69.4023 95.0898 70.0469 94.9609 70.5781 94.7891C71.2891 94.5703 71.875 94.2656 72.3359 93.875C72.7969 93.4766 73.1602 92.9492 73.4258 92.293C73.6914 91.6289 73.8789 90.7891 73.9883 89.7734L74.7266 83.457H77.9961L77.2461 89.6914C77.0898 91.0352 76.8711 92.1484 76.5898 93.0312C76.3164 93.9141 75.9609 94.6328 75.5234 95.1875C75.0938 95.7344 74.5586 96.1914 73.918 96.5586ZM10.7773 123.68C10.4648 124.484 9.98438 125.074 9.33594 125.449C8.6875 125.816 7.74609 126 6.51172 126H5.71484V123.164H5.91406C6.45312 123.164 6.88281 123.062 7.20312 122.859C7.51562 122.656 7.73828 122.348 7.87109 121.934C8.00391 121.512 8.07031 120.875 8.07031 120.023V114.293H5.84375V111.457H14C16.25 111.457 17.8633 111.934 18.8398 112.887C19.8242 113.832 20.3164 115.402 20.3164 117.598V126H17.1406V117.645C17.1406 116.395 16.8867 115.523 16.3789 115.031C15.8711 114.539 15.0156 114.293 13.8125 114.293H11.2344V120.434C11.2344 121.785 11.082 122.867 10.7773 123.68ZM27.4297 111.457V126H24.2656V111.457H27.4297ZM42.8164 123.961V126H30.5234V123.164H38.3984L29.5859 111.457H33.3828L37.8242 117.48C38.3398 117.23 38.7109 116.855 38.9375 116.355C39.1719 115.855 39.3359 115.125 39.4297 114.164L39.6875 111.457H42.9336L42.6875 114.188C42.5859 115.266 42.4141 116.109 42.1719 116.719C41.9297 117.312 41.582 117.816 41.1289 118.23C40.6758 118.645 40.0547 119.012 39.2656 119.332L42.8164 123.961ZM49.2969 111.457V126H46.1328V111.457H49.2969ZM62.4688 118.008C62.4688 116.758 62.1836 115.828 61.6133 115.219C61.043 114.602 60.1445 114.293 58.918 114.293H56.2109V117.434H59.0586V120.27H53.0117V111.457H58.9414C61.2383 111.457 62.9336 111.992 64.0273 113.062C65.1211 114.133 65.668 115.797 65.668 118.055V119.016C65.668 123.672 63.2734 126 58.4844 126H53.1406V123.164H58.4141C59.7656 123.164 60.7773 122.816 61.4492 122.121C62.1289 121.426 62.4688 120.383 62.4688 118.992V118.008ZM75.418 117.188V126H67.8359V123.164H72.2539V117.797C72.2539 116.742 72.1836 115.988 72.043 115.535C71.9023 115.09 71.668 114.773 71.3398 114.586C71.0117 114.391 70.5312 114.293 69.8984 114.293H68.5039V111.457H70.4961C71.8398 111.457 72.8438 111.637 73.5078 111.996C74.1719 112.355 74.6562 112.945 74.9609 113.766C75.2656 114.586 75.418 115.727 75.418 117.188Z" fill="white"/>
<path d="M10.7773 95.6797L11.7096 96.0417L11.7137 96.0308L10.7773 95.6797ZM9.33594 97.4492L9.82871 98.3194L9.83656 98.3149L9.33594 97.4492ZM5.71484 98H4.71484V99H5.71484V98ZM5.71484 95.1641V94.1641H4.71484V95.1641H5.71484ZM7.20312 94.8594L7.7387 95.7039L7.74811 95.6978L7.20312 94.8594ZM7.87109 93.9336L8.82332 94.239L8.82494 94.2339L7.87109 93.9336ZM8.07031 86.293H9.07031V85.293H8.07031V86.293ZM5.84375 86.293H4.84375V87.293H5.84375V86.293ZM5.84375 83.457V82.457H4.84375V83.457H5.84375ZM18.8398 84.8867L18.1414 85.6024L18.1472 85.608L18.8398 84.8867ZM20.3164 98V99H21.3164V98H20.3164ZM17.1406 98H16.1406V99H17.1406V98ZM11.2344 86.293V85.293H10.2344V86.293H11.2344ZM10.7773 95.6797L9.84517 95.3177C9.60185 95.9442 9.25743 96.3394 8.83531 96.5836L9.33594 97.4492L9.83656 98.3149C10.7113 97.809 11.3278 97.0245 11.7095 96.0417L10.7773 95.6797ZM9.33594 97.4492L8.84319 96.579C8.41337 96.8224 7.67403 97 6.51172 97V98V99C7.81815 99 8.96163 98.8104 9.82869 98.3194L9.33594 97.4492ZM6.51172 98V97H5.71484V98V99H6.51172V98ZM5.71484 98H6.71484V95.1641H5.71484H4.71484V98H5.71484ZM5.71484 95.1641V96.1641H5.91406V95.1641V94.1641H5.71484V95.1641ZM5.91406 95.1641V96.1641C6.56664 96.1641 7.20419 96.0428 7.73867 95.7039L7.20312 94.8594L6.66758 94.0149C6.56144 94.0822 6.33961 94.1641 5.91406 94.1641V95.1641ZM7.20312 94.8594L7.74811 95.6978C8.28491 95.3489 8.63246 94.834 8.82331 94.239L7.87109 93.9336L6.91888 93.6282C6.8441 93.8613 6.74634 93.9636 6.65814 94.0209L7.20312 94.8594ZM7.87109 93.9336L8.82494 94.2339C9.0049 93.6622 9.07031 92.901 9.07031 92.0234H8.07031H7.07031C7.07031 92.849 7.00291 93.3612 6.91724 93.6333L7.87109 93.9336ZM8.07031 92.0234H9.07031V86.293H8.07031H7.07031V92.0234H8.07031ZM8.07031 86.293V85.293H5.84375V86.293V87.293H8.07031V86.293ZM5.84375 86.293H6.84375V83.457H5.84375H4.84375V86.293H5.84375ZM5.84375 83.457V84.457H14V83.457V82.457H5.84375V83.457ZM14 83.457V84.457C16.1493 84.457 17.4413 84.9191 18.1414 85.6024L18.8398 84.8867L19.5383 84.1711C18.2852 82.9481 16.3507 82.457 14 82.457V83.457ZM18.8398 84.8867L18.1472 85.608C18.8438 86.277 19.3164 87.5145 19.3164 89.5977H20.3164H21.3164C21.3164 87.2902 20.8046 85.3871 19.5325 84.1654L18.8398 84.8867ZM20.3164 89.5977H19.3164V98H20.3164H21.3164V89.5977H20.3164ZM20.3164 98V97H17.1406V98V99H20.3164V98ZM17.1406 98H18.1406V89.6445H17.1406H16.1406V98H17.1406ZM17.1406 89.6445H18.1406C18.1406 88.3161 17.8815 87.095 17.0749 86.3132L16.3789 87.0312L15.6829 87.7493C15.8919 87.9519 16.1406 88.473 16.1406 89.6445H17.1406ZM16.3789 87.0312L17.0749 86.3132C16.2865 85.549 15.1055 85.293 13.8125 85.293V86.293V87.293C14.9258 87.293 15.4557 87.5291 15.6829 87.7493L16.3789 87.0312ZM13.8125 86.293V85.293H11.2344V86.293V87.293H13.8125V86.293ZM11.2344 86.293H10.2344V92.4336H11.2344H12.2344V86.293H11.2344ZM11.2344 92.4336H10.2344C10.2344 93.7246 10.0869 94.673 9.84101 95.3286L10.7773 95.6797L11.7137 96.0308C12.0772 95.0614 12.2344 93.8457 12.2344 92.4336H11.2344ZM27.4297 83.457H28.4297V82.457H27.4297V83.457ZM27.4297 98V99H28.4297V98H27.4297ZM24.2656 98H23.2656V99H24.2656V98ZM24.2656 83.457V82.457H23.2656V83.457H24.2656ZM27.4297 83.457H26.4297V98H27.4297H28.4297V83.457H27.4297ZM27.4297 98V97H24.2656V98V99H27.4297V98ZM24.2656 98H25.2656V83.457H24.2656H23.2656V98H24.2656ZM24.2656 83.457V84.457H27.4297V83.457V82.457H24.2656V83.457ZM31.7305 95.293L31.4189 94.3427L30.7305 94.5685V95.293H31.7305ZM36.3477 92.9258L35.7239 92.1441L35.7167 92.15L36.3477 92.9258ZM38.2109 90.8047L39.083 91.2941L39.0851 91.2903L38.2109 90.8047ZM30.2891 86.293H29.2891V87.293H30.2891V86.293ZM30.2891 78.4883V77.4883H29.2891V78.4883H30.2891ZM33.5234 78.4883H34.5234V77.4883H33.5234V78.4883ZM33.5234 83.457H32.5234V84.457H33.5234V83.457ZM41 92.1875L40.1211 91.7105L40.12 91.7124L41 92.1875ZM38.0469 95.5977L38.6608 96.387L38.6621 96.386L38.0469 95.5977ZM31.7305 98.6914H30.7305V100.032L32.0154 99.65L31.7305 98.6914ZM31.7305 95.293L32.042 96.2432C34.0286 95.5919 35.6864 94.7526 36.9786 93.7016L36.3477 92.9258L35.7167 92.15C34.6652 93.0052 33.2449 93.7441 31.4189 94.3427L31.7305 95.293ZM36.3477 92.9258L36.9714 93.7074C37.8666 92.993 38.5797 92.1909 39.083 91.2941L38.2109 90.8047L37.3389 90.3153C36.9828 90.9497 36.4538 91.5617 35.7239 92.1442L36.3477 92.9258ZM38.2109 90.8047L39.0851 91.2903C39.5932 90.3758 39.8555 89.401 39.8555 88.3789H38.8555H37.8555C37.8555 89.0443 37.6881 89.6867 37.3368 90.319L38.2109 90.8047ZM38.8555 88.3789H39.8555C39.8555 87.4621 39.5571 86.6165 38.826 86.0329C38.1379 85.4836 37.2197 85.293 36.2422 85.293V86.293V87.293C37.0068 87.293 37.3953 87.45 37.5783 87.596C37.7183 87.7077 37.8555 87.9051 37.8555 88.3789H38.8555ZM36.2422 86.293V85.293H30.2891V86.293V87.293H36.2422V86.293ZM30.2891 86.293H31.2891V78.4883H30.2891H29.2891V86.293H30.2891ZM30.2891 78.4883V79.4883H33.5234V78.4883V77.4883H30.2891V78.4883ZM33.5234 78.4883H32.5234V83.457H33.5234H34.5234V78.4883H33.5234ZM33.5234 83.457V84.457H36.7695V83.457V82.457H33.5234V83.457ZM36.7695 83.457V84.457C38.4039 84.457 39.443 84.8168 40.0668 85.3616C40.6647 85.8838 41.043 86.7194 41.043 88.0625H42.043H43.043C43.043 86.3353 42.5423 84.8682 41.3824 83.8552C40.2484 82.8648 38.6507 82.457 36.7695 82.457V83.457ZM42.043 88.0625H41.043C41.043 89.366 40.7363 90.5769 40.1211 91.7105L41 92.1875L41.8789 92.6645C42.6543 91.2356 43.043 89.6965 43.043 88.0625H42.043ZM41 92.1875L40.12 91.7124C39.5058 92.8502 38.6174 93.8839 37.4316 94.8093L38.0469 95.5977L38.6621 96.386C40.0389 95.3114 41.1192 94.0717 41.88 92.6626L41 92.1875ZM38.0469 95.5977L37.4329 94.8083C35.8635 96.029 33.8765 97.0104 31.4456 97.7328L31.7305 98.6914L32.0154 99.65C34.6314 98.8725 36.8553 97.7913 38.6608 96.387L38.0469 95.5977ZM31.7305 98.6914H32.7305V95.293H31.7305H30.7305V98.6914H31.7305ZM47.4922 93.7578L48.4778 93.9266L48.4791 93.9191L48.4803 93.9115L47.4922 93.7578ZM46.7656 98V99H47.6089L47.7513 98.1688L46.7656 98ZM43.4844 98L42.5043 97.8012L42.2611 99H43.4844V98ZM44.4688 93.1484L43.4899 92.9436L43.4887 92.9496L44.4688 93.1484ZM45.2422 90.2773L46.1671 90.6575L46.1689 90.653L45.2422 90.2773ZM46.1094 88.9062L46.8083 89.6214L46.8085 89.6213L46.1094 88.9062ZM47.5625 87.9922L47.9578 88.9107L49.1223 88.4096L48.3637 87.3938L47.5625 87.9922ZM44.1758 83.457V82.457H42.1809L43.3745 84.0554L44.1758 83.457ZM48.0195 83.457L48.8303 82.8717L48.531 82.457H48.0195V83.457ZM52.7656 90.0312L51.9548 90.6166L52.6085 91.522L53.4365 90.7728L52.7656 90.0312ZM54.4414 86.0234L55.4358 86.1297L55.4368 86.1189L54.4414 86.0234ZM54.6875 83.457V82.457H53.7788L53.6921 83.3616L54.6875 83.457ZM57.9219 83.457L58.9168 83.5578L59.0283 82.457H57.9219V83.457ZM57.6406 86.2344L58.6348 86.3426L58.6355 86.3351L57.6406 86.2344ZM57.1719 88.332L58.1075 88.6851L58.1092 88.6805L57.1719 88.332ZM56.5977 89.5039L57.4436 90.0372L57.4487 90.029L56.5977 89.5039ZM55.707 90.6523L54.9652 89.9818L54.9645 89.9826L55.707 90.6523ZM54.2773 92.0469L53.6105 91.3016L52.934 91.907L53.4713 92.6387L54.2773 92.0469ZM58.6484 98V99H60.6233L59.4545 97.4082L58.6484 98ZM54.8281 98L54.017 98.5849L54.3163 99H54.8281V98ZM48.9805 89.8906L49.7916 89.3057L49.26 88.5686L48.4756 89.0274L48.9805 89.8906ZM48.0898 90.9453L47.1581 90.5821L47.1545 90.5915L47.151 90.6011L48.0898 90.9453ZM47.4922 93.7578L46.5065 93.589L45.78 97.8312L46.7656 98L47.7513 98.1688L48.4778 93.9266L47.4922 93.7578ZM46.7656 98V97H43.4844V98V99H46.7656V98ZM43.4844 98L44.4644 98.1988L45.4488 93.3473L44.4688 93.1484L43.4887 92.9496L42.5043 97.8012L43.4844 98ZM44.4688 93.1484L45.4475 93.3533C45.7277 92.0149 45.9704 91.136 46.1671 90.6575L45.2422 90.2773L44.3172 89.8972C44.0452 90.5593 43.7723 91.5944 43.49 92.9436L44.4688 93.1484ZM45.2422 90.2773L46.1689 90.653C46.3663 90.1662 46.5877 89.837 46.8083 89.6214L46.1094 88.9062L45.4104 88.1911C44.9435 88.6474 44.5868 89.2322 44.3154 89.9016L45.2422 90.2773ZM46.1094 88.9062L46.8085 89.6213C47.0464 89.3886 47.4149 89.1444 47.9578 88.9107L47.5625 87.9922L47.1672 87.0736C46.4757 87.3712 45.8755 87.7364 45.4103 88.1912L46.1094 88.9062ZM47.5625 87.9922L48.3637 87.3938L44.977 82.8587L44.1758 83.457L43.3745 84.0554L46.7613 88.5905L47.5625 87.9922ZM44.1758 83.457V84.457H48.0195V83.457V82.457H44.1758V83.457ZM48.0195 83.457L47.2087 84.0424L51.9548 90.6166L52.7656 90.0312L53.5764 89.4459L48.8303 82.8717L48.0195 83.457ZM52.7656 90.0312L53.4365 90.7728C54.034 90.2322 54.4944 89.5907 54.8098 88.8549L53.8906 88.4609L52.9715 88.067C52.7712 88.5343 52.4816 88.9396 52.0947 89.2897L52.7656 90.0312ZM53.8906 88.4609L54.8098 88.8549C55.1226 88.1249 55.3211 87.2024 55.4357 86.1297L54.4414 86.0234L53.4471 85.9172C53.343 86.8913 53.1742 87.5939 52.9715 88.067L53.8906 88.4609ZM54.4414 86.0234L55.4368 86.1189L55.6829 83.5525L54.6875 83.457L53.6921 83.3616L53.446 85.928L54.4414 86.0234ZM54.6875 83.457V84.457H57.9219V83.457V82.457H54.6875V83.457ZM57.9219 83.457L56.927 83.3563L56.6457 86.1336L57.6406 86.2344L58.6355 86.3351L58.9168 83.5578L57.9219 83.457ZM57.6406 86.2344L56.6465 86.1261C56.5676 86.8504 56.4268 87.4664 56.2346 87.9835L57.1719 88.332L58.1092 88.6805C58.37 87.9789 58.5418 87.1965 58.6347 86.3426L57.6406 86.2344ZM57.1719 88.332L56.2363 87.979C56.1021 88.3347 55.9387 88.6675 55.7466 88.9788L56.5977 89.5039L57.4487 90.029C57.7097 89.6059 57.9292 89.1575 58.1075 88.6851L57.1719 88.332ZM56.5977 89.5039L55.7517 88.9706C55.5631 89.2698 55.3042 89.6067 54.9652 89.9818L55.707 90.6523L56.4489 91.3229C56.8442 90.8855 57.1791 90.4568 57.4436 90.0372L56.5977 89.5039ZM55.707 90.6523L54.9645 89.9826C54.6374 90.3452 54.1891 90.784 53.6105 91.3016L54.2773 92.0469L54.9441 92.7921C55.5531 92.2473 56.0579 91.7564 56.4496 91.3221L55.707 90.6523ZM54.2773 92.0469L53.4713 92.6387L57.8424 98.5918L58.6484 98L59.4545 97.4082L55.0834 91.455L54.2773 92.0469ZM58.6484 98V97H54.8281V98V99H58.6484V98ZM54.8281 98L55.6392 97.4151L49.7916 89.3057L48.9805 89.8906L48.1694 90.4755L54.017 98.5849L54.8281 98ZM48.9805 89.8906L48.4756 89.0274C47.8605 89.3872 47.4169 89.9183 47.1581 90.5821L48.0898 90.9453L49.0216 91.3085C49.1221 91.0505 49.2723 90.8784 49.4854 90.7538L48.9805 89.8906ZM48.0898 90.9453L47.151 90.6011C47.0407 90.9017 46.9354 91.3075 46.8313 91.7882L47.8086 92L48.7859 92.2118C48.8849 91.755 48.9671 91.4577 49.0287 91.2896L48.0898 90.9453ZM47.8086 92L46.8313 91.7882C46.7241 92.283 46.6152 92.8898 46.5041 93.6041L47.4922 93.7578L48.4803 93.9115C48.5879 93.2195 48.69 92.6545 48.7859 92.2118L47.8086 92ZM73.918 96.5586L74.4072 97.4308L74.4152 97.4262L73.918 96.5586ZM71.5508 97.4492L71.7876 98.4208L71.7933 98.4194L71.5508 97.4492ZM68.0703 97.9531L67.9919 96.9562L67.9915 96.9562L68.0703 97.9531ZM62.9961 98.1172L62.0131 98.301L62.1658 99.1172H62.9961V98.1172ZM60.2539 83.457V82.457H59.0495L59.271 83.6409L60.2539 83.457ZM63.5703 83.457L64.5541 83.2777L64.4045 82.457H63.5703V83.457ZM64.8477 90.4648L63.8639 90.6442L64.0448 91.637L65.036 91.4469L64.8477 90.4648ZM65.7031 90.3008L65.5153 89.3186L65.5148 89.3187L65.7031 90.3008ZM66.875 89.7852L67.5708 90.5034L67.5711 90.5031L66.875 89.7852ZM67.4609 88.6719L68.4265 88.9324L68.4292 88.9218L67.4609 88.6719ZM67.6367 87.6641L66.6468 87.5226L66.6457 87.5302L66.6447 87.5378L67.6367 87.6641ZM67.8125 86.0703L68.8087 86.1575L68.8096 86.1475L68.8102 86.1374L67.8125 86.0703ZM67.9883 83.457V82.457H67.0533L66.9905 83.3899L67.9883 83.457ZM71.2227 83.457L72.2188 83.5444L72.3142 82.457H71.2227V83.457ZM70.8711 87.4648L69.8749 87.3775L69.8747 87.3794L70.8711 87.4648ZM70.3438 90.0781L69.42 89.6951L69.4161 89.7048L70.3438 90.0781ZM69.2539 91.5781L68.6455 90.7845L68.639 90.7895L69.2539 91.5781ZM67.0508 92.4805L67.278 93.4543L67.2844 93.4528L67.0508 92.4805ZM65.293 92.8906L65.0657 91.9168L64.1224 92.1369L64.3124 93.0867L65.293 92.8906ZM65.7734 95.293L64.7929 95.4891L64.9536 96.293H65.7734V95.293ZM68.6445 95.1758L68.7481 96.1704L68.7572 96.1694L68.6445 95.1758ZM70.5781 94.7891L70.284 93.8333L70.2772 93.8354L70.2703 93.8376L70.5781 94.7891ZM72.3359 93.875L72.9825 94.6379L72.9899 94.6315L72.3359 93.875ZM73.4258 92.293L74.3527 92.6682L74.3543 92.6644L73.4258 92.293ZM73.9883 89.7734L72.995 89.6573L72.994 89.6664L73.9883 89.7734ZM74.7266 83.457V82.457H73.8366L73.7333 83.3409L74.7266 83.457ZM77.9961 83.457L78.9889 83.5765L79.1236 82.457H77.9961V83.457ZM77.2461 89.6914L76.2532 89.572L76.2528 89.5759L77.2461 89.6914ZM76.5898 93.0312L75.637 92.7277L75.6346 92.7354L76.5898 93.0312ZM75.5234 95.1875L74.7383 94.5682L74.7371 94.5697L75.5234 95.1875ZM73.918 96.5586L73.4287 95.6865C72.8856 95.9911 72.185 96.2599 71.3082 96.4791L71.5508 97.4492L71.7933 98.4194C72.7916 98.1698 73.6691 97.8448 74.4072 97.4307L73.918 96.5586ZM71.5508 97.4492L71.314 96.4777C70.454 96.6872 69.351 96.8493 67.9919 96.9562L68.0703 97.9531L68.1487 98.95C69.5709 98.8382 70.7882 98.6643 71.7875 98.4208L71.5508 97.4492ZM68.0703 97.9531L67.9915 96.9562C66.6435 97.0629 64.9802 97.1172 62.9961 97.1172V98.1172V99.1172C65.012 99.1172 66.7315 99.0621 68.1492 98.95L68.0703 97.9531ZM62.9961 98.1172L63.979 97.9333L61.2369 83.2732L60.2539 83.457L59.271 83.6409L62.0131 98.301L62.9961 98.1172ZM60.2539 83.457V84.457H63.5703V83.457V82.457H60.2539V83.457ZM63.5703 83.457L62.5865 83.6364L63.8639 90.6442L64.8477 90.4648L65.8314 90.2855L64.5541 83.2777L63.5703 83.457ZM64.8477 90.4648L65.036 91.4469L65.8915 91.2829L65.7031 90.3008L65.5148 89.3187L64.6593 89.4827L64.8477 90.4648ZM65.7031 90.3008L65.8909 91.283C66.5156 91.1636 67.1232 90.937 67.5708 90.5034L66.875 89.7852L66.1792 89.0669C66.1268 89.1177 65.9531 89.2349 65.5153 89.3186L65.7031 90.3008ZM66.875 89.7852L67.5711 90.5031C68.0015 90.0857 68.2653 89.5293 68.4264 88.9324L67.4609 88.6719L66.4955 88.4114C66.3909 88.7988 66.2641 88.9846 66.1789 89.0673L66.875 89.7852ZM67.4609 88.6719L68.4292 88.9218C68.5071 88.62 68.572 88.2363 68.6287 87.7903L67.6367 87.6641L66.6447 87.5378C66.5921 87.9512 66.5398 88.2394 66.4927 88.422L67.4609 88.6719ZM67.6367 87.6641L68.6267 87.8055C68.6926 87.3442 68.753 86.7938 68.8087 86.1575L67.8125 86.0703L66.8163 85.9831C66.7626 86.5968 66.7059 87.1089 66.6468 87.5226L67.6367 87.6641ZM67.8125 86.0703L68.8102 86.1374L68.986 83.5241L67.9883 83.457L66.9905 83.3899L66.8148 86.0032L67.8125 86.0703ZM67.9883 83.457V84.457H71.2227V83.457V82.457H67.9883V83.457ZM71.2227 83.457L70.2265 83.3696L69.8749 87.3775L70.8711 87.4648L71.8673 87.5522L72.2188 83.5444L71.2227 83.457ZM70.8711 87.4648L69.8747 87.3794C69.8303 87.8982 69.7682 88.3536 69.6906 88.7487L70.6719 88.9414L71.6531 89.1342C71.7474 88.6542 71.8182 88.1253 71.8674 87.5502L70.8711 87.4648ZM70.6719 88.9414L69.6906 88.7487C69.6141 89.1384 69.5214 89.4506 69.42 89.6951L70.3438 90.0781L71.2675 90.4611C71.4318 90.065 71.5578 89.6194 71.6531 89.1342L70.6719 88.9414ZM70.3438 90.0781L69.4161 89.7048C69.2137 90.2077 68.9496 90.5514 68.6455 90.7845L69.2539 91.5781L69.8623 92.3717C70.4957 91.8861 70.9582 91.2298 71.2714 90.4515L70.3438 90.0781ZM69.2539 91.5781L68.639 90.7895C68.3464 91.0176 67.7773 91.2774 66.8171 91.5081L67.0508 92.4805L67.2844 93.4528C68.3399 93.1991 69.2395 92.8574 69.8688 92.3668L69.2539 91.5781ZM67.0508 92.4805L66.8236 91.5066L65.0657 91.9168L65.293 92.8906L65.5202 93.8645L67.278 93.4543L67.0508 92.4805ZM65.293 92.8906L64.3124 93.0867L64.7929 95.4891L65.7734 95.293L66.754 95.0969L66.2735 92.6945L65.293 92.8906ZM65.7734 95.293V96.293H66.0547V95.293V94.293H65.7734V95.293ZM66.0547 95.293V96.293C67.0564 96.293 67.9554 96.253 68.7481 96.1704L68.6445 95.1758L68.5409 94.1812C67.8336 94.2548 67.0061 94.293 66.0547 94.293V95.293ZM68.6445 95.1758L68.7572 96.1694C69.5591 96.0785 70.273 95.9388 70.8859 95.7405L70.5781 94.7891L70.2703 93.8376C69.8208 93.9831 69.2456 94.1012 68.5319 94.1821L68.6445 95.1758ZM70.5781 94.7891L70.8722 95.7448C71.6834 95.4952 72.3974 95.1337 72.9825 94.6379L72.3359 93.875L71.6894 93.1121C71.3526 93.3975 70.8947 93.6454 70.284 93.8333L70.5781 94.7891ZM72.3359 93.875L72.9899 94.6315C73.5888 94.1138 74.0373 93.4475 74.3527 92.6682L73.4258 92.293L72.4988 91.9178C72.283 92.4509 72.0049 92.8393 71.682 93.1185L72.3359 93.875ZM73.4258 92.293L74.3543 92.6644C74.6648 91.888 74.8672 90.9515 74.9825 89.8805L73.9883 89.7734L72.994 89.6664C72.8906 90.6266 72.718 91.3698 72.4973 91.9216L73.4258 92.293ZM73.9883 89.7734L74.9815 89.8895L75.7198 83.5731L74.7266 83.457L73.7333 83.3409L72.995 89.6573L73.9883 89.7734ZM74.7266 83.457V84.457H77.9961V83.457V82.457H74.7266V83.457ZM77.9961 83.457L77.0033 83.3376L76.2533 89.572L77.2461 89.6914L78.2389 89.8108L78.9889 83.5765L77.9961 83.457ZM77.2461 89.6914L76.2528 89.5759C76.1009 90.8821 75.8921 91.927 75.637 92.7277L76.5898 93.0312L77.5427 93.3348C77.8501 92.3698 78.0788 91.1882 78.2394 89.8069L77.2461 89.6914ZM76.5898 93.0312L75.6346 92.7354C75.3869 93.5351 75.0803 94.1346 74.7383 94.5682L75.5234 95.1875L76.3086 95.8068C76.8416 95.131 77.2459 94.293 77.5451 93.3271L76.5898 93.0312ZM75.5234 95.1875L74.7371 94.5697C74.3916 95.0094 73.9568 95.3837 73.4207 95.691L73.918 96.5586L74.4152 97.4262C75.1604 96.9991 75.7959 96.4594 76.3098 95.8053L75.5234 95.1875ZM10.7773 123.68L11.7096 124.042L11.7137 124.031L10.7773 123.68ZM9.33594 125.449L9.82871 126.319L9.83656 126.315L9.33594 125.449ZM5.71484 126H4.71484V127H5.71484V126ZM5.71484 123.164V122.164H4.71484V123.164H5.71484ZM7.20312 122.859L7.7387 123.704L7.74811 123.698L7.20312 122.859ZM7.87109 121.934L8.82332 122.239L8.82494 122.234L7.87109 121.934ZM8.07031 114.293H9.07031V113.293H8.07031V114.293ZM5.84375 114.293H4.84375V115.293H5.84375V114.293ZM5.84375 111.457V110.457H4.84375V111.457H5.84375ZM18.8398 112.887L18.1414 113.602L18.1472 113.608L18.8398 112.887ZM20.3164 126V127H21.3164V126H20.3164ZM17.1406 126H16.1406V127H17.1406V126ZM11.2344 114.293V113.293H10.2344V114.293H11.2344ZM10.7773 123.68L9.84517 123.318C9.60185 123.944 9.25743 124.339 8.83531 124.584L9.33594 125.449L9.83656 126.315C10.7113 125.809 11.3278 125.025 11.7095 124.042L10.7773 123.68ZM9.33594 125.449L8.84319 124.579C8.41337 124.822 7.67403 125 6.51172 125V126V127C7.81815 127 8.96163 126.81 9.82869 126.319L9.33594 125.449ZM6.51172 126V125H5.71484V126V127H6.51172V126ZM5.71484 126H6.71484V123.164H5.71484H4.71484V126H5.71484ZM5.71484 123.164V124.164H5.91406V123.164V122.164H5.71484V123.164ZM5.91406 123.164V124.164C6.56664 124.164 7.20419 124.043 7.73867 123.704L7.20312 122.859L6.66758 122.015C6.56144 122.082 6.33961 122.164 5.91406 122.164V123.164ZM7.20312 122.859L7.74811 123.698C8.28491 123.349 8.63246 122.834 8.82331 122.239L7.87109 121.934L6.91888 121.628C6.8441 121.861 6.74634 121.964 6.65814 122.021L7.20312 122.859ZM7.87109 121.934L8.82494 122.234C9.0049 121.662 9.07031 120.901 9.07031 120.023H8.07031H7.07031C7.07031 120.849 7.00291 121.361 6.91724 121.633L7.87109 121.934ZM8.07031 120.023H9.07031V114.293H8.07031H7.07031V120.023H8.07031ZM8.07031 114.293V113.293H5.84375V114.293V115.293H8.07031V114.293ZM5.84375 114.293H6.84375V111.457H5.84375H4.84375V114.293H5.84375ZM5.84375 111.457V112.457H14V111.457V110.457H5.84375V111.457ZM14 111.457V112.457C16.1493 112.457 17.4413 112.919 18.1414 113.602L18.8398 112.887L19.5383 112.171C18.2852 110.948 16.3507 110.457 14 110.457V111.457ZM18.8398 112.887L18.1472 113.608C18.8438 114.277 19.3164 115.515 19.3164 117.598H20.3164H21.3164C21.3164 115.29 20.8046 113.387 19.5325 112.165L18.8398 112.887ZM20.3164 117.598H19.3164V126H20.3164H21.3164V117.598H20.3164ZM20.3164 126V125H17.1406V126V127H20.3164V126ZM17.1406 126H18.1406V117.645H17.1406H16.1406V126H17.1406ZM17.1406 117.645H18.1406C18.1406 116.316 17.8815 115.095 17.0749 114.313L16.3789 115.031L15.6829 115.749C15.8919 115.952 16.1406 116.473 16.1406 117.645H17.1406ZM16.3789 115.031L17.0749 114.313C16.2865 113.549 15.1055 113.293 13.8125 113.293V114.293V115.293C14.9258 115.293 15.4557 115.529 15.6829 115.749L16.3789 115.031ZM13.8125 114.293V113.293H11.2344V114.293V115.293H13.8125V114.293ZM11.2344 114.293H10.2344V120.434H11.2344H12.2344V114.293H11.2344ZM11.2344 120.434H10.2344C10.2344 121.725 10.0869 122.673 9.84101 123.329L10.7773 123.68L11.7137 124.031C12.0772 123.061 12.2344 121.846 12.2344 120.434H11.2344ZM27.4297 111.457H28.4297V110.457H27.4297V111.457ZM27.4297 126V127H28.4297V126H27.4297ZM24.2656 126H23.2656V127H24.2656V126ZM24.2656 111.457V110.457H23.2656V111.457H24.2656ZM27.4297 111.457H26.4297V126H27.4297H28.4297V111.457H27.4297ZM27.4297 126V125H24.2656V126V127H27.4297V126ZM24.2656 126H25.2656V111.457H24.2656H23.2656V126H24.2656ZM24.2656 111.457V112.457H27.4297V111.457V110.457H24.2656V111.457ZM42.8164 123.961H43.8164V123.622L43.6099 123.352L42.8164 123.961ZM42.8164 126V127H43.8164V126H42.8164ZM30.5234 126H29.5234V127H30.5234V126ZM30.5234 123.164V122.164H29.5234V123.164H30.5234ZM38.3984 123.164V124.164H40.4028L39.1974 122.563L38.3984 123.164ZM29.5859 111.457V110.457H27.5815L28.787 112.058L29.5859 111.457ZM33.3828 111.457L34.1877 110.864L33.8879 110.457H33.3828V111.457ZM37.8242 117.48L37.0194 118.074L37.5126 118.743L38.2605 118.38L37.8242 117.48ZM38.9375 116.355L38.032 115.931L38.0266 115.943L38.9375 116.355ZM39.4297 114.164L40.425 114.261L40.4252 114.259L39.4297 114.164ZM39.6875 111.457V110.457H38.7782L38.692 111.362L39.6875 111.457ZM42.9336 111.457L43.9296 111.547L44.0278 110.457H42.9336V111.457ZM42.6875 114.188L43.6831 114.281L43.6835 114.277L42.6875 114.188ZM42.1719 116.719L43.0978 117.096L43.1012 117.088L42.1719 116.719ZM39.2656 119.332L38.8895 118.405L37.6733 118.899L38.4722 119.941L39.2656 119.332ZM42.8164 123.961H41.8164V126H42.8164H43.8164V123.961H42.8164ZM42.8164 126V125H30.5234V126V127H42.8164V126ZM30.5234 126H31.5234V123.164H30.5234H29.5234V126H30.5234ZM30.5234 123.164V124.164H38.3984V123.164V122.164H30.5234V123.164ZM38.3984 123.164L39.1974 122.563L30.3849 110.856L29.5859 111.457L28.787 112.058L37.5995 123.765L38.3984 123.164ZM29.5859 111.457V112.457H33.3828V111.457V110.457H29.5859V111.457ZM33.3828 111.457L32.578 112.05L37.0194 118.074L37.8242 117.48L38.6291 116.887L34.1877 110.864L33.3828 111.457ZM37.8242 117.48L38.2605 118.38C38.9763 118.033 39.5209 117.491 39.8484 116.768L38.9375 116.355L38.0266 115.943C37.901 116.22 37.7033 116.428 37.3879 116.581L37.8242 117.48ZM38.9375 116.355L39.843 116.78C40.1489 116.127 40.3271 115.264 40.425 114.261L39.4297 114.164L38.4344 114.067C38.3447 114.986 38.1948 115.584 38.032 115.931L38.9375 116.355ZM39.4297 114.164L40.4252 114.259L40.683 111.552L39.6875 111.457L38.692 111.362L38.4342 114.069L39.4297 114.164ZM39.6875 111.457V112.457H42.9336V111.457V110.457H39.6875V111.457ZM42.9336 111.457L41.9376 111.367L41.6915 114.098L42.6875 114.188L43.6835 114.277L43.9296 111.547L42.9336 111.457ZM42.6875 114.188L41.6919 114.094C41.5943 115.13 41.4344 115.867 41.2426 116.349L42.1719 116.719L43.1012 117.088C43.3938 116.352 43.5776 115.401 43.6831 114.281L42.6875 114.188ZM42.1719 116.719L41.2459 116.341C41.0572 116.804 40.7931 117.183 40.4543 117.492L41.1289 118.23L41.8035 118.969C42.371 118.45 42.8022 117.821 43.0978 117.096L42.1719 116.719ZM41.1289 118.23L40.4543 117.492C40.1155 117.802 39.6082 118.114 38.8895 118.405L39.2656 119.332L39.6418 120.259C40.5012 119.91 41.2361 119.487 41.8035 118.969L41.1289 118.23ZM39.2656 119.332L38.4722 119.941L42.023 124.57L42.8164 123.961L43.6099 123.352L40.0591 118.723L39.2656 119.332ZM49.2969 111.457H50.2969V110.457H49.2969V111.457ZM49.2969 126V127H50.2969V126H49.2969ZM46.1328 126H45.1328V127H46.1328V126ZM46.1328 111.457V110.457H45.1328V111.457H46.1328ZM49.2969 111.457H48.2969V126H49.2969H50.2969V111.457H49.2969ZM49.2969 126V125H46.1328V126V127H49.2969V126ZM46.1328 126H47.1328V111.457H46.1328H45.1328V126H46.1328ZM46.1328 111.457V112.457H49.2969V111.457V110.457H46.1328V111.457ZM61.6133 115.219L60.8788 115.897L60.8832 115.902L61.6133 115.219ZM56.2109 114.293V113.293H55.2109V114.293H56.2109ZM56.2109 117.434H55.2109V118.434H56.2109V117.434ZM59.0586 117.434H60.0586V116.434H59.0586V117.434ZM59.0586 120.27V121.27H60.0586V120.27H59.0586ZM53.0117 120.27H52.0117V121.27H53.0117V120.27ZM53.0117 111.457V110.457H52.0117V111.457H53.0117ZM53.1406 126H52.1406V127H53.1406V126ZM53.1406 123.164V122.164H52.1406V123.164H53.1406ZM61.4492 122.121L60.7341 121.422L60.7301 121.426L61.4492 122.121ZM62.4688 118.008H63.4688C63.4688 116.628 63.1563 115.404 62.3434 114.535L61.6133 115.219L60.8832 115.902C61.2109 116.252 61.4688 116.888 61.4688 118.008H62.4688ZM61.6133 115.219L62.3477 114.54C61.5152 113.639 60.2938 113.293 58.918 113.293V114.293V115.293C59.9953 115.293 60.5708 115.564 60.8788 115.897L61.6133 115.219ZM58.918 114.293V113.293H56.2109V114.293V115.293H58.918V114.293ZM56.2109 114.293H55.2109V117.434H56.2109H57.2109V114.293H56.2109ZM56.2109 117.434V118.434H59.0586V117.434V116.434H56.2109V117.434ZM59.0586 117.434H58.0586V120.27H59.0586H60.0586V117.434H59.0586ZM59.0586 120.27V119.27H53.0117V120.27V121.27H59.0586V120.27ZM53.0117 120.27H54.0117V111.457H53.0117H52.0117V120.27H53.0117ZM53.0117 111.457V112.457H58.9414V111.457V110.457H53.0117V111.457ZM58.9414 111.457V112.457C61.1058 112.457 62.4965 112.964 63.3279 113.777L64.0273 113.062L64.7268 112.348C63.3707 111.021 61.3708 110.457 58.9414 110.457V111.457ZM64.0273 113.062L63.3279 113.777C64.1542 114.586 64.668 115.938 64.668 118.055H65.668H66.668C66.668 115.656 66.088 113.68 64.7268 112.348L64.0273 113.062ZM65.668 118.055H64.668V119.016H65.668H66.668V118.055H65.668ZM65.668 119.016H64.668C64.668 121.182 64.1125 122.625 63.175 123.537C62.2322 124.454 60.7317 125 58.4844 125V126V127C61.0261 127 63.1174 126.382 64.5692 124.971C66.0262 123.554 66.668 121.505 66.668 119.016H65.668ZM58.4844 126V125H53.1406V126V127H58.4844V126ZM53.1406 126H54.1406V123.164H53.1406H52.1406V126H53.1406ZM53.1406 123.164V124.164H58.4141V123.164V122.164H53.1406V123.164ZM58.4141 123.164V124.164C59.9266 124.164 61.2432 123.773 62.1683 122.816L61.4492 122.121L60.7301 121.426C60.3115 121.859 59.6046 122.164 58.4141 122.164V123.164ZM61.4492 122.121L62.1643 122.82C63.0927 121.87 63.4688 120.531 63.4688 118.992H62.4688H61.4688C61.4688 120.234 61.1651 120.981 60.7341 121.422L61.4492 122.121ZM62.4688 118.992H63.4688V118.008H62.4688H61.4688V118.992H62.4688ZM75.418 126V127H76.418V126H75.418ZM67.8359 126H66.8359V127H67.8359V126ZM67.8359 123.164V122.164H66.8359V123.164H67.8359ZM72.2539 123.164V124.164H73.2539V123.164H72.2539ZM72.043 115.535L72.998 115.239L72.9966 115.234L72.043 115.535ZM71.3398 114.586L70.8284 115.445L70.836 115.45L70.8437 115.454L71.3398 114.586ZM68.5039 114.293H67.5039V115.293H68.5039V114.293ZM68.5039 111.457V110.457H67.5039V111.457H68.5039ZM75.418 117.188H74.418V126H75.418H76.418V117.188H75.418ZM75.418 126V125H67.8359V126V127H75.418V126ZM67.8359 126H68.8359V123.164H67.8359H66.8359V126H67.8359ZM67.8359 123.164V124.164H72.2539V123.164V122.164H67.8359V123.164ZM72.2539 123.164H73.2539V117.797H72.2539H71.2539V123.164H72.2539ZM72.2539 117.797H73.2539C73.2539 116.734 73.187 115.848 72.998 115.239L72.043 115.535L71.0879 115.832C71.1801 116.129 71.2539 116.751 71.2539 117.797H72.2539ZM72.043 115.535L72.9966 115.234C72.7989 114.608 72.431 114.058 71.836 113.718L71.3398 114.586L70.8437 115.454C70.9049 115.489 71.0058 115.572 71.0894 115.836L72.043 115.535ZM71.3398 114.586L71.8513 113.727C71.2978 113.397 70.6058 113.293 69.8984 113.293V114.293V115.293C70.4567 115.293 70.7257 115.384 70.8284 115.445L71.3398 114.586ZM69.8984 114.293V113.293H68.5039V114.293V115.293H69.8984V114.293ZM68.5039 114.293H69.5039V111.457H68.5039H67.5039V114.293H68.5039ZM68.5039 111.457V112.457H70.4961V111.457V110.457H68.5039V111.457ZM70.4961 111.457V112.457C71.7847 112.457 72.5877 112.635 73.0319 112.876L73.5078 111.996L73.9838 111.117C73.0998 110.638 71.8949 110.457 70.4961 110.457V111.457ZM73.5078 111.996L73.0319 112.876C73.4494 113.102 73.789 113.482 74.0235 114.114L74.9609 113.766L75.8984 113.417C75.5235 112.408 74.8943 111.609 73.9838 111.117L73.5078 111.996ZM74.9609 113.766L74.0235 114.114C74.2682 114.773 74.418 115.777 74.418 117.188H75.418H76.418C76.418 115.676 76.263 114.399 75.8984 113.417L74.9609 113.766Z" fill="#0E4866" mask="url(#path-3-outside-1_358_1703)"/>
</g>
<defs>
<filter id="filter0_d_358_1703" x="-1" y="0" width="82" height="84" filterUnits="userSpaceOnUse" color-interpolation-filters="sRGB">
<feFlood flood-opacity="0" result="BackgroundImageFix"/>
<feColorMatrix in="SourceAlpha" type="matrix" values="0 0 0 0 0 0 0 0 0 0 0 0 0 0 0 0 0 0 127 0" result="hardAlpha"/>
<feOffset dy="4"/>
<feGaussianBlur stdDeviation="2"/>
<feComposite in2="hardAlpha" operator="out"/>
<feColorMatrix type="matrix" values="0 0 0 0 0 0 0 0 0 0 0 0 0 0 0 0 0 0 0.25 0"/>
<feBlend mode="normal" in2="BackgroundImageFix" result="effect1_dropShadow_358_1703"/>
<feBlend mode="normal" in="SourceGraphic" in2="effect1_dropShadow_358_1703" result="shape"/>
</filter>
<filter id="filter1_d_358_1703" x="0.714844" y="77.4883" width="82.4088" height="57.5117" filterUnits="userSpaceOnUse" color-interpolation-filters="sRGB">
<feFlood flood-opacity="0" result="BackgroundImageFix"/>
<feColorMatrix in="SourceAlpha" type="matrix" values="0 0 0 0 0 0 0 0 0 0 0 0 0 0 0 0 0 0 127 0" result="hardAlpha"/>
<feOffset dy="4"/>
<feGaussianBlur stdDeviation="2"/>
<feComposite in2="hardAlpha" operator="out"/>
<feColorMatrix type="matrix" values="0 0 0 0 0 0 0 0 0 0 0 0 0 0 0 0 0 0 0.25 0"/>
<feBlend mode="normal" in2="BackgroundImageFix" result="effect1_dropShadow_358_1703"/>
<feBlend mode="normal" in="SourceGraphic" in2="effect1_dropShadow_358_1703" result="shape"/>
</filter>
</defs>
</svg>
