<svg width="134" height="141" viewBox="0 0 134 141" fill="none" xmlns="http://www.w3.org/2000/svg">
<g filter="url(#filter0_d_361_1737)">
<path opacity="0.4" d="M29.3246 7.33301H60.7123C67.45 7.33301 72.7639 9.16202 76.3881 12.4639C80.0061 15.7603 82.0003 20.5788 82.0004 26.6836V55.2812C82.0004 61.3862 80.0061 66.2045 76.3881 69.501C72.7639 72.8029 67.4501 74.6318 60.7123 74.6318H29.3246C22.5869 74.6318 17.2729 72.8029 13.6488 69.501C10.0309 66.2045 8.03748 61.3861 8.03748 55.2812V26.6836C8.03753 20.5788 10.0308 15.7603 13.6488 12.4639C17.2729 9.16192 22.5869 7.33308 29.3246 7.33301Z" fill="#00BD81" stroke="#70DAC3"/>
<path d="M25.9719 22.0459L26.2141 22.0576C30.8281 22.3939 37.7001 24.4228 41.9954 26.6494L42.012 26.6582L42.0295 26.666C42.3833 26.8164 42.6252 27.1984 42.6252 27.6406V58.9375C42.6249 59.7523 41.6895 60.4175 40.718 60.042H40.717C36.4381 58.3669 30.927 56.8092 26.8118 56.2217L26.0081 56.1172L25.9983 56.1162L25.2961 56.0488H25.2971C23.2256 55.8013 21.5754 54.037 21.5754 52.2061V25.8975C21.5757 23.7112 23.478 21.9809 25.9719 22.0459Z" fill="#96DFDE" stroke="#8BC8D3"/>
<path d="M63.7072 22.0254L63.9542 22.0342C66.4947 22.1788 68.4248 24.0695 68.4249 26.3086V52.1729C68.4249 54.0012 66.7795 55.7622 64.712 56.0137L63.9318 56.082L63.922 56.083L63.9132 56.084C60.0342 56.5703 54.5817 58.0235 50.1544 59.6475L49.2833 59.9746H49.2823C48.3109 60.3501 47.3755 59.6849 47.3751 58.8701V27.6074C47.3751 27.1804 47.6078 26.7709 48.0411 26.5488L48.0402 26.5479C52.3294 24.3582 59.0397 22.3999 63.5822 22.0254H63.7072Z" fill="#96DFDE" stroke="#85B9CD"/>
</g>
<g filter="url(#filter1_d_361_1737)">
<mask id="path-4-outside-1_361_1737" maskUnits="userSpaceOnUse" x="8" y="87" width="78" height="46" fill="black">
<rect fill="white" x="8" y="87" width="78" height="46"/>
<path d="M14.7773 100.68C14.4648 101.484 13.9844 102.074 13.3359 102.449C12.6875 102.816 11.7461 103 10.5117 103H9.71484V100.164H9.91406C10.4531 100.164 10.8828 100.062 11.2031 99.8594C11.5156 99.6562 11.7383 99.3477 11.8711 98.9336C12.0039 98.5117 12.0703 97.875 12.0703 97.0234V91.293H9.84375V88.457H18C20.25 88.457 21.8633 88.9336 22.8398 89.8867C23.8242 90.832 24.3164 92.4023 24.3164 94.5977V103H21.1406V94.6445C21.1406 93.3945 20.8867 92.5234 20.3789 92.0312C19.8711 91.5391 19.0156 91.293 17.8125 91.293H15.2344V97.4336C15.2344 98.7852 15.082 99.8672 14.7773 100.68ZM31.4297 88.457V103H28.2656V88.457H31.4297ZM33.9492 100.434C35.9727 100.395 37.5391 100.195 38.6484 99.8359L34.5 88.457H37.9336L41.3906 98.418C41.9844 97.9414 42.457 97.293 42.8086 96.4727C43.168 95.6445 43.4297 94.5781 43.5938 93.2734C43.7578 91.9609 43.8398 90.3555 43.8398 88.457H47.0977C47.0977 92.1992 46.6836 95.1133 45.8555 97.1992C45.3008 98.6055 44.5234 99.7617 43.5234 100.668C42.5234 101.566 41.2422 102.246 39.6797 102.707C38.1172 103.168 36.207 103.449 33.9492 103.551V100.434ZM59.8242 91.293V103H56.6602V91.293H48.7852V88.457H61.6289V91.293H59.8242ZM67.4766 88.457V103H64.3125V88.457H67.4766ZM83.8242 94.5742V103H80.6484V94.5508C80.6484 93.3555 80.3945 92.5156 79.8867 92.0312C79.3789 91.5391 78.4961 91.293 77.2383 91.293H71.2969V88.457H77.4375C78.9766 88.457 80.2109 88.6641 81.1406 89.0781C82.0781 89.4922 82.7578 90.1484 83.1797 91.0469C83.6094 91.9375 83.8242 93.1133 83.8242 94.5742ZM74.6953 94.1641V103H71.5312V94.1641H74.6953ZM14.7773 128.68C14.4648 129.484 13.9844 130.074 13.3359 130.449C12.6875 130.816 11.7461 131 10.5117 131H9.71484V128.164H9.91406C10.4531 128.164 10.8828 128.062 11.2031 127.859C11.5156 127.656 11.7383 127.348 11.8711 126.934C12.0039 126.512 12.0703 125.875 12.0703 125.023V119.293H9.84375V116.457H18C20.25 116.457 21.8633 116.934 22.8398 117.887C23.8242 118.832 24.3164 120.402 24.3164 122.598V131H21.1406V122.645C21.1406 121.395 20.8867 120.523 20.3789 120.031C19.8711 119.539 19.0156 119.293 17.8125 119.293H15.2344V125.434C15.2344 126.785 15.082 127.867 14.7773 128.68ZM31.4297 116.457V131H28.2656V116.457H31.4297ZM38.6719 116.457V124.18H35.5078V116.457H38.6719ZM55.043 129.559C54.4023 129.918 53.6133 130.215 52.6758 130.449C51.7461 130.676 50.5859 130.844 49.1953 130.953C47.8125 131.062 46.1211 131.117 44.1211 131.117L41.3789 116.457H44.6953L45.9727 123.465L46.8281 123.301C47.3594 123.199 47.75 123.027 48 122.785C48.2578 122.535 48.4531 122.164 48.5859 121.672C48.6484 121.43 48.707 121.094 48.7617 120.664C48.8242 120.227 48.8828 119.695 48.9375 119.07L49.1133 116.457H52.3477L51.9961 120.465C51.9492 121.012 51.8828 121.504 51.7969 121.941C51.7109 122.379 51.6016 122.758 51.4688 123.078C51.2109 123.719 50.8477 124.219 50.3789 124.578C49.918 124.938 49.1836 125.238 48.1758 125.48L46.418 125.891L46.8984 128.293H47.1797C48.1562 128.293 49.0195 128.254 49.7695 128.176C50.5273 128.09 51.1719 127.961 51.7031 127.789C52.4141 127.57 53 127.266 53.4609 126.875C53.9219 126.477 54.2852 125.949 54.5508 125.293C54.8164 124.629 55.0039 123.789 55.1133 122.773L55.8516 116.457H59.1211L58.3711 122.691C58.2148 124.035 57.9961 125.148 57.7148 126.031C57.4414 126.914 57.0859 127.633 56.6484 128.188C56.2188 128.734 55.6836 129.191 55.043 129.559ZM65.25 116.457V124.18H62.0859V116.457H65.25ZM72.0703 126.758L71.3438 131H68.0625L69.0469 126.148C69.3281 124.805 69.5859 123.848 69.8203 123.277C70.0547 122.699 70.3438 122.242 70.6875 121.906C71.0391 121.562 71.5234 121.258 72.1406 120.992L68.7539 116.457H72.5977L77.3438 123.031C77.8359 122.586 78.2109 122.062 78.4688 121.461C78.7266 120.859 78.9102 120.047 79.0195 119.023L79.2656 116.457H82.5L82.2188 119.234C82.1328 120.023 81.9766 120.723 81.75 121.332C81.5938 121.746 81.4023 122.137 81.1758 122.504C80.9492 122.863 80.6523 123.246 80.2852 123.652C79.9258 124.051 79.4492 124.516 78.8555 125.047L83.2266 131H79.4062L73.5586 122.891C73.1445 123.133 72.8477 123.484 72.668 123.945C72.582 124.18 72.4883 124.531 72.3867 125C72.2852 125.469 72.1797 126.055 72.0703 126.758Z"/>
</mask>
<path d="M14.7773 100.68C14.4648 101.484 13.9844 102.074 13.3359 102.449C12.6875 102.816 11.7461 103 10.5117 103H9.71484V100.164H9.91406C10.4531 100.164 10.8828 100.062 11.2031 99.8594C11.5156 99.6562 11.7383 99.3477 11.8711 98.9336C12.0039 98.5117 12.0703 97.875 12.0703 97.0234V91.293H9.84375V88.457H18C20.25 88.457 21.8633 88.9336 22.8398 89.8867C23.8242 90.832 24.3164 92.4023 24.3164 94.5977V103H21.1406V94.6445C21.1406 93.3945 20.8867 92.5234 20.3789 92.0312C19.8711 91.5391 19.0156 91.293 17.8125 91.293H15.2344V97.4336C15.2344 98.7852 15.082 99.8672 14.7773 100.68ZM31.4297 88.457V103H28.2656V88.457H31.4297ZM33.9492 100.434C35.9727 100.395 37.5391 100.195 38.6484 99.8359L34.5 88.457H37.9336L41.3906 98.418C41.9844 97.9414 42.457 97.293 42.8086 96.4727C43.168 95.6445 43.4297 94.5781 43.5938 93.2734C43.7578 91.9609 43.8398 90.3555 43.8398 88.457H47.0977C47.0977 92.1992 46.6836 95.1133 45.8555 97.1992C45.3008 98.6055 44.5234 99.7617 43.5234 100.668C42.5234 101.566 41.2422 102.246 39.6797 102.707C38.1172 103.168 36.207 103.449 33.9492 103.551V100.434ZM59.8242 91.293V103H56.6602V91.293H48.7852V88.457H61.6289V91.293H59.8242ZM67.4766 88.457V103H64.3125V88.457H67.4766ZM83.8242 94.5742V103H80.6484V94.5508C80.6484 93.3555 80.3945 92.5156 79.8867 92.0312C79.3789 91.5391 78.4961 91.293 77.2383 91.293H71.2969V88.457H77.4375C78.9766 88.457 80.2109 88.6641 81.1406 89.0781C82.0781 89.4922 82.7578 90.1484 83.1797 91.0469C83.6094 91.9375 83.8242 93.1133 83.8242 94.5742ZM74.6953 94.1641V103H71.5312V94.1641H74.6953ZM14.7773 128.68C14.4648 129.484 13.9844 130.074 13.3359 130.449C12.6875 130.816 11.7461 131 10.5117 131H9.71484V128.164H9.91406C10.4531 128.164 10.8828 128.062 11.2031 127.859C11.5156 127.656 11.7383 127.348 11.8711 126.934C12.0039 126.512 12.0703 125.875 12.0703 125.023V119.293H9.84375V116.457H18C20.25 116.457 21.8633 116.934 22.8398 117.887C23.8242 118.832 24.3164 120.402 24.3164 122.598V131H21.1406V122.645C21.1406 121.395 20.8867 120.523 20.3789 120.031C19.8711 119.539 19.0156 119.293 17.8125 119.293H15.2344V125.434C15.2344 126.785 15.082 127.867 14.7773 128.68ZM31.4297 116.457V131H28.2656V116.457H31.4297ZM38.6719 116.457V124.18H35.5078V116.457H38.6719ZM55.043 129.559C54.4023 129.918 53.6133 130.215 52.6758 130.449C51.7461 130.676 50.5859 130.844 49.1953 130.953C47.8125 131.062 46.1211 131.117 44.1211 131.117L41.3789 116.457H44.6953L45.9727 123.465L46.8281 123.301C47.3594 123.199 47.75 123.027 48 122.785C48.2578 122.535 48.4531 122.164 48.5859 121.672C48.6484 121.43 48.707 121.094 48.7617 120.664C48.8242 120.227 48.8828 119.695 48.9375 119.07L49.1133 116.457H52.3477L51.9961 120.465C51.9492 121.012 51.8828 121.504 51.7969 121.941C51.7109 122.379 51.6016 122.758 51.4688 123.078C51.2109 123.719 50.8477 124.219 50.3789 124.578C49.918 124.938 49.1836 125.238 48.1758 125.48L46.418 125.891L46.8984 128.293H47.1797C48.1562 128.293 49.0195 128.254 49.7695 128.176C50.5273 128.09 51.1719 127.961 51.7031 127.789C52.4141 127.57 53 127.266 53.4609 126.875C53.9219 126.477 54.2852 125.949 54.5508 125.293C54.8164 124.629 55.0039 123.789 55.1133 122.773L55.8516 116.457H59.1211L58.3711 122.691C58.2148 124.035 57.9961 125.148 57.7148 126.031C57.4414 126.914 57.0859 127.633 56.6484 128.188C56.2188 128.734 55.6836 129.191 55.043 129.559ZM65.25 116.457V124.18H62.0859V116.457H65.25ZM72.0703 126.758L71.3438 131H68.0625L69.0469 126.148C69.3281 124.805 69.5859 123.848 69.8203 123.277C70.0547 122.699 70.3438 122.242 70.6875 121.906C71.0391 121.562 71.5234 121.258 72.1406 120.992L68.7539 116.457H72.5977L77.3438 123.031C77.8359 122.586 78.2109 122.062 78.4688 121.461C78.7266 120.859 78.9102 120.047 79.0195 119.023L79.2656 116.457H82.5L82.2188 119.234C82.1328 120.023 81.9766 120.723 81.75 121.332C81.5938 121.746 81.4023 122.137 81.1758 122.504C80.9492 122.863 80.6523 123.246 80.2852 123.652C79.9258 124.051 79.4492 124.516 78.8555 125.047L83.2266 131H79.4062L73.5586 122.891C73.1445 123.133 72.8477 123.484 72.668 123.945C72.582 124.18 72.4883 124.531 72.3867 125C72.2852 125.469 72.1797 126.055 72.0703 126.758Z" fill="white"/>
<path d="M14.7773 100.68L15.7096 101.042L15.7137 101.031L14.7773 100.68ZM13.3359 102.449L13.8287 103.319L13.8366 103.315L13.3359 102.449ZM9.71484 103H8.71484V104H9.71484V103ZM9.71484 100.164V99.1641H8.71484V100.164H9.71484ZM11.2031 99.8594L11.7387 100.704L11.7481 100.698L11.2031 99.8594ZM11.8711 98.9336L12.8233 99.239L12.8249 99.2339L11.8711 98.9336ZM12.0703 91.293H13.0703V90.293H12.0703V91.293ZM9.84375 91.293H8.84375V92.293H9.84375V91.293ZM9.84375 88.457V87.457H8.84375V88.457H9.84375ZM22.8398 89.8867L22.1414 90.6024L22.1472 90.608L22.8398 89.8867ZM24.3164 103V104H25.3164V103H24.3164ZM21.1406 103H20.1406V104H21.1406V103ZM15.2344 91.293V90.293H14.2344V91.293H15.2344ZM14.7773 100.68L13.8452 100.318C13.6019 100.944 13.2574 101.339 12.8353 101.584L13.3359 102.449L13.8366 103.315C14.7113 102.809 15.3278 102.025 15.7095 101.042L14.7773 100.68ZM13.3359 102.449L12.8432 101.579C12.4134 101.822 11.674 102 10.5117 102V103V104C11.8182 104 12.9616 103.81 13.8287 103.319L13.3359 102.449ZM10.5117 103V102H9.71484V103V104H10.5117V103ZM9.71484 103H10.7148V100.164H9.71484H8.71484V103H9.71484ZM9.71484 100.164V101.164H9.91406V100.164V99.1641H9.71484V100.164ZM9.91406 100.164V101.164C10.5666 101.164 11.2042 101.043 11.7387 100.704L11.2031 99.8594L10.6676 99.0149C10.5614 99.0822 10.3396 99.1641 9.91406 99.1641V100.164ZM11.2031 99.8594L11.7481 100.698C12.2849 100.349 12.6325 99.834 12.8233 99.239L11.8711 98.9336L10.9189 98.6282C10.8441 98.8613 10.7463 98.9636 10.6581 99.0209L11.2031 99.8594ZM11.8711 98.9336L12.8249 99.2339C13.0049 98.6622 13.0703 97.901 13.0703 97.0234H12.0703H11.0703C11.0703 97.849 11.0029 98.3612 10.9172 98.6333L11.8711 98.9336ZM12.0703 97.0234H13.0703V91.293H12.0703H11.0703V97.0234H12.0703ZM12.0703 91.293V90.293H9.84375V91.293V92.293H12.0703V91.293ZM9.84375 91.293H10.8438V88.457H9.84375H8.84375V91.293H9.84375ZM9.84375 88.457V89.457H18V88.457V87.457H9.84375V88.457ZM18 88.457V89.457C20.1493 89.457 21.4413 89.9191 22.1414 90.6024L22.8398 89.8867L23.5383 89.1711C22.2852 87.9481 20.3507 87.457 18 87.457V88.457ZM22.8398 89.8867L22.1472 90.608C22.8438 91.277 23.3164 92.5145 23.3164 94.5977H24.3164H25.3164C25.3164 92.2902 24.8046 90.3871 23.5325 89.1654L22.8398 89.8867ZM24.3164 94.5977H23.3164V103H24.3164H25.3164V94.5977H24.3164ZM24.3164 103V102H21.1406V103V104H24.3164V103ZM21.1406 103H22.1406V94.6445H21.1406H20.1406V103H21.1406ZM21.1406 94.6445H22.1406C22.1406 93.3161 21.8815 92.095 21.0749 91.3132L20.3789 92.0312L19.6829 92.7493C19.8919 92.9519 20.1406 93.473 20.1406 94.6445H21.1406ZM20.3789 92.0312L21.0749 91.3132C20.2865 90.549 19.1055 90.293 17.8125 90.293V91.293V92.293C18.9258 92.293 19.4557 92.5291 19.6829 92.7493L20.3789 92.0312ZM17.8125 91.293V90.293H15.2344V91.293V92.293H17.8125V91.293ZM15.2344 91.293H14.2344V97.4336H15.2344H16.2344V91.293H15.2344ZM15.2344 97.4336H14.2344C14.2344 98.7246 14.0869 99.673 13.841 100.329L14.7773 100.68L15.7137 101.031C16.0772 100.061 16.2344 98.8457 16.2344 97.4336H15.2344ZM31.4297 88.457H32.4297V87.457H31.4297V88.457ZM31.4297 103V104H32.4297V103H31.4297ZM28.2656 103H27.2656V104H28.2656V103ZM28.2656 88.457V87.457H27.2656V88.457H28.2656ZM31.4297 88.457H30.4297V103H31.4297H32.4297V88.457H31.4297ZM31.4297 103V102H28.2656V103V104H31.4297V103ZM28.2656 103H29.2656V88.457H28.2656H27.2656V103H28.2656ZM28.2656 88.457V89.457H31.4297V88.457V87.457H28.2656V88.457ZM33.9492 100.434L33.9299 99.4338L32.9492 99.4527V100.434H33.9492ZM38.6484 99.8359L38.9566 100.787L39.9431 100.468L39.5879 99.4934L38.6484 99.8359ZM34.5 88.457V87.457H33.071L33.5605 88.7996L34.5 88.457ZM37.9336 88.457L38.8783 88.1292L38.645 87.457H37.9336V88.457ZM41.3906 98.418L40.4459 98.7458L40.9108 100.085L42.0166 99.1978L41.3906 98.418ZM42.8086 96.4727L41.8912 96.0746L41.8894 96.0787L42.8086 96.4727ZM43.5938 93.2734L44.5859 93.3982L44.586 93.3975L43.5938 93.2734ZM43.8398 88.457V87.457H42.8398V88.457H43.8398ZM47.0977 88.457H48.0977V87.457H47.0977V88.457ZM45.8555 97.1992L44.926 96.8302L44.9252 96.8323L45.8555 97.1992ZM43.5234 100.668L44.1918 101.412L44.195 101.409L43.5234 100.668ZM33.9492 103.551H32.9492V104.597L33.9942 104.55L33.9492 103.551ZM33.9492 100.434L33.9685 101.433C36.0293 101.394 37.7097 101.191 38.9566 100.787L38.6484 99.8359L38.3403 98.8846C37.3684 99.1994 35.916 99.3954 33.9299 99.4338L33.9492 100.434ZM38.6484 99.8359L39.5879 99.4934L35.4395 88.1145L34.5 88.457L33.5605 88.7996L37.7089 100.178L38.6484 99.8359ZM34.5 88.457V89.457H37.9336V88.457V87.457H34.5V88.457ZM37.9336 88.457L36.9889 88.7849L40.4459 98.7458L41.3906 98.418L42.3353 98.0901L38.8783 88.1292L37.9336 88.457ZM41.3906 98.418L42.0166 99.1978C42.7586 98.6023 43.3227 97.8116 43.7277 96.8666L42.8086 96.4727L41.8894 96.0787C41.5913 96.7743 41.2101 97.2806 40.7647 97.6381L41.3906 98.418ZM42.8086 96.4727L43.7259 96.8707C44.136 95.9257 44.4149 94.7582 44.5859 93.3982L43.5938 93.2734L42.6016 93.1487C42.4445 94.398 42.1999 95.3633 41.8912 96.0746L42.8086 96.4727ZM43.5938 93.2734L44.586 93.3975C44.7569 92.0304 44.8398 90.3807 44.8398 88.457H43.8398H42.8398C42.8398 90.3302 42.7587 91.8915 42.6015 93.1494L43.5938 93.2734ZM43.8398 88.457V89.457H47.0977V88.457V87.457H43.8398V88.457ZM47.0977 88.457H46.0977C46.0977 92.1459 45.6866 94.9145 44.926 96.8302L45.8555 97.1992L46.7849 97.5682C47.6806 95.3121 48.0977 92.2526 48.0977 88.457H47.0977ZM45.8555 97.1992L44.9252 96.8323C44.4201 98.113 43.725 99.1357 42.8519 99.927L43.5234 100.668L44.195 101.409C45.3218 100.388 46.1815 99.098 46.7857 97.5661L45.8555 97.1992ZM43.5234 100.668L42.8551 99.9241C41.9869 100.704 40.8461 101.32 39.3967 101.748L39.6797 102.707L39.9626 103.666C41.6383 103.172 43.06 102.429 44.1918 101.412L43.5234 100.668ZM39.6797 102.707L39.3967 101.748C37.935 102.179 36.11 102.453 33.9043 102.552L33.9492 103.551L33.9942 104.55C36.304 104.446 38.2994 104.157 39.9626 103.666L39.6797 102.707ZM33.9492 103.551H34.9492V100.434H33.9492H32.9492V103.551H33.9492ZM59.8242 91.293V90.293H58.8242V91.293H59.8242ZM59.8242 103V104H60.8242V103H59.8242ZM56.6602 103H55.6602V104H56.6602V103ZM56.6602 91.293H57.6602V90.293H56.6602V91.293ZM48.7852 91.293H47.7852V92.293H48.7852V91.293ZM48.7852 88.457V87.457H47.7852V88.457H48.7852ZM61.6289 88.457H62.6289V87.457H61.6289V88.457ZM61.6289 91.293V92.293H62.6289V91.293H61.6289ZM59.8242 91.293H58.8242V103H59.8242H60.8242V91.293H59.8242ZM59.8242 103V102H56.6602V103V104H59.8242V103ZM56.6602 103H57.6602V91.293H56.6602H55.6602V103H56.6602ZM56.6602 91.293V90.293H48.7852V91.293V92.293H56.6602V91.293ZM48.7852 91.293H49.7852V88.457H48.7852H47.7852V91.293H48.7852ZM48.7852 88.457V89.457H61.6289V88.457V87.457H48.7852V88.457ZM61.6289 88.457H60.6289V91.293H61.6289H62.6289V88.457H61.6289ZM61.6289 91.293V90.293H59.8242V91.293V92.293H61.6289V91.293ZM67.4766 88.457H68.4766V87.457H67.4766V88.457ZM67.4766 103V104H68.4766V103H67.4766ZM64.3125 103H63.3125V104H64.3125V103ZM64.3125 88.457V87.457H63.3125V88.457H64.3125ZM67.4766 88.457H66.4766V103H67.4766H68.4766V88.457H67.4766ZM67.4766 103V102H64.3125V103V104H67.4766V103ZM64.3125 103H65.3125V88.457H64.3125H63.3125V103H64.3125ZM64.3125 88.457V89.457H67.4766V88.457V87.457H64.3125V88.457ZM83.8242 103V104H84.8242V103H83.8242ZM80.6484 103H79.6484V104H80.6484V103ZM79.8867 92.0312L79.1907 92.7493L79.1965 92.7549L79.8867 92.0312ZM71.2969 91.293H70.2969V92.293H71.2969V91.293ZM71.2969 88.457V87.457H70.2969V88.457H71.2969ZM81.1406 89.0781L80.7338 89.9916L80.7366 89.9929L81.1406 89.0781ZM83.1797 91.0469L82.2745 91.4719L82.279 91.4814L83.1797 91.0469ZM74.6953 94.1641H75.6953V93.1641H74.6953V94.1641ZM74.6953 103V104H75.6953V103H74.6953ZM71.5312 103H70.5312V104H71.5312V103ZM71.5312 94.1641V93.1641H70.5312V94.1641H71.5312ZM83.8242 94.5742H82.8242V103H83.8242H84.8242V94.5742H83.8242ZM83.8242 103V102H80.6484V103V104H83.8242V103ZM80.6484 103H81.6484V94.5508H80.6484H79.6484V103H80.6484ZM80.6484 94.5508H81.6484C81.6484 93.2634 81.3837 92.0772 80.5769 91.3076L79.8867 92.0312L79.1965 92.7549C79.4054 92.9541 79.6484 93.4475 79.6484 94.5508H80.6484ZM79.8867 92.0312L80.5827 91.3132C79.7881 90.543 78.571 90.293 77.2383 90.293V91.293V92.293C78.4212 92.293 78.9697 92.5351 79.1907 92.7493L79.8867 92.0312ZM77.2383 91.293V90.293H71.2969V91.293V92.293H77.2383V91.293ZM71.2969 91.293H72.2969V88.457H71.2969H70.2969V91.293H71.2969ZM71.2969 88.457V89.457H77.4375V88.457V87.457H71.2969V88.457ZM77.4375 88.457V89.457C78.9014 89.457 79.9806 89.6562 80.7338 89.9916L81.1406 89.0781L81.5475 88.1646C80.4413 87.672 79.0517 87.457 77.4375 87.457V88.457ZM81.1406 89.0781L80.7366 89.9929C81.4613 90.313 81.9588 90.7995 82.2745 91.4719L83.1797 91.0469L84.0849 90.6218C83.5569 89.4974 82.6949 88.6714 81.5446 88.1634L81.1406 89.0781ZM83.1797 91.0469L82.279 91.4814C82.6197 92.1875 82.8242 93.1978 82.8242 94.5742H83.8242H84.8242C84.8242 93.0288 84.5991 91.6875 84.0803 90.6123L83.1797 91.0469ZM74.6953 94.1641H73.6953V103H74.6953H75.6953V94.1641H74.6953ZM74.6953 103V102H71.5312V103V104H74.6953V103ZM71.5312 103H72.5312V94.1641H71.5312H70.5312V103H71.5312ZM71.5312 94.1641V95.1641H74.6953V94.1641V93.1641H71.5312V94.1641ZM14.7773 128.68L15.7096 129.042L15.7137 129.031L14.7773 128.68ZM13.3359 130.449L13.8287 131.319L13.8366 131.315L13.3359 130.449ZM9.71484 131H8.71484V132H9.71484V131ZM9.71484 128.164V127.164H8.71484V128.164H9.71484ZM11.2031 127.859L11.7387 128.704L11.7481 128.698L11.2031 127.859ZM11.8711 126.934L12.8233 127.239L12.8249 127.234L11.8711 126.934ZM12.0703 119.293H13.0703V118.293H12.0703V119.293ZM9.84375 119.293H8.84375V120.293H9.84375V119.293ZM9.84375 116.457V115.457H8.84375V116.457H9.84375ZM22.8398 117.887L22.1414 118.602L22.1472 118.608L22.8398 117.887ZM24.3164 131V132H25.3164V131H24.3164ZM21.1406 131H20.1406V132H21.1406V131ZM15.2344 119.293V118.293H14.2344V119.293H15.2344ZM14.7773 128.68L13.8452 128.318C13.6019 128.944 13.2574 129.339 12.8353 129.584L13.3359 130.449L13.8366 131.315C14.7113 130.809 15.3278 130.025 15.7095 129.042L14.7773 128.68ZM13.3359 130.449L12.8432 129.579C12.4134 129.822 11.674 130 10.5117 130V131V132C11.8182 132 12.9616 131.81 13.8287 131.319L13.3359 130.449ZM10.5117 131V130H9.71484V131V132H10.5117V131ZM9.71484 131H10.7148V128.164H9.71484H8.71484V131H9.71484ZM9.71484 128.164V129.164H9.91406V128.164V127.164H9.71484V128.164ZM9.91406 128.164V129.164C10.5666 129.164 11.2042 129.043 11.7387 128.704L11.2031 127.859L10.6676 127.015C10.5614 127.082 10.3396 127.164 9.91406 127.164V128.164ZM11.2031 127.859L11.7481 128.698C12.2849 128.349 12.6325 127.834 12.8233 127.239L11.8711 126.934L10.9189 126.628C10.8441 126.861 10.7463 126.964 10.6581 127.021L11.2031 127.859ZM11.8711 126.934L12.8249 127.234C13.0049 126.662 13.0703 125.901 13.0703 125.023H12.0703H11.0703C11.0703 125.849 11.0029 126.361 10.9172 126.633L11.8711 126.934ZM12.0703 125.023H13.0703V119.293H12.0703H11.0703V125.023H12.0703ZM12.0703 119.293V118.293H9.84375V119.293V120.293H12.0703V119.293ZM9.84375 119.293H10.8438V116.457H9.84375H8.84375V119.293H9.84375ZM9.84375 116.457V117.457H18V116.457V115.457H9.84375V116.457ZM18 116.457V117.457C20.1493 117.457 21.4413 117.919 22.1414 118.602L22.8398 117.887L23.5383 117.171C22.2852 115.948 20.3507 115.457 18 115.457V116.457ZM22.8398 117.887L22.1472 118.608C22.8438 119.277 23.3164 120.515 23.3164 122.598H24.3164H25.3164C25.3164 120.29 24.8046 118.387 23.5325 117.165L22.8398 117.887ZM24.3164 122.598H23.3164V131H24.3164H25.3164V122.598H24.3164ZM24.3164 131V130H21.1406V131V132H24.3164V131ZM21.1406 131H22.1406V122.645H21.1406H20.1406V131H21.1406ZM21.1406 122.645H22.1406C22.1406 121.316 21.8815 120.095 21.0749 119.313L20.3789 120.031L19.6829 120.749C19.8919 120.952 20.1406 121.473 20.1406 122.645H21.1406ZM20.3789 120.031L21.0749 119.313C20.2865 118.549 19.1055 118.293 17.8125 118.293V119.293V120.293C18.9258 120.293 19.4557 120.529 19.6829 120.749L20.3789 120.031ZM17.8125 119.293V118.293H15.2344V119.293V120.293H17.8125V119.293ZM15.2344 119.293H14.2344V125.434H15.2344H16.2344V119.293H15.2344ZM15.2344 125.434H14.2344C14.2344 126.725 14.0869 127.673 13.841 128.329L14.7773 128.68L15.7137 129.031C16.0772 128.061 16.2344 126.846 16.2344 125.434H15.2344ZM31.4297 116.457H32.4297V115.457H31.4297V116.457ZM31.4297 131V132H32.4297V131H31.4297ZM28.2656 131H27.2656V132H28.2656V131ZM28.2656 116.457V115.457H27.2656V116.457H28.2656ZM31.4297 116.457H30.4297V131H31.4297H32.4297V116.457H31.4297ZM31.4297 131V130H28.2656V131V132H31.4297V131ZM28.2656 131H29.2656V116.457H28.2656H27.2656V131H28.2656ZM28.2656 116.457V117.457H31.4297V116.457V115.457H28.2656V116.457ZM38.6719 116.457H39.6719V115.457H38.6719V116.457ZM38.6719 124.18V125.18H39.6719V124.18H38.6719ZM35.5078 124.18H34.5078V125.18H35.5078V124.18ZM35.5078 116.457V115.457H34.5078V116.457H35.5078ZM38.6719 116.457H37.6719V124.18H38.6719H39.6719V116.457H38.6719ZM38.6719 124.18V123.18H35.5078V124.18V125.18H38.6719V124.18ZM35.5078 124.18H36.5078V116.457H35.5078H34.5078V124.18H35.5078ZM35.5078 116.457V117.457H38.6719V116.457V115.457H35.5078V116.457ZM55.043 129.559L55.5322 130.431L55.5402 130.426L55.043 129.559ZM52.6758 130.449L52.9126 131.421L52.9183 131.419L52.6758 130.449ZM49.1953 130.953L49.1169 129.956L49.1165 129.956L49.1953 130.953ZM44.1211 131.117L43.1381 131.301L43.2908 132.117H44.1211V131.117ZM41.3789 116.457V115.457H40.1745L40.396 116.641L41.3789 116.457ZM44.6953 116.457L45.6791 116.278L45.5295 115.457H44.6953V116.457ZM45.9727 123.465L44.9889 123.644L45.1698 124.637L46.161 124.447L45.9727 123.465ZM46.8281 123.301L46.6403 122.319L46.6398 122.319L46.8281 123.301ZM48 122.785L48.6958 123.503L48.6961 123.503L48 122.785ZM48.5859 121.672L49.5515 121.932L49.5542 121.922L48.5859 121.672ZM48.7617 120.664L47.7718 120.523L47.7707 120.53L47.7697 120.538L48.7617 120.664ZM48.9375 119.07L49.9337 119.157L49.9346 119.147L49.9352 119.137L48.9375 119.07ZM49.1133 116.457V115.457H48.1783L48.1155 116.39L49.1133 116.457ZM52.3477 116.457L53.3438 116.544L53.4392 115.457H52.3477V116.457ZM51.9961 120.465L50.9999 120.377L50.9997 120.379L51.9961 120.465ZM51.4688 123.078L50.545 122.695L50.5411 122.705L51.4688 123.078ZM50.3789 124.578L49.7705 123.784L49.764 123.789L50.3789 124.578ZM48.1758 125.48L48.403 126.454L48.4094 126.453L48.1758 125.48ZM46.418 125.891L46.1907 124.917L45.2474 125.137L45.4374 126.087L46.418 125.891ZM46.8984 128.293L45.9179 128.489L46.0786 129.293H46.8984V128.293ZM49.7695 128.176L49.8731 129.17L49.8822 129.169L49.7695 128.176ZM51.7031 127.789L51.409 126.833L51.4022 126.835L51.3953 126.838L51.7031 127.789ZM53.4609 126.875L54.1075 127.638L54.1149 127.632L53.4609 126.875ZM54.5508 125.293L55.4777 125.668L55.4793 125.664L54.5508 125.293ZM55.1133 122.773L54.12 122.657L54.119 122.666L55.1133 122.773ZM55.8516 116.457V115.457H54.9616L54.8583 116.341L55.8516 116.457ZM59.1211 116.457L60.1139 116.576L60.2486 115.457H59.1211V116.457ZM58.3711 122.691L57.3782 122.572L57.3778 122.576L58.3711 122.691ZM57.7148 126.031L56.762 125.728L56.7596 125.735L57.7148 126.031ZM56.6484 128.188L55.8633 127.568L55.8621 127.57L56.6484 128.188ZM55.043 129.559L54.5537 128.686C54.0106 128.991 53.31 129.26 52.4332 129.479L52.6758 130.449L52.9183 131.419C53.9166 131.17 54.7941 130.845 55.5322 130.431L55.043 129.559ZM52.6758 130.449L52.439 129.478C51.579 129.687 50.476 129.849 49.1169 129.956L49.1953 130.953L49.2737 131.95C50.6959 131.838 51.9132 131.664 52.9125 131.421L52.6758 130.449ZM49.1953 130.953L49.1165 129.956C47.7685 130.063 46.1052 130.117 44.1211 130.117V131.117V132.117C46.137 132.117 47.8565 132.062 49.2742 131.95L49.1953 130.953ZM44.1211 131.117L45.104 130.933L42.3619 116.273L41.3789 116.457L40.396 116.641L43.1381 131.301L44.1211 131.117ZM41.3789 116.457V117.457H44.6953V116.457V115.457H41.3789V116.457ZM44.6953 116.457L43.7115 116.636L44.9889 123.644L45.9727 123.465L46.9564 123.286L45.6791 116.278L44.6953 116.457ZM45.9727 123.465L46.161 124.447L47.0165 124.283L46.8281 123.301L46.6398 122.319L45.7843 122.483L45.9727 123.465ZM46.8281 123.301L47.0159 124.283C47.6406 124.164 48.2482 123.937 48.6958 123.503L48 122.785L47.3042 122.067C47.2518 122.118 47.0781 122.235 46.6403 122.319L46.8281 123.301ZM48 122.785L48.6961 123.503C49.1265 123.086 49.3903 122.529 49.5514 121.932L48.5859 121.672L47.6205 121.411C47.5159 121.799 47.3891 121.985 47.3039 122.067L48 122.785ZM48.5859 121.672L49.5542 121.922C49.6321 121.62 49.697 121.236 49.7537 120.79L48.7617 120.664L47.7697 120.538C47.7171 120.951 47.6648 121.239 47.6177 121.422L48.5859 121.672ZM48.7617 120.664L49.7517 120.805C49.8176 120.344 49.878 119.794 49.9337 119.157L48.9375 119.07L47.9413 118.983C47.8876 119.597 47.8309 120.109 47.7718 120.523L48.7617 120.664ZM48.9375 119.07L49.9352 119.137L50.111 116.524L49.1133 116.457L48.1155 116.39L47.9398 119.003L48.9375 119.07ZM49.1133 116.457V117.457H52.3477V116.457V115.457H49.1133V116.457ZM52.3477 116.457L51.3515 116.37L50.9999 120.377L51.9961 120.465L52.9923 120.552L53.3438 116.544L52.3477 116.457ZM51.9961 120.465L50.9997 120.379C50.9553 120.898 50.8932 121.354 50.8156 121.749L51.7969 121.941L52.7781 122.134C52.8724 121.654 52.9432 121.125 52.9924 120.55L51.9961 120.465ZM51.7969 121.941L50.8156 121.749C50.7391 122.138 50.6464 122.451 50.545 122.695L51.4688 123.078L52.3925 123.461C52.5568 123.065 52.6828 122.619 52.7781 122.134L51.7969 121.941ZM51.4688 123.078L50.5411 122.705C50.3387 123.208 50.0746 123.551 49.7705 123.785L50.3789 124.578L50.9873 125.372C51.6207 124.886 52.0832 124.23 52.3964 123.451L51.4688 123.078ZM50.3789 124.578L49.764 123.789C49.4714 124.018 48.9023 124.277 47.9421 124.508L48.1758 125.48L48.4094 126.453C49.4649 126.199 50.3645 125.857 50.9938 125.367L50.3789 124.578ZM48.1758 125.48L47.9486 124.507L46.1907 124.917L46.418 125.891L46.6452 126.864L48.403 126.454L48.1758 125.48ZM46.418 125.891L45.4374 126.087L45.9179 128.489L46.8984 128.293L47.879 128.097L47.3985 125.695L46.418 125.891ZM46.8984 128.293V129.293H47.1797V128.293V127.293H46.8984V128.293ZM47.1797 128.293V129.293C48.1814 129.293 49.0804 129.253 49.8731 129.17L49.7695 128.176L49.6659 127.181C48.9586 127.255 48.1311 127.293 47.1797 127.293V128.293ZM49.7695 128.176L49.8822 129.169C50.6841 129.078 51.398 128.939 52.0109 128.741L51.7031 127.789L51.3953 126.838C50.9458 126.983 50.3706 127.101 49.6569 127.182L49.7695 128.176ZM51.7031 127.789L51.9972 128.745C52.8084 128.495 53.5224 128.134 54.1075 127.638L53.4609 126.875L52.8144 126.112C52.4776 126.398 52.0197 126.645 51.409 126.833L51.7031 127.789ZM53.4609 126.875L54.1149 127.632C54.7138 127.114 55.1623 126.448 55.4777 125.668L54.5508 125.293L53.6238 124.918C53.408 125.451 53.1299 125.839 52.807 126.118L53.4609 126.875ZM54.5508 125.293L55.4793 125.664C55.7898 124.888 55.9922 123.952 56.1075 122.881L55.1133 122.773L54.119 122.666C54.0156 123.627 53.843 124.37 53.6223 124.922L54.5508 125.293ZM55.1133 122.773L56.1065 122.89L56.8448 116.573L55.8516 116.457L54.8583 116.341L54.12 122.657L55.1133 122.773ZM55.8516 116.457V117.457H59.1211V116.457V115.457H55.8516V116.457ZM59.1211 116.457L58.1283 116.338L57.3783 122.572L58.3711 122.691L59.3639 122.811L60.1139 116.576L59.1211 116.457ZM58.3711 122.691L57.3778 122.576C57.2259 123.882 57.0171 124.927 56.762 125.728L57.7148 126.031L58.6677 126.335C58.9751 125.37 59.2038 124.188 59.3644 122.807L58.3711 122.691ZM57.7148 126.031L56.7596 125.735C56.5119 126.535 56.2053 127.135 55.8633 127.568L56.6484 128.188L57.4336 128.807C57.9666 128.131 58.3709 127.293 58.6701 126.327L57.7148 126.031ZM56.6484 128.188L55.8621 127.57C55.5166 128.009 55.0818 128.384 54.5457 128.691L55.043 129.559L55.5402 130.426C56.2854 129.999 56.9209 129.459 57.4348 128.805L56.6484 128.188ZM65.25 116.457H66.25V115.457H65.25V116.457ZM65.25 124.18V125.18H66.25V124.18H65.25ZM62.0859 124.18H61.0859V125.18H62.0859V124.18ZM62.0859 116.457V115.457H61.0859V116.457H62.0859ZM65.25 116.457H64.25V124.18H65.25H66.25V116.457H65.25ZM65.25 124.18V123.18H62.0859V124.18V125.18H65.25V124.18ZM62.0859 124.18H63.0859V116.457H62.0859H61.0859V124.18H62.0859ZM62.0859 116.457V117.457H65.25V116.457V115.457H62.0859V116.457ZM72.0703 126.758L73.056 126.927L73.0573 126.919L73.0584 126.912L72.0703 126.758ZM71.3438 131V132H72.187L72.3294 131.169L71.3438 131ZM68.0625 131L67.0825 130.801L66.8392 132H68.0625V131ZM69.0469 126.148L68.0681 125.944L68.0668 125.95L69.0469 126.148ZM69.8203 123.277L70.7453 123.657L70.7471 123.653L69.8203 123.277ZM70.6875 121.906L71.3864 122.621L71.3866 122.621L70.6875 121.906ZM72.1406 120.992L72.5359 121.911L73.7004 121.41L72.9419 120.394L72.1406 120.992ZM68.7539 116.457V115.457H66.7591L67.9527 117.055L68.7539 116.457ZM72.5977 116.457L73.4084 115.872L73.1091 115.457H72.5977V116.457ZM77.3438 123.031L76.533 123.617L77.1866 124.522L78.0147 123.773L77.3438 123.031ZM79.0195 119.023L80.0139 119.13L80.015 119.119L79.0195 119.023ZM79.2656 116.457V115.457H78.3569L78.2702 116.362L79.2656 116.457ZM82.5 116.457L83.4949 116.558L83.6064 115.457H82.5V116.457ZM82.2188 119.234L83.2129 119.343L83.2137 119.335L82.2188 119.234ZM81.75 121.332L82.6856 121.685L82.6873 121.681L81.75 121.332ZM81.1758 122.504L82.0217 123.037L82.0268 123.029L81.1758 122.504ZM80.2852 123.652L79.5433 122.982L79.5426 122.983L80.2852 123.652ZM78.8555 125.047L78.1887 124.302L77.5121 124.907L78.0494 125.639L78.8555 125.047ZM83.2266 131V132H85.2014L84.0326 130.408L83.2266 131ZM79.4062 131L78.5951 131.585L78.8945 132H79.4062V131ZM73.5586 122.891L74.3697 122.306L73.8382 121.569L73.0537 122.027L73.5586 122.891ZM72.668 123.945L71.7363 123.582L71.7326 123.592L71.7291 123.601L72.668 123.945ZM72.0703 126.758L71.0847 126.589L70.3581 130.831L71.3438 131L72.3294 131.169L73.056 126.927L72.0703 126.758ZM71.3438 131V130H68.0625V131V132H71.3438V131ZM68.0625 131L69.0425 131.199L70.0269 126.347L69.0469 126.148L68.0668 125.95L67.0825 130.801L68.0625 131ZM69.0469 126.148L70.0257 126.353C70.3058 125.015 70.5486 124.136 70.7453 123.657L69.8203 123.277L68.8954 122.897C68.6233 123.559 68.3505 124.594 68.0681 125.944L69.0469 126.148ZM69.8203 123.277L70.7471 123.653C70.9444 123.166 71.1658 122.837 71.3864 122.621L70.6875 121.906L69.9886 121.191C69.5217 121.647 69.1649 122.232 68.8936 122.902L69.8203 123.277ZM70.6875 121.906L71.3866 122.621C71.6245 122.389 71.993 122.144 72.5359 121.911L72.1406 120.992L71.7453 120.074C71.0538 120.371 70.4536 120.736 69.9884 121.191L70.6875 121.906ZM72.1406 120.992L72.9419 120.394L69.5551 115.859L68.7539 116.457L67.9527 117.055L71.3394 121.591L72.1406 120.992ZM68.7539 116.457V117.457H72.5977V116.457V115.457H68.7539V116.457ZM72.5977 116.457L71.7869 117.042L76.533 123.617L77.3438 123.031L78.1545 122.446L73.4084 115.872L72.5977 116.457ZM77.3438 123.031L78.0147 123.773C78.6121 123.232 79.0725 122.591 79.3879 121.855L78.4688 121.461L77.5496 121.067C77.3494 121.534 77.0598 121.94 76.6728 122.29L77.3438 123.031ZM78.4688 121.461L79.3879 121.855C79.7008 121.125 79.8992 120.202 80.0139 119.13L79.0195 119.023L78.0252 118.917C77.9211 119.891 77.7524 120.594 77.5496 121.067L78.4688 121.461ZM79.0195 119.023L80.015 119.119L80.2611 116.552L79.2656 116.457L78.2702 116.362L78.0241 118.928L79.0195 119.023ZM79.2656 116.457V117.457H82.5V116.457V115.457H79.2656V116.457ZM82.5 116.457L81.5051 116.356L81.2238 119.134L82.2188 119.234L83.2137 119.335L83.4949 116.558L82.5 116.457ZM82.2188 119.234L81.2246 119.126C81.1457 119.85 81.005 120.466 80.8127 120.984L81.75 121.332L82.6873 121.681C82.9482 120.979 83.1199 120.196 83.2129 119.343L82.2188 119.234ZM81.75 121.332L80.8144 120.979C80.6802 121.335 80.5168 121.668 80.3247 121.979L81.1758 122.504L82.0268 123.029C82.2879 122.606 82.5073 122.158 82.6856 121.685L81.75 121.332ZM81.1758 122.504L80.3299 121.971C80.1413 122.27 79.8823 122.607 79.5433 122.982L80.2852 123.652L81.027 124.323C81.4224 123.885 81.7572 123.457 82.0217 123.037L81.1758 122.504ZM80.2852 123.652L79.5426 122.983C79.2155 123.345 78.7672 123.784 78.1887 124.302L78.8555 125.047L79.5223 125.792C80.1312 125.247 80.636 124.756 81.0277 124.322L80.2852 123.652ZM78.8555 125.047L78.0494 125.639L82.4205 131.592L83.2266 131L84.0326 130.408L79.6615 124.455L78.8555 125.047ZM83.2266 131V130H79.4062V131V132H83.2266V131ZM79.4062 131L80.2174 130.415L74.3697 122.306L73.5586 122.891L72.7475 123.476L78.5951 131.585L79.4062 131ZM73.5586 122.891L73.0537 122.027C72.4386 122.387 71.995 122.918 71.7363 123.582L72.668 123.945L73.5997 124.309C73.7003 124.05 73.8505 123.878 74.0635 123.754L73.5586 122.891ZM72.668 123.945L71.7291 123.601C71.6189 123.902 71.5136 124.307 71.4094 124.788L72.3867 125L73.364 125.212C73.463 124.755 73.5452 124.458 73.6068 124.29L72.668 123.945ZM72.3867 125L71.4094 124.788C71.3022 125.283 71.1933 125.89 71.0822 126.604L72.0703 126.758L73.0584 126.912C73.1661 126.22 73.2681 125.654 73.364 125.212L72.3867 125Z" fill="#0E4866" mask="url(#path-4-outside-1_361_1737)"/>
</g>
<defs>
<filter id="filter0_d_361_1737" x="3.53748" y="6.83301" width="82.9625" height="76.2988" filterUnits="userSpaceOnUse" color-interpolation-filters="sRGB">
<feFlood flood-opacity="0" result="BackgroundImageFix"/>
<feColorMatrix in="SourceAlpha" type="matrix" values="0 0 0 0 0 0 0 0 0 0 0 0 0 0 0 0 0 0 127 0" result="hardAlpha"/>
<feOffset dy="4"/>
<feGaussianBlur stdDeviation="2"/>
<feComposite in2="hardAlpha" operator="out"/>
<feColorMatrix type="matrix" values="0 0 0 0 0 0 0 0 0 0 0 0 0 0 0 0 0 0 0.25 0"/>
<feBlend mode="normal" in2="BackgroundImageFix" result="effect1_dropShadow_361_1737"/>
<feBlend mode="normal" in="SourceGraphic" in2="effect1_dropShadow_361_1737" result="shape"/>
</filter>
<filter id="filter1_d_361_1737" x="4.71484" y="87.457" width="84.4866" height="52.6602" filterUnits="userSpaceOnUse" color-interpolation-filters="sRGB">
<feFlood flood-opacity="0" result="BackgroundImageFix"/>
<feColorMatrix in="SourceAlpha" type="matrix" values="0 0 0 0 0 0 0 0 0 0 0 0 0 0 0 0 0 0 127 0" result="hardAlpha"/>
<feOffset dy="4"/>
<feGaussianBlur stdDeviation="2"/>
<feComposite in2="hardAlpha" operator="out"/>
<feColorMatrix type="matrix" values="0 0 0 0 0 0 0 0 0 0 0 0 0 0 0 0 0 0 0.25 0"/>
<feBlend mode="normal" in2="BackgroundImageFix" result="effect1_dropShadow_361_1737"/>
<feBlend mode="normal" in="SourceGraphic" in2="effect1_dropShadow_361_1737" result="shape"/>
</filter>
</defs>
</svg>
