<svg width="120" height="118" viewBox="0 0 120 118" fill="none" xmlns="http://www.w3.org/2000/svg">
<g opacity="0.4" filter="url(#filter0_d_358_1702)">
<path d="M50.125 72.6248C69.8001 72.6248 85.75 57.9155 85.75 39.7707C85.75 21.6258 69.8001 6.9165 50.125 6.9165C30.4499 6.9165 14.5 21.6258 14.5 39.7707C14.5 57.9155 30.4499 72.6248 50.125 72.6248Z" fill="#00C37F"/>
<path d="M50.125 7.4165C69.5629 7.4165 85.25 21.9396 85.25 39.771C85.2498 57.6022 69.5628 72.1245 50.125 72.1245C30.6872 72.1245 15.0002 57.6022 15 39.771C15 21.9396 30.6871 7.4165 50.125 7.4165Z" stroke="#31525B"/>
</g>
<path d="M86.875 76.0832C86.2 76.0832 85.525 75.8411 85.0375 75.3915L78.0625 68.959C77.05 68.0253 77.05 66.5036 78.0625 65.5353C79.075 64.6015 80.725 64.6015 81.775 65.5353L88.75 71.9678C89.7625 72.9015 89.7625 74.4232 88.75 75.3915C88.225 75.8411 87.55 76.0832 86.875 76.0832Z" fill="#75CECF"/>
<g filter="url(#filter1_d_358_1702)">
<mask id="path-4-outside-1_358_1702" maskUnits="userSpaceOnUse" x="4" y="85" width="107" height="18" fill="black">
<rect fill="white" x="4" y="85" width="107" height="18"/>
<path d="M14.707 92.9609C14.707 91.6484 14.457 90.7109 13.957 90.1484C13.457 89.5781 12.582 89.293 11.332 89.293H8.20312V101H5.03906V86.457H11.332C13.6445 86.457 15.3125 86.9375 16.3359 87.8984C17.3672 88.8516 17.8828 90.4102 17.8828 92.5742V101H14.707V92.9609ZM25.0078 86.457V101H21.8438V86.457H25.0078ZM32.25 86.457V101H29.0859V86.457H32.25ZM39.4922 86.457V94.1797H36.3281V86.457H39.4922ZM53.0508 89.293V101H49.8867V89.293H42.0117V86.457H54.8555V89.293H53.0508ZM74.0977 99.5586C73.457 99.918 72.668 100.215 71.7305 100.449C70.8008 100.676 69.6406 100.844 68.25 100.953C66.8672 101.062 65.1758 101.117 63.1758 101.117L60.4336 86.457H63.75L65.0273 93.4648L65.8828 93.3008C66.4141 93.1992 66.8047 93.0273 67.0547 92.7852C67.3125 92.5352 67.5078 92.1641 67.6406 91.6719C67.7031 91.4297 67.7617 91.0938 67.8164 90.6641C67.8789 90.2266 67.9375 89.6953 67.9922 89.0703L68.168 86.457H71.4023L71.0508 90.4648C71.0039 91.0117 70.9375 91.5039 70.8516 91.9414C70.7656 92.3789 70.6562 92.7578 70.5234 93.0781C70.2656 93.7188 69.9023 94.2188 69.4336 94.5781C68.9727 94.9375 68.2383 95.2383 67.2305 95.4805L65.4727 95.8906L65.9531 98.293H66.2344C67.2109 98.293 68.0742 98.2539 68.8242 98.1758C69.582 98.0898 70.2266 97.9609 70.7578 97.7891C71.4688 97.5703 72.0547 97.2656 72.5156 96.875C72.9766 96.4766 73.3398 95.9492 73.6055 95.293C73.8711 94.6289 74.0586 93.7891 74.168 92.7734L74.9062 86.457H78.1758L77.4258 92.6914C77.2695 94.0352 77.0508 95.1484 76.7695 96.0312C76.4961 96.9141 76.1406 97.6328 75.7031 98.1875C75.2734 98.7344 74.7383 99.1914 74.0977 99.5586ZM90.2344 93.0078C90.2344 91.7578 89.9492 90.8281 89.3789 90.2188C88.8086 89.6016 87.9102 89.293 86.6836 89.293H83.9766V92.4336H86.8242V95.2695H80.7773V86.457H86.707C89.0039 86.457 90.6992 86.9922 91.793 88.0625C92.8867 89.1328 93.4336 90.7969 93.4336 93.0547V94.0156C93.4336 98.6719 91.0391 101 86.25 101H80.9062V98.1641H86.1797C87.5312 98.1641 88.543 97.8164 89.2148 97.1211C89.8945 96.4258 90.2344 95.3828 90.2344 93.9922V93.0078ZM106.465 92.9609C106.465 91.6484 106.215 90.7109 105.715 90.1484C105.215 89.5781 104.34 89.293 103.09 89.293H99.9609V101H96.7969V86.457H103.09C105.402 86.457 107.07 86.9375 108.094 87.8984C109.125 88.8516 109.641 90.4102 109.641 92.5742V101H106.465V92.9609Z"/>
</mask>
<path d="M14.707 92.9609C14.707 91.6484 14.457 90.7109 13.957 90.1484C13.457 89.5781 12.582 89.293 11.332 89.293H8.20312V101H5.03906V86.457H11.332C13.6445 86.457 15.3125 86.9375 16.3359 87.8984C17.3672 88.8516 17.8828 90.4102 17.8828 92.5742V101H14.707V92.9609ZM25.0078 86.457V101H21.8438V86.457H25.0078ZM32.25 86.457V101H29.0859V86.457H32.25ZM39.4922 86.457V94.1797H36.3281V86.457H39.4922ZM53.0508 89.293V101H49.8867V89.293H42.0117V86.457H54.8555V89.293H53.0508ZM74.0977 99.5586C73.457 99.918 72.668 100.215 71.7305 100.449C70.8008 100.676 69.6406 100.844 68.25 100.953C66.8672 101.062 65.1758 101.117 63.1758 101.117L60.4336 86.457H63.75L65.0273 93.4648L65.8828 93.3008C66.4141 93.1992 66.8047 93.0273 67.0547 92.7852C67.3125 92.5352 67.5078 92.1641 67.6406 91.6719C67.7031 91.4297 67.7617 91.0938 67.8164 90.6641C67.8789 90.2266 67.9375 89.6953 67.9922 89.0703L68.168 86.457H71.4023L71.0508 90.4648C71.0039 91.0117 70.9375 91.5039 70.8516 91.9414C70.7656 92.3789 70.6562 92.7578 70.5234 93.0781C70.2656 93.7188 69.9023 94.2188 69.4336 94.5781C68.9727 94.9375 68.2383 95.2383 67.2305 95.4805L65.4727 95.8906L65.9531 98.293H66.2344C67.2109 98.293 68.0742 98.2539 68.8242 98.1758C69.582 98.0898 70.2266 97.9609 70.7578 97.7891C71.4688 97.5703 72.0547 97.2656 72.5156 96.875C72.9766 96.4766 73.3398 95.9492 73.6055 95.293C73.8711 94.6289 74.0586 93.7891 74.168 92.7734L74.9062 86.457H78.1758L77.4258 92.6914C77.2695 94.0352 77.0508 95.1484 76.7695 96.0312C76.4961 96.9141 76.1406 97.6328 75.7031 98.1875C75.2734 98.7344 74.7383 99.1914 74.0977 99.5586ZM90.2344 93.0078C90.2344 91.7578 89.9492 90.8281 89.3789 90.2188C88.8086 89.6016 87.9102 89.293 86.6836 89.293H83.9766V92.4336H86.8242V95.2695H80.7773V86.457H86.707C89.0039 86.457 90.6992 86.9922 91.793 88.0625C92.8867 89.1328 93.4336 90.7969 93.4336 93.0547V94.0156C93.4336 98.6719 91.0391 101 86.25 101H80.9062V98.1641H86.1797C87.5312 98.1641 88.543 97.8164 89.2148 97.1211C89.8945 96.4258 90.2344 95.3828 90.2344 93.9922V93.0078ZM106.465 92.9609C106.465 91.6484 106.215 90.7109 105.715 90.1484C105.215 89.5781 104.34 89.293 103.09 89.293H99.9609V101H96.7969V86.457H103.09C105.402 86.457 107.07 86.9375 108.094 87.8984C109.125 88.8516 109.641 90.4102 109.641 92.5742V101H106.465V92.9609Z" fill="white"/>
<path d="M13.957 90.1484L13.2051 90.8077L13.2096 90.8128L13.957 90.1484ZM8.20312 89.293V88.293H7.20312V89.293H8.20312ZM8.20312 101V102H9.20312V101H8.20312ZM5.03906 101H4.03906V102H5.03906V101ZM5.03906 86.457V85.457H4.03906V86.457H5.03906ZM16.3359 87.8984L15.6514 88.6275L15.6572 88.6328L16.3359 87.8984ZM17.8828 101V102H18.8828V101H17.8828ZM14.707 101H13.707V102H14.707V101ZM14.707 92.9609H15.707C15.707 91.5696 15.4512 90.3242 14.7044 89.4841L13.957 90.1484L13.2096 90.8128C13.4629 91.0977 13.707 91.7273 13.707 92.9609H14.707ZM13.957 90.1484L14.709 89.4892C13.9257 88.5958 12.689 88.293 11.332 88.293V89.293V90.293C12.4751 90.293 12.9884 90.5605 13.2051 90.8077L13.957 90.1484ZM11.332 89.293V88.293H8.20312V89.293V90.293H11.332V89.293ZM8.20312 89.293H7.20312V101H8.20312H9.20312V89.293H8.20312ZM8.20312 101V100H5.03906V101V102H8.20312V101ZM5.03906 101H6.03906V86.457H5.03906H4.03906V101H5.03906ZM5.03906 86.457V87.457H11.332V86.457V85.457H5.03906V86.457ZM11.332 86.457V87.457C13.5452 87.457 14.9018 87.9236 15.6514 88.6275L16.3359 87.8984L17.0204 87.1694C15.7232 85.9514 13.7438 85.457 11.332 85.457V86.457ZM16.3359 87.8984L15.6572 88.6328C16.395 89.3148 16.8828 90.5397 16.8828 92.5742H17.8828H18.8828C18.8828 90.2806 18.3393 88.3884 17.0147 87.1641L16.3359 87.8984ZM17.8828 92.5742H16.8828V101H17.8828H18.8828V92.5742H17.8828ZM17.8828 101V100H14.707V101V102H17.8828V101ZM14.707 101H15.707V92.9609H14.707H13.707V101H14.707ZM25.0078 86.457H26.0078V85.457H25.0078V86.457ZM25.0078 101V102H26.0078V101H25.0078ZM21.8438 101H20.8438V102H21.8438V101ZM21.8438 86.457V85.457H20.8438V86.457H21.8438ZM25.0078 86.457H24.0078V101H25.0078H26.0078V86.457H25.0078ZM25.0078 101V100H21.8438V101V102H25.0078V101ZM21.8438 101H22.8438V86.457H21.8438H20.8438V101H21.8438ZM21.8438 86.457V87.457H25.0078V86.457V85.457H21.8438V86.457ZM32.25 86.457H33.25V85.457H32.25V86.457ZM32.25 101V102H33.25V101H32.25ZM29.0859 101H28.0859V102H29.0859V101ZM29.0859 86.457V85.457H28.0859V86.457H29.0859ZM32.25 86.457H31.25V101H32.25H33.25V86.457H32.25ZM32.25 101V100H29.0859V101V102H32.25V101ZM29.0859 101H30.0859V86.457H29.0859H28.0859V101H29.0859ZM29.0859 86.457V87.457H32.25V86.457V85.457H29.0859V86.457ZM39.4922 86.457H40.4922V85.457H39.4922V86.457ZM39.4922 94.1797V95.1797H40.4922V94.1797H39.4922ZM36.3281 94.1797H35.3281V95.1797H36.3281V94.1797ZM36.3281 86.457V85.457H35.3281V86.457H36.3281ZM39.4922 86.457H38.4922V94.1797H39.4922H40.4922V86.457H39.4922ZM39.4922 94.1797V93.1797H36.3281V94.1797V95.1797H39.4922V94.1797ZM36.3281 94.1797H37.3281V86.457H36.3281H35.3281V94.1797H36.3281ZM36.3281 86.457V87.457H39.4922V86.457V85.457H36.3281V86.457ZM53.0508 89.293V88.293H52.0508V89.293H53.0508ZM53.0508 101V102H54.0508V101H53.0508ZM49.8867 101H48.8867V102H49.8867V101ZM49.8867 89.293H50.8867V88.293H49.8867V89.293ZM42.0117 89.293H41.0117V90.293H42.0117V89.293ZM42.0117 86.457V85.457H41.0117V86.457H42.0117ZM54.8555 86.457H55.8555V85.457H54.8555V86.457ZM54.8555 89.293V90.293H55.8555V89.293H54.8555ZM53.0508 89.293H52.0508V101H53.0508H54.0508V89.293H53.0508ZM53.0508 101V100H49.8867V101V102H53.0508V101ZM49.8867 101H50.8867V89.293H49.8867H48.8867V101H49.8867ZM49.8867 89.293V88.293H42.0117V89.293V90.293H49.8867V89.293ZM42.0117 89.293H43.0117V86.457H42.0117H41.0117V89.293H42.0117ZM42.0117 86.457V87.457H54.8555V86.457V85.457H42.0117V86.457ZM54.8555 86.457H53.8555V89.293H54.8555H55.8555V86.457H54.8555ZM54.8555 89.293V88.293H53.0508V89.293V90.293H54.8555V89.293ZM74.0977 99.5586L74.5869 100.431L74.5949 100.426L74.0977 99.5586ZM71.7305 100.449L71.9672 101.421L71.973 101.419L71.7305 100.449ZM68.25 100.953L68.1716 99.9562L68.1712 99.9562L68.25 100.953ZM63.1758 101.117L62.1928 101.301L62.3455 102.117H63.1758V101.117ZM60.4336 86.457V85.457H59.2292L59.4506 86.6409L60.4336 86.457ZM63.75 86.457L64.7338 86.2777L64.5842 85.457H63.75V86.457ZM65.0273 93.4648L64.0436 93.6442L64.2245 94.637L65.2157 94.4469L65.0273 93.4648ZM65.8828 93.3008L65.695 92.3186L65.6945 92.3187L65.8828 93.3008ZM67.0547 92.7852L67.7505 93.5034L67.7508 93.5031L67.0547 92.7852ZM67.6406 91.6719L68.6062 91.9324L68.6089 91.9218L67.6406 91.6719ZM67.8164 90.6641L66.8265 90.5226L66.8254 90.5302L66.8244 90.5378L67.8164 90.6641ZM67.9922 89.0703L68.9884 89.1575L68.9893 89.1475L68.9899 89.1374L67.9922 89.0703ZM68.168 86.457V85.457H67.233L67.1702 86.3899L68.168 86.457ZM71.4023 86.457L72.3985 86.5444L72.4939 85.457H71.4023V86.457ZM71.0508 90.4648L70.0546 90.3775L70.0544 90.3794L71.0508 90.4648ZM70.5234 93.0781L69.5996 92.6951L69.5957 92.7048L70.5234 93.0781ZM69.4336 94.5781L68.8251 93.7845L68.8187 93.7895L69.4336 94.5781ZM67.2305 95.4805L67.4577 96.4543L67.4641 96.4528L67.2305 95.4805ZM65.4727 95.8906L65.2454 94.9168L64.3021 95.1369L64.4921 96.0867L65.4727 95.8906ZM65.9531 98.293L64.9725 98.4891L65.1333 99.293H65.9531V98.293ZM68.8242 98.1758L68.9278 99.1704L68.9369 99.1694L68.8242 98.1758ZM70.7578 97.7891L70.4637 96.8333L70.4568 96.8354L70.45 96.8376L70.7578 97.7891ZM72.5156 96.875L73.1622 97.6379L73.1696 97.6315L72.5156 96.875ZM73.6055 95.293L74.5324 95.6682L74.5339 95.6644L73.6055 95.293ZM74.168 92.7734L73.1747 92.6573L73.1737 92.6664L74.168 92.7734ZM74.9062 86.457V85.457H74.0163L73.913 86.3409L74.9062 86.457ZM78.1758 86.457L79.1686 86.5765L79.3033 85.457H78.1758V86.457ZM77.4258 92.6914L76.4329 92.572L76.4325 92.5759L77.4258 92.6914ZM76.7695 96.0312L75.8167 95.7277L75.8143 95.7354L76.7695 96.0312ZM75.7031 98.1875L74.918 97.5682L74.9168 97.5697L75.7031 98.1875ZM74.0977 99.5586L73.6084 98.6865C73.0652 98.9911 72.3646 99.2599 71.4879 99.4791L71.7305 100.449L71.973 101.419C72.9713 101.17 73.8488 100.845 74.5869 100.431L74.0977 99.5586ZM71.7305 100.449L71.4937 99.4777C70.6337 99.6872 69.5307 99.8493 68.1716 99.9562L68.25 100.953L68.3284 101.95C69.7506 101.838 70.9679 101.664 71.9672 101.421L71.7305 100.449ZM68.25 100.953L68.1712 99.9562C66.8232 100.063 65.1599 100.117 63.1758 100.117V101.117V102.117C65.1917 102.117 66.9112 102.062 68.3288 101.95L68.25 100.953ZM63.1758 101.117L64.1587 100.933L61.4165 86.2732L60.4336 86.457L59.4506 86.6409L62.1928 101.301L63.1758 101.117ZM60.4336 86.457V87.457H63.75V86.457V85.457H60.4336V86.457ZM63.75 86.457L62.7662 86.6364L64.0436 93.6442L65.0273 93.4648L66.0111 93.2855L64.7338 86.2777L63.75 86.457ZM65.0273 93.4648L65.2157 94.4469L66.0712 94.2829L65.8828 93.3008L65.6945 92.3187L64.839 92.4827L65.0273 93.4648ZM65.8828 93.3008L66.0706 94.283C66.6953 94.1636 67.3029 93.937 67.7505 93.5034L67.0547 92.7852L66.3589 92.0669C66.3065 92.1177 66.1328 92.2349 65.695 92.3186L65.8828 93.3008ZM67.0547 92.7852L67.7508 93.5031C68.1812 93.0857 68.445 92.5293 68.6061 91.9324L67.6406 91.6719L66.6752 91.4114C66.5706 91.7988 66.4438 91.9846 66.3585 92.0673L67.0547 92.7852ZM67.6406 91.6719L68.6089 91.9218C68.6868 91.62 68.7516 91.2363 68.8084 90.7903L67.8164 90.6641L66.8244 90.5378C66.7718 90.9512 66.7195 91.2394 66.6723 91.422L67.6406 91.6719ZM67.8164 90.6641L68.8064 90.8055C68.8722 90.3442 68.9327 89.7938 68.9884 89.1575L67.9922 89.0703L66.996 88.9831C66.9423 89.5968 66.8856 90.1089 66.8265 90.5226L67.8164 90.6641ZM67.9922 89.0703L68.9899 89.1374L69.1657 86.5241L68.168 86.457L67.1702 86.3899L66.9944 89.0032L67.9922 89.0703ZM68.168 86.457V87.457H71.4023V86.457V85.457H68.168V86.457ZM71.4023 86.457L70.4062 86.3696L70.0546 90.3775L71.0508 90.4648L72.047 90.5522L72.3985 86.5444L71.4023 86.457ZM71.0508 90.4648L70.0544 90.3794C70.01 90.8982 69.9479 91.3536 69.8703 91.7487L70.8516 91.9414L71.8328 92.1342C71.9271 91.6542 71.9978 91.1253 72.0471 90.5502L71.0508 90.4648ZM70.8516 91.9414L69.8703 91.7487C69.7938 92.1384 69.7011 92.4506 69.5997 92.6951L70.5234 93.0781L71.4472 93.4611C71.6114 93.065 71.7375 92.6194 71.8328 92.1342L70.8516 91.9414ZM70.5234 93.0781L69.5957 92.7048C69.3934 93.2077 69.1293 93.5514 68.8252 93.7845L69.4336 94.5781L70.042 95.3717C70.6754 94.8861 71.1379 94.2298 71.4511 93.4515L70.5234 93.0781ZM69.4336 94.5781L68.8187 93.7895C68.5261 94.0176 67.957 94.2774 66.9968 94.5081L67.2305 95.4805L67.4641 96.4528C68.5196 96.1991 69.4192 95.8574 70.0485 95.3668L69.4336 94.5781ZM67.2305 95.4805L67.0032 94.5066L65.2454 94.9168L65.4727 95.8906L65.6999 96.8645L67.4577 96.4543L67.2305 95.4805ZM65.4727 95.8906L64.4921 96.0867L64.9725 98.4891L65.9531 98.293L66.9337 98.0969L66.4532 95.6945L65.4727 95.8906ZM65.9531 98.293V99.293H66.2344V98.293V97.293H65.9531V98.293ZM66.2344 98.293V99.293C67.2361 99.293 68.1351 99.253 68.9278 99.1704L68.8242 98.1758L68.7206 97.1812C68.0133 97.2548 67.1858 97.293 66.2344 97.293V98.293ZM68.8242 98.1758L68.9369 99.1694C69.7387 99.0785 70.4527 98.9388 71.0656 98.7405L70.7578 97.7891L70.45 96.8376C70.0005 96.9831 69.4253 97.1012 68.7115 97.1821L68.8242 98.1758ZM70.7578 97.7891L71.0519 98.7448C71.8631 98.4952 72.5771 98.1337 73.1621 97.6379L72.5156 96.875L71.8691 96.1121C71.5323 96.3975 71.0744 96.6454 70.4637 96.8333L70.7578 97.7891ZM72.5156 96.875L73.1696 97.6315C73.7685 97.1138 74.217 96.4475 74.5324 95.6682L73.6055 95.293L72.6785 94.9178C72.4627 95.4509 72.1846 95.8393 71.8617 96.1185L72.5156 96.875ZM73.6055 95.293L74.5339 95.6644C74.8445 94.888 75.0469 93.9515 75.1622 92.8805L74.168 92.7734L73.1737 92.6664C73.0703 93.6266 72.8977 94.3698 72.677 94.9216L73.6055 95.293ZM74.168 92.7734L75.1612 92.8895L75.8995 86.5731L74.9062 86.457L73.913 86.3409L73.1747 92.6573L74.168 92.7734ZM74.9062 86.457V87.457H78.1758V86.457V85.457H74.9062V86.457ZM78.1758 86.457L77.1829 86.3376L76.4329 92.572L77.4258 92.6914L78.4186 92.8108L79.1686 86.5765L78.1758 86.457ZM77.4258 92.6914L76.4325 92.5759C76.2806 93.8821 76.0718 94.927 75.8167 95.7277L76.7695 96.0312L77.7223 96.3348C78.0298 95.3698 78.2585 94.1882 78.4191 92.8069L77.4258 92.6914ZM76.7695 96.0312L75.8143 95.7354C75.5666 96.5351 75.2599 97.1346 74.918 97.5682L75.7031 98.1875L76.4883 98.8068C77.0213 98.131 77.4256 97.293 77.7248 96.3271L76.7695 96.0312ZM75.7031 98.1875L74.9168 97.5697C74.5713 98.0094 74.1365 98.3837 73.6004 98.691L74.0977 99.5586L74.5949 100.426C75.3401 99.9991 75.9755 99.4594 76.4894 98.8053L75.7031 98.1875ZM89.3789 90.2188L88.6444 90.8974L88.6488 90.9021L89.3789 90.2188ZM83.9766 89.293V88.293H82.9766V89.293H83.9766ZM83.9766 92.4336H82.9766V93.4336H83.9766V92.4336ZM86.8242 92.4336H87.8242V91.4336H86.8242V92.4336ZM86.8242 95.2695V96.2695H87.8242V95.2695H86.8242ZM80.7773 95.2695H79.7773V96.2695H80.7773V95.2695ZM80.7773 86.457V85.457H79.7773V86.457H80.7773ZM80.9062 101H79.9062V102H80.9062V101ZM80.9062 98.1641V97.1641H79.9062V98.1641H80.9062ZM89.2148 97.1211L88.4997 96.4221L88.4957 96.4262L89.2148 97.1211ZM90.2344 93.0078H91.2344C91.2344 91.6277 90.9219 90.404 90.109 89.5354L89.3789 90.2188L88.6488 90.9021C88.9765 91.2522 89.2344 91.8879 89.2344 93.0078H90.2344ZM89.3789 90.2188L90.1134 89.5401C89.2808 88.6391 88.0594 88.293 86.6836 88.293V89.293V90.293C87.7609 90.293 88.3364 90.564 88.6445 90.8974L89.3789 90.2188ZM86.6836 89.293V88.293H83.9766V89.293V90.293H86.6836V89.293ZM83.9766 89.293H82.9766V92.4336H83.9766H84.9766V89.293H83.9766ZM83.9766 92.4336V93.4336H86.8242V92.4336V91.4336H83.9766V92.4336ZM86.8242 92.4336H85.8242V95.2695H86.8242H87.8242V92.4336H86.8242ZM86.8242 95.2695V94.2695H80.7773V95.2695V96.2695H86.8242V95.2695ZM80.7773 95.2695H81.7773V86.457H80.7773H79.7773V95.2695H80.7773ZM80.7773 86.457V87.457H86.707V86.457V85.457H80.7773V86.457ZM86.707 86.457V87.457C88.8714 87.457 90.2621 87.9636 91.0936 88.7772L91.793 88.0625L92.4924 87.3478C91.1363 86.0208 89.1364 85.457 86.707 85.457V86.457ZM91.793 88.0625L91.0936 88.7772C91.9198 89.5858 92.4336 90.9382 92.4336 93.0547H93.4336H94.4336C94.4336 90.6555 93.8536 88.6798 92.4924 87.3478L91.793 88.0625ZM93.4336 93.0547H92.4336V94.0156H93.4336H94.4336V93.0547H93.4336ZM93.4336 94.0156H92.4336C92.4336 96.1824 91.8781 97.6254 90.9406 98.5369C89.9979 99.4535 88.4973 100 86.25 100V101V102C88.7917 102 90.883 101.382 92.3348 99.9709C93.7918 98.5543 94.4336 96.5051 94.4336 94.0156H93.4336ZM86.25 101V100H80.9062V101V102H86.25V101ZM80.9062 101H81.9062V98.1641H80.9062H79.9062V101H80.9062ZM80.9062 98.1641V99.1641H86.1797V98.1641V97.1641H80.9062V98.1641ZM86.1797 98.1641V99.1641C87.6923 99.1641 89.0088 98.7734 89.934 97.816L89.2148 97.1211L88.4957 96.4262C88.0771 96.8594 87.3702 97.1641 86.1797 97.1641V98.1641ZM89.2148 97.1211L89.9299 97.8201C90.8583 96.8704 91.2344 95.5313 91.2344 93.9922H90.2344H89.2344C89.2344 95.2343 88.9308 95.9811 88.4997 96.4221L89.2148 97.1211ZM90.2344 93.9922H91.2344V93.0078H90.2344H89.2344V93.9922H90.2344ZM105.715 90.1484L104.963 90.8077L104.967 90.8128L105.715 90.1484ZM99.9609 89.293V88.293H98.9609V89.293H99.9609ZM99.9609 101V102H100.961V101H99.9609ZM96.7969 101H95.7969V102H96.7969V101ZM96.7969 86.457V85.457H95.7969V86.457H96.7969ZM108.094 87.8984L107.409 88.6275L107.415 88.6328L108.094 87.8984ZM109.641 101V102H110.641V101H109.641ZM106.465 101H105.465V102H106.465V101ZM106.465 92.9609H107.465C107.465 91.5696 107.209 90.3242 106.462 89.4841L105.715 90.1484L104.967 90.8128C105.221 91.0977 105.465 91.7273 105.465 92.9609H106.465ZM105.715 90.1484L106.467 89.4892C105.684 88.5958 104.447 88.293 103.09 88.293V89.293V90.293C104.233 90.293 104.746 90.5605 104.963 90.8077L105.715 90.1484ZM103.09 89.293V88.293H99.9609V89.293V90.293H103.09V89.293ZM99.9609 89.293H98.9609V101H99.9609H100.961V89.293H99.9609ZM99.9609 101V100H96.7969V101V102H99.9609V101ZM96.7969 101H97.7969V86.457H96.7969H95.7969V101H96.7969ZM96.7969 86.457V87.457H103.09V86.457V85.457H96.7969V86.457ZM103.09 86.457V87.457C105.303 87.457 106.66 87.9236 107.409 88.6275L108.094 87.8984L108.778 87.1694C107.481 85.9514 105.502 85.457 103.09 85.457V86.457ZM108.094 87.8984L107.415 88.6328C108.153 89.3148 108.641 90.5397 108.641 92.5742H109.641H110.641C110.641 90.2806 110.097 88.3884 108.772 87.1641L108.094 87.8984ZM109.641 92.5742H108.641V101H109.641H110.641V92.5742H109.641ZM109.641 101V100H106.465V101V102H109.641V101ZM106.465 101H107.465V92.9609H106.465H105.465V101H106.465Z" fill="#0E4866" mask="url(#path-4-outside-1_358_1702)"/>
</g>
<defs>
<filter id="filter0_d_358_1702" x="10.5" y="6.9165" width="79.25" height="73.7085" filterUnits="userSpaceOnUse" color-interpolation-filters="sRGB">
<feFlood flood-opacity="0" result="BackgroundImageFix"/>
<feColorMatrix in="SourceAlpha" type="matrix" values="0 0 0 0 0 0 0 0 0 0 0 0 0 0 0 0 0 0 127 0" result="hardAlpha"/>
<feOffset dy="4"/>
<feGaussianBlur stdDeviation="2"/>
<feComposite in2="hardAlpha" operator="out"/>
<feColorMatrix type="matrix" values="0 0 0 0 0 0 0 0 0 0 0 0 0 0 0 0 0 0 0.25 0"/>
<feBlend mode="normal" in2="BackgroundImageFix" result="effect1_dropShadow_358_1702"/>
<feBlend mode="normal" in="SourceGraphic" in2="effect1_dropShadow_358_1702" result="shape"/>
</filter>
<filter id="filter1_d_358_1702" x="0.0390625" y="85.457" width="114.602" height="24.6602" filterUnits="userSpaceOnUse" color-interpolation-filters="sRGB">
<feFlood flood-opacity="0" result="BackgroundImageFix"/>
<feColorMatrix in="SourceAlpha" type="matrix" values="0 0 0 0 0 0 0 0 0 0 0 0 0 0 0 0 0 0 127 0" result="hardAlpha"/>
<feOffset dy="4"/>
<feGaussianBlur stdDeviation="2"/>
<feComposite in2="hardAlpha" operator="out"/>
<feColorMatrix type="matrix" values="0 0 0 0 0 0 0 0 0 0 0 0 0 0 0 0 0 0 0.25 0"/>
<feBlend mode="normal" in2="BackgroundImageFix" result="effect1_dropShadow_358_1702"/>
<feBlend mode="normal" in="SourceGraphic" in2="effect1_dropShadow_358_1702" result="shape"/>
</filter>
</defs>
</svg>
