<svg width="92" height="86" viewBox="0 0 92 86" fill="none" xmlns="http://www.w3.org/2000/svg">
<path opacity="0.4" d="M41.5231 7.99084L21.771 14.6917C17.2189 16.2325 13.4981 21.1058 13.4981 25.5133V52.1375C13.4981 56.3659 16.5857 61.92 20.3461 64.4642L37.3669 75.9667C42.9481 79.765 52.1314 79.765 57.7126 75.9667L74.7335 64.4642C78.4939 61.92 81.5814 56.3659 81.5814 52.1375V25.5133C81.5814 21.1058 77.8606 16.2325 73.3085 14.6917L53.5564 7.99084C50.1918 6.88001 44.8085 6.88001 41.5231 7.99084Z" fill="#308075"/>
<path d="M47.1042 40.4918C47.1834 40.4918 47.2626 40.4918 47.3417 40.4918H47.421H47.5001C52.0522 40.3484 55.6147 37.0159 55.6542 32.8592C55.6542 28.6309 51.8543 25.1909 47.1835 25.1909C42.5126 25.1909 38.7126 28.6309 38.7126 32.8592C38.7918 36.9801 42.3542 40.3484 47.1042 40.4918Z" fill="#308075"/>
<path d="M56.1689 48.0523C51.3793 45.1857 43.6209 45.1857 38.7918 48.0523C36.5751 49.414 35.2689 51.349 35.2689 53.3557C35.2689 55.3982 36.5355 57.2615 38.7918 58.6232C41.2064 60.0565 44.3335 60.809 47.4605 60.809C50.5876 60.809 53.7543 60.0923 56.1293 58.6232C58.346 57.2615 59.6523 55.3265 59.6523 53.3198C59.6919 51.2773 58.4252 49.414 56.1689 48.0523Z" fill="#308075"/>
</svg>
